solid OpenSCAD_Model
  facet normal -1 0 0
    outer loop
      vertex 0 0 0
      vertex 0 0 3
      vertex 0 50 0
    endloop
  endfacet
  facet normal -1 0 0
    outer loop
      vertex 0 50 0
      vertex 0 0 3
      vertex 0 50 3
    endloop
  endfacet
  facet normal 0 -1 0
    outer loop
      vertex 0 0 3
      vertex 0 0 0
      vertex 50 0 0
    endloop
  endfacet
  facet normal 0 -1 0
    outer loop
      vertex 50 0 3
      vertex 0 0 3
      vertex 50 0 0
    endloop
  endfacet
  facet normal 0 0 -1
    outer loop
      vertex 47.6 47.6 0
      vertex 50 0 0
      vertex 47.6 2.4 0
    endloop
  endfacet
  facet normal 0 0 -1
    outer loop
      vertex 47.6 47.6 0
      vertex 0 50 0
      vertex 50 50 0
    endloop
  endfacet
  facet normal 0 0 -1
    outer loop
      vertex 0 0 0
      vertex 0 50 0
      vertex 2.4 47.6 0
    endloop
  endfacet
  facet normal 0 0 -1
    outer loop
      vertex 0 0 0
      vertex 2.4 47.6 0
      vertex 2.4 2.4 0
    endloop
  endfacet
  facet normal 0 0 -1
    outer loop
      vertex 0 0 0
      vertex 2.4 2.4 0
      vertex 50 0 0
    endloop
  endfacet
  facet normal 0 0 -1
    outer loop
      vertex 2.4 2.4 0
      vertex 47.6 2.4 0
      vertex 50 0 0
    endloop
  endfacet
  facet normal 0 0 -1
    outer loop
      vertex 50 0 0
      vertex 47.6 47.6 0
      vertex 50 50 0
    endloop
  endfacet
  facet normal 0 0 -1
    outer loop
      vertex 2.4 47.6 0
      vertex 0 50 0
      vertex 47.6 47.6 0
    endloop
  endfacet
  facet normal 0 1 0
    outer loop
      vertex 0 50 0
      vertex 0 50 3
      vertex 50 50 0
    endloop
  endfacet
  facet normal 0 1 0
    outer loop
      vertex 50 50 0
      vertex 0 50 3
      vertex 50 50 3
    endloop
  endfacet
  facet normal 0 0 1
    outer loop
      vertex 0 50 3
      vertex 0 0 3
      vertex 50 0 3
    endloop
  endfacet
  facet normal 0 0 1
    outer loop
      vertex 50 50 3
      vertex 0 50 3
      vertex 50 0 3
    endloop
  endfacet
  facet normal 1 0 0
    outer loop
      vertex 50 0 3
      vertex 50 0 0
      vertex 50 50 0
    endloop
  endfacet
  facet normal 1 0 0
    outer loop
      vertex 50 50 3
      vertex 50 0 3
      vertex 50 50 0
    endloop
  endfacet
  facet normal 1 0 0
    outer loop
      vertex 2.4 47.6 0
      vertex 2.4 47.6 2.2
      vertex 2.4 2.4 2.2
    endloop
  endfacet
  facet normal 1 0 0
    outer loop
      vertex 2.4 2.4 0
      vertex 2.4 47.6 0
      vertex 2.4 2.4 2.2
    endloop
  endfacet
  facet normal 0 -1 0
    outer loop
      vertex 47.6 47.6 0
      vertex 47.6 47.6 2.2
      vertex 2.4 47.6 2.2
    endloop
  endfacet
  facet normal 0 -1 0
    outer loop
      vertex 2.4 47.6 0
      vertex 47.6 47.6 0
      vertex 2.4 47.6 2.2
    endloop
  endfacet
  facet normal -1 0 0
    outer loop
      vertex 47.6 47.6 2.2
      vertex 47.6 47.6 0
      vertex 47.6 2.4 2.2
    endloop
  endfacet
  facet normal -1 0 0
    outer loop
      vertex 47.6 2.4 2.2
      vertex 47.6 47.6 0
      vertex 47.6 2.4 0
    endloop
  endfacet
  facet normal 0 1 0
    outer loop
      vertex 47.6 2.4 2.2
      vertex 47.6 2.4 0
      vertex 2.4 2.4 2.2
    endloop
  endfacet
  facet normal 0 1 0
    outer loop
      vertex 2.4 2.4 2.2
      vertex 47.6 2.4 0
      vertex 2.4 2.4 0
    endloop
  endfacet
  facet normal 0 0 -1
    outer loop
      vertex 3.8 3.8 2.2
      vertex 47.6 2.4 2.2
      vertex 2.4 2.4 2.2
    endloop
  endfacet
  facet normal 0 0 -1
    outer loop
      vertex 46.2 3.8 2.2
      vertex 47.6 2.4 2.2
      vertex 3.8 3.8 2.2
    endloop
  endfacet
  facet normal 0 0 -1
    outer loop
      vertex 2.4 47.6 2.2
      vertex 3.8 3.8 2.2
      vertex 2.4 2.4 2.2
    endloop
  endfacet
  facet normal 0 0 -1
    outer loop
      vertex 47.6 47.6 2.2
      vertex 47.6 2.4 2.2
      vertex 46.2 3.8 2.2
    endloop
  endfacet
  facet normal 0 0 -1
    outer loop
      vertex 47.6 47.6 2.2
      vertex 46.2 3.8 2.2
      vertex 46.2 46.2 2.2
    endloop
  endfacet
  facet normal 0 0 -1
    outer loop
      vertex 47.6 47.6 2.2
      vertex 46.2 46.2 2.2
      vertex 2.4 47.6 2.2
    endloop
  endfacet
  facet normal 0 0 -1
    outer loop
      vertex 46.2 46.2 2.2
      vertex 3.8 46.2 2.2
      vertex 2.4 47.6 2.2
    endloop
  endfacet
  facet normal 0 0 -1
    outer loop
      vertex 3.8 3.8 2.2
      vertex 2.4 47.6 2.2
      vertex 3.8 46.2 2.2
    endloop
  endfacet
  facet normal -1 0 0
    outer loop
      vertex 3.8 3.8 0
      vertex 3.8 3.8 2.2
      vertex 3.8 46.2 0
    endloop
  endfacet
  facet normal -1 0 0
    outer loop
      vertex 3.8 46.2 0
      vertex 3.8 3.8 2.2
      vertex 3.8 46.2 2.2
    endloop
  endfacet
  facet normal 0 -1 0
    outer loop
      vertex 3.8 3.8 2.2
      vertex 3.8 3.8 0
      vertex 46.2 3.8 0
    endloop
  endfacet
  facet normal 0 -1 0
    outer loop
      vertex 46.2 3.8 2.2
      vertex 3.8 3.8 2.2
      vertex 46.2 3.8 0
    endloop
  endfacet
  facet normal 0 1 0
    outer loop
      vertex 3.8 46.2 0
      vertex 3.8 46.2 2.2
      vertex 46.2 46.2 0
    endloop
  endfacet
  facet normal 0 1 0
    outer loop
      vertex 46.2 46.2 0
      vertex 3.8 46.2 2.2
      vertex 46.2 46.2 2.2
    endloop
  endfacet
  facet normal 1 0 0
    outer loop
      vertex 46.2 3.8 2.2
      vertex 46.2 3.8 0
      vertex 46.2 46.2 0
    endloop
  endfacet
  facet normal 1 0 0
    outer loop
      vertex 46.2 46.2 2.2
      vertex 46.2 3.8 2.2
      vertex 46.2 46.2 0
    endloop
  endfacet
  facet normal 0 0 -1
    outer loop
      vertex 26.6135 26.9504 0
      vertex 3.8 46.2 0
      vertex 46.2 46.2 0
    endloop
  endfacet
  facet normal 0 0 -1
    outer loop
      vertex 3.8 3.8 0
      vertex 3.8 46.2 0
      vertex 22.4688 25 0
    endloop
  endfacet
  facet normal 0 0 -1
    outer loop
      vertex 22.9522 26.4878 0
      vertex 3.8 46.2 0
      vertex 23.1548 26.7328 0
    endloop
  endfacet
  facet normal 0 0 -1
    outer loop
      vertex 3.8 3.8 0
      vertex 22.4688 25 0
      vertex 22.4887 24.6827 0
    endloop
  endfacet
  facet normal 0 0 -1
    outer loop
      vertex 3.8 3.8 0
      vertex 22.4887 24.6827 0
      vertex 22.5483 24.3705 0
    endloop
  endfacet
  facet normal 0 0 -1
    outer loop
      vertex 3.8 3.8 0
      vertex 22.5483 24.3705 0
      vertex 22.6465 24.0682 0
    endloop
  endfacet
  facet normal 0 0 -1
    outer loop
      vertex 3.8 3.8 0
      vertex 22.6465 24.0682 0
      vertex 22.7818 23.7806 0
    endloop
  endfacet
  facet normal 0 0 -1
    outer loop
      vertex 3.8 3.8 0
      vertex 22.7818 23.7806 0
      vertex 22.9522 23.5122 0
    endloop
  endfacet
  facet normal 0 0 -1
    outer loop
      vertex 3.8 3.8 0
      vertex 22.9522 23.5122 0
      vertex 23.1548 23.2672 0
    endloop
  endfacet
  facet normal 0 0 -1
    outer loop
      vertex 3.8 3.8 0
      vertex 23.1548 23.2672 0
      vertex 23.3865 23.0496 0
    endloop
  endfacet
  facet normal 0 0 -1
    outer loop
      vertex 3.8 3.8 0
      vertex 23.3865 23.0496 0
      vertex 46.2 3.8 0
    endloop
  endfacet
  facet normal 0 0 -1
    outer loop
      vertex 23.9222 22.7097 0
      vertex 46.2 3.8 0
      vertex 23.6437 22.8628 0
    endloop
  endfacet
  facet normal 0 0 -1
    outer loop
      vertex 24.2178 22.5926 0
      vertex 46.2 3.8 0
      vertex 23.9222 22.7097 0
    endloop
  endfacet
  facet normal 0 0 -1
    outer loop
      vertex 24.5257 22.5136 0
      vertex 46.2 3.8 0
      vertex 24.2178 22.5926 0
    endloop
  endfacet
  facet normal 0 0 -1
    outer loop
      vertex 24.8411 22.4737 0
      vertex 46.2 3.8 0
      vertex 24.5257 22.5136 0
    endloop
  endfacet
  facet normal 0 0 -1
    outer loop
      vertex 25.1589 22.4737 0
      vertex 46.2 3.8 0
      vertex 24.8411 22.4737 0
    endloop
  endfacet
  facet normal 0 0 -1
    outer loop
      vertex 25.4743 22.5136 0
      vertex 46.2 3.8 0
      vertex 25.1589 22.4737 0
    endloop
  endfacet
  facet normal 0 0 -1
    outer loop
      vertex 26.8452 23.2672 0
      vertex 46.2 3.8 0
      vertex 26.6135 23.0496 0
    endloop
  endfacet
  facet normal 0 0 -1
    outer loop
      vertex 22.5483 25.6295 0
      vertex 3.8 46.2 0
      vertex 22.6465 25.9318 0
    endloop
  endfacet
  facet normal 0 0 -1
    outer loop
      vertex 25.4743 22.5136 0
      vertex 25.7822 22.5926 0
      vertex 46.2 3.8 0
    endloop
  endfacet
  facet normal 0 0 -1
    outer loop
      vertex 25.7822 22.5926 0
      vertex 26.0778 22.7097 0
      vertex 46.2 3.8 0
    endloop
  endfacet
  facet normal 0 0 -1
    outer loop
      vertex 22.6465 25.9318 0
      vertex 3.8 46.2 0
      vertex 22.7818 26.2194 0
    endloop
  endfacet
  facet normal 0 0 -1
    outer loop
      vertex 26.0778 22.7097 0
      vertex 26.3563 22.8628 0
      vertex 46.2 3.8 0
    endloop
  endfacet
  facet normal 0 0 -1
    outer loop
      vertex 22.7818 26.2194 0
      vertex 3.8 46.2 0
      vertex 22.9522 26.4878 0
    endloop
  endfacet
  facet normal 0 0 -1
    outer loop
      vertex 26.3563 22.8628 0
      vertex 26.6135 23.0496 0
      vertex 46.2 3.8 0
    endloop
  endfacet
  facet normal 0 0 -1
    outer loop
      vertex 26.3563 27.1372 0
      vertex 3.8 46.2 0
      vertex 26.6135 26.9504 0
    endloop
  endfacet
  facet normal 0 0 -1
    outer loop
      vertex 46.2 3.8 0
      vertex 26.8452 23.2672 0
      vertex 46.2 46.2 0
    endloop
  endfacet
  facet normal 0 0 -1
    outer loop
      vertex 23.1548 26.7328 0
      vertex 3.8 46.2 0
      vertex 23.3865 26.9504 0
    endloop
  endfacet
  facet normal 0 0 -1
    outer loop
      vertex 26.8452 23.2672 0
      vertex 27.0478 23.5122 0
      vertex 46.2 46.2 0
    endloop
  endfacet
  facet normal 0 0 -1
    outer loop
      vertex 23.3865 26.9504 0
      vertex 3.8 46.2 0
      vertex 23.6437 27.1372 0
    endloop
  endfacet
  facet normal 0 0 -1
    outer loop
      vertex 27.0478 23.5122 0
      vertex 27.2182 23.7806 0
      vertex 46.2 46.2 0
    endloop
  endfacet
  facet normal 0 0 -1
    outer loop
      vertex 23.6437 27.1372 0
      vertex 3.8 46.2 0
      vertex 23.9222 27.2903 0
    endloop
  endfacet
  facet normal 0 0 -1
    outer loop
      vertex 27.2182 23.7806 0
      vertex 27.3535 24.0682 0
      vertex 46.2 46.2 0
    endloop
  endfacet
  facet normal 0 0 -1
    outer loop
      vertex 27.3535 24.0682 0
      vertex 27.4517 24.3705 0
      vertex 46.2 46.2 0
    endloop
  endfacet
  facet normal 0 0 -1
    outer loop
      vertex 23.9222 27.2903 0
      vertex 3.8 46.2 0
      vertex 24.2178 27.4074 0
    endloop
  endfacet
  facet normal 0 0 -1
    outer loop
      vertex 27.4517 24.3705 0
      vertex 27.5113 24.6827 0
      vertex 46.2 46.2 0
    endloop
  endfacet
  facet normal 0 0 -1
    outer loop
      vertex 24.2178 27.4074 0
      vertex 3.8 46.2 0
      vertex 24.5257 27.4864 0
    endloop
  endfacet
  facet normal 0 0 -1
    outer loop
      vertex 27.5113 24.6827 0
      vertex 27.5312 25 0
      vertex 46.2 46.2 0
    endloop
  endfacet
  facet normal 0 0 -1
    outer loop
      vertex 24.5257 27.4864 0
      vertex 3.8 46.2 0
      vertex 24.8411 27.5263 0
    endloop
  endfacet
  facet normal 0 0 -1
    outer loop
      vertex 27.5312 25 0
      vertex 27.5113 25.3172 0
      vertex 46.2 46.2 0
    endloop
  endfacet
  facet normal 0 0 -1
    outer loop
      vertex 24.8411 27.5263 0
      vertex 3.8 46.2 0
      vertex 25.1589 27.5263 0
    endloop
  endfacet
  facet normal 0 0 -1
    outer loop
      vertex 27.5113 25.3172 0
      vertex 27.4517 25.6295 0
      vertex 46.2 46.2 0
    endloop
  endfacet
  facet normal 0 0 -1
    outer loop
      vertex 25.1589 27.5263 0
      vertex 3.8 46.2 0
      vertex 25.4743 27.4864 0
    endloop
  endfacet
  facet normal 0 0 -1
    outer loop
      vertex 27.4517 25.6295 0
      vertex 27.3535 25.9318 0
      vertex 46.2 46.2 0
    endloop
  endfacet
  facet normal 0 0 -1
    outer loop
      vertex 25.4743 27.4864 0
      vertex 3.8 46.2 0
      vertex 25.7822 27.4074 0
    endloop
  endfacet
  facet normal 0 0 -1
    outer loop
      vertex 27.3535 25.9318 0
      vertex 27.2182 26.2194 0
      vertex 46.2 46.2 0
    endloop
  endfacet
  facet normal 0 0 -1
    outer loop
      vertex 25.7822 27.4074 0
      vertex 3.8 46.2 0
      vertex 26.0778 27.2903 0
    endloop
  endfacet
  facet normal 0 0 -1
    outer loop
      vertex 27.2182 26.2194 0
      vertex 27.0478 26.4878 0
      vertex 46.2 46.2 0
    endloop
  endfacet
  facet normal 0 0 -1
    outer loop
      vertex 26.0778 27.2903 0
      vertex 3.8 46.2 0
      vertex 26.3563 27.1372 0
    endloop
  endfacet
  facet normal 0 0 -1
    outer loop
      vertex 27.0478 26.4878 0
      vertex 26.8452 26.7328 0
      vertex 46.2 46.2 0
    endloop
  endfacet
  facet normal 0 0 -1
    outer loop
      vertex 26.8452 26.7328 0
      vertex 26.6135 26.9504 0
      vertex 46.2 46.2 0
    endloop
  endfacet
  facet normal 0 0 -1
    outer loop
      vertex 22.4887 25.3172 0
      vertex 3.8 46.2 0
      vertex 22.5483 25.6295 0
    endloop
  endfacet
  facet normal 0 0 -1
    outer loop
      vertex 22.4688 25 0
      vertex 3.8 46.2 0
      vertex 22.4887 25.3172 0
    endloop
  endfacet
  facet normal 0 0 -1
    outer loop
      vertex 23.6437 22.8628 0
      vertex 46.2 3.8 0
      vertex 23.3865 23.0496 0
    endloop
  endfacet
  facet normal 0.998027 -0.0627915 0
    outer loop
      vertex 22.4887 25.3172 0
      vertex 22.4887 25.3172 1.7875
      vertex 22.4688 25 1.7875
    endloop
  endfacet
  facet normal 0.998027 -0.0627915 0
    outer loop
      vertex 22.4688 25 0
      vertex 22.4887 25.3172 0
      vertex 22.4688 25 1.7875
    endloop
  endfacet
  facet normal 0.998027 0.0627915 0
    outer loop
      vertex 22.4688 25 1.7875
      vertex 22.4887 24.6827 1.7875
      vertex 22.4887 24.6827 0
    endloop
  endfacet
  facet normal 0.998027 0.0627915 0
    outer loop
      vertex 22.4688 25 0
      vertex 22.4688 25 1.7875
      vertex 22.4887 24.6827 0
    endloop
  endfacet
  facet normal 0.982287 -0.187381 0
    outer loop
      vertex 22.5483 25.6295 0
      vertex 22.5483 25.6295 1.7875
      vertex 22.4887 25.3172 1.7875
    endloop
  endfacet
  facet normal 0.982287 -0.187381 0
    outer loop
      vertex 22.4887 25.3172 0
      vertex 22.5483 25.6295 0
      vertex 22.4887 25.3172 1.7875
    endloop
  endfacet
  facet normal 0.951057 -0.309016 0
    outer loop
      vertex 22.6465 25.9318 0
      vertex 22.6465 25.9318 1.7875
      vertex 22.5483 25.6295 1.7875
    endloop
  endfacet
  facet normal 0.951057 -0.309016 0
    outer loop
      vertex 22.5483 25.6295 0
      vertex 22.6465 25.9318 0
      vertex 22.5483 25.6295 1.7875
    endloop
  endfacet
  facet normal 0.904827 -0.42578 0
    outer loop
      vertex 22.7818 26.2194 0
      vertex 22.7818 26.2194 1.7875
      vertex 22.6465 25.9318 1.7875
    endloop
  endfacet
  facet normal 0.904827 -0.42578 0
    outer loop
      vertex 22.6465 25.9318 0
      vertex 22.7818 26.2194 0
      vertex 22.6465 25.9318 1.7875
    endloop
  endfacet
  facet normal 0.844328 -0.535827 0
    outer loop
      vertex 22.9522 26.4878 0
      vertex 22.9522 26.4878 1.7875
      vertex 22.7818 26.2194 1.7875
    endloop
  endfacet
  facet normal 0.844328 -0.535827 0
    outer loop
      vertex 22.7818 26.2194 0
      vertex 22.9522 26.4878 0
      vertex 22.7818 26.2194 1.7875
    endloop
  endfacet
  facet normal 0.770515 -0.637422 0
    outer loop
      vertex 23.1548 26.7328 0
      vertex 23.1548 26.7328 1.7875
      vertex 22.9522 26.4878 1.7875
    endloop
  endfacet
  facet normal 0.770515 -0.637422 0
    outer loop
      vertex 22.9522 26.4878 0
      vertex 23.1548 26.7328 0
      vertex 22.9522 26.4878 1.7875
    endloop
  endfacet
  facet normal 0.684546 -0.728969 0
    outer loop
      vertex 23.3865 26.9504 0
      vertex 23.3865 26.9504 1.7875
      vertex 23.1548 26.7328 1.7875
    endloop
  endfacet
  facet normal 0.684546 -0.728969 0
    outer loop
      vertex 23.1548 26.7328 0
      vertex 23.3865 26.9504 0
      vertex 23.1548 26.7328 1.7875
    endloop
  endfacet
  facet normal 0.587786 -0.809017 0
    outer loop
      vertex 23.6437 27.1372 0
      vertex 23.6437 27.1372 1.7875
      vertex 23.3865 26.9504 1.7875
    endloop
  endfacet
  facet normal 0.587786 -0.809017 0
    outer loop
      vertex 23.3865 26.9504 0
      vertex 23.6437 27.1372 0
      vertex 23.3865 26.9504 1.7875
    endloop
  endfacet
  facet normal 0.481752 -0.876307 0
    outer loop
      vertex 23.9222 27.2903 0
      vertex 23.9222 27.2903 1.7875
      vertex 23.6437 27.1372 1.7875
    endloop
  endfacet
  facet normal 0.481752 -0.876307 0
    outer loop
      vertex 23.6437 27.1372 0
      vertex 23.9222 27.2903 0
      vertex 23.6437 27.1372 1.7875
    endloop
  endfacet
  facet normal 0.368126 -0.929776 0
    outer loop
      vertex 24.2178 27.4074 0
      vertex 24.2178 27.4074 1.7875
      vertex 23.9222 27.2903 1.7875
    endloop
  endfacet
  facet normal 0.368126 -0.929776 0
    outer loop
      vertex 23.9222 27.2903 0
      vertex 24.2178 27.4074 0
      vertex 23.9222 27.2903 1.7875
    endloop
  endfacet
  facet normal 0.248691 -0.968583 0
    outer loop
      vertex 24.5257 27.4864 0
      vertex 24.5257 27.4864 1.7875
      vertex 24.2178 27.4074 1.7875
    endloop
  endfacet
  facet normal 0.248691 -0.968583 0
    outer loop
      vertex 24.2178 27.4074 0
      vertex 24.5257 27.4864 0
      vertex 24.2178 27.4074 1.7875
    endloop
  endfacet
  facet normal 0.125332 -0.992115 0
    outer loop
      vertex 24.8411 27.5263 0
      vertex 24.8411 27.5263 1.7875
      vertex 24.5257 27.4864 1.7875
    endloop
  endfacet
  facet normal 0.125332 -0.992115 0
    outer loop
      vertex 24.5257 27.4864 0
      vertex 24.8411 27.5263 0
      vertex 24.5257 27.4864 1.7875
    endloop
  endfacet
  facet normal 0 -1 0
    outer loop
      vertex 25.1589 27.5263 0
      vertex 25.1589 27.5263 1.7875
      vertex 24.8411 27.5263 1.7875
    endloop
  endfacet
  facet normal 0 -1 0
    outer loop
      vertex 24.8411 27.5263 0
      vertex 25.1589 27.5263 0
      vertex 24.8411 27.5263 1.7875
    endloop
  endfacet
  facet normal -0.125332 -0.992115 0
    outer loop
      vertex 25.4743 27.4864 0
      vertex 25.4743 27.4864 1.7875
      vertex 25.1589 27.5263 1.7875
    endloop
  endfacet
  facet normal -0.125332 -0.992115 0
    outer loop
      vertex 25.1589 27.5263 0
      vertex 25.4743 27.4864 0
      vertex 25.1589 27.5263 1.7875
    endloop
  endfacet
  facet normal -0.248691 -0.968583 0
    outer loop
      vertex 25.7822 27.4074 0
      vertex 25.7822 27.4074 1.7875
      vertex 25.4743 27.4864 1.7875
    endloop
  endfacet
  facet normal -0.248691 -0.968583 0
    outer loop
      vertex 25.4743 27.4864 0
      vertex 25.7822 27.4074 0
      vertex 25.4743 27.4864 1.7875
    endloop
  endfacet
  facet normal -0.368126 -0.929776 0
    outer loop
      vertex 26.0778 27.2903 0
      vertex 26.0778 27.2903 1.7875
      vertex 25.7822 27.4074 1.7875
    endloop
  endfacet
  facet normal -0.368126 -0.929776 0
    outer loop
      vertex 25.7822 27.4074 0
      vertex 26.0778 27.2903 0
      vertex 25.7822 27.4074 1.7875
    endloop
  endfacet
  facet normal -0.481752 -0.876307 0
    outer loop
      vertex 26.3563 27.1372 0
      vertex 26.3563 27.1372 1.7875
      vertex 26.0778 27.2903 1.7875
    endloop
  endfacet
  facet normal -0.481752 -0.876307 0
    outer loop
      vertex 26.0778 27.2903 0
      vertex 26.3563 27.1372 0
      vertex 26.0778 27.2903 1.7875
    endloop
  endfacet
  facet normal -0.587786 -0.809017 0
    outer loop
      vertex 26.6135 26.9504 0
      vertex 26.6135 26.9504 1.7875
      vertex 26.3563 27.1372 1.7875
    endloop
  endfacet
  facet normal -0.587786 -0.809017 0
    outer loop
      vertex 26.3563 27.1372 0
      vertex 26.6135 26.9504 0
      vertex 26.3563 27.1372 1.7875
    endloop
  endfacet
  facet normal -0.684546 -0.728969 0
    outer loop
      vertex 26.8452 26.7328 0
      vertex 26.8452 26.7328 1.7875
      vertex 26.6135 26.9504 1.7875
    endloop
  endfacet
  facet normal -0.684546 -0.728969 0
    outer loop
      vertex 26.6135 26.9504 0
      vertex 26.8452 26.7328 0
      vertex 26.6135 26.9504 1.7875
    endloop
  endfacet
  facet normal -0.770515 -0.637422 0
    outer loop
      vertex 27.0478 26.4878 1.7875
      vertex 26.8452 26.7328 1.7875
      vertex 27.0478 26.4878 0
    endloop
  endfacet
  facet normal -0.770515 -0.637422 0
    outer loop
      vertex 27.0478 26.4878 0
      vertex 26.8452 26.7328 1.7875
      vertex 26.8452 26.7328 0
    endloop
  endfacet
  facet normal -0.844328 -0.535827 0
    outer loop
      vertex 27.2182 26.2194 1.7875
      vertex 27.0478 26.4878 1.7875
      vertex 27.2182 26.2194 0
    endloop
  endfacet
  facet normal -0.844328 -0.535827 0
    outer loop
      vertex 27.2182 26.2194 0
      vertex 27.0478 26.4878 1.7875
      vertex 27.0478 26.4878 0
    endloop
  endfacet
  facet normal -0.904827 -0.42578 0
    outer loop
      vertex 27.3535 25.9318 1.7875
      vertex 27.2182 26.2194 1.7875
      vertex 27.3535 25.9318 0
    endloop
  endfacet
  facet normal -0.904827 -0.42578 0
    outer loop
      vertex 27.3535 25.9318 0
      vertex 27.2182 26.2194 1.7875
      vertex 27.2182 26.2194 0
    endloop
  endfacet
  facet normal -0.951057 -0.309016 0
    outer loop
      vertex 27.4517 25.6295 1.7875
      vertex 27.3535 25.9318 1.7875
      vertex 27.4517 25.6295 0
    endloop
  endfacet
  facet normal -0.951057 -0.309016 0
    outer loop
      vertex 27.4517 25.6295 0
      vertex 27.3535 25.9318 1.7875
      vertex 27.3535 25.9318 0
    endloop
  endfacet
  facet normal -0.982287 -0.187381 0
    outer loop
      vertex 27.5113 25.3172 1.7875
      vertex 27.4517 25.6295 1.7875
      vertex 27.5113 25.3172 0
    endloop
  endfacet
  facet normal -0.982287 -0.187381 0
    outer loop
      vertex 27.5113 25.3172 0
      vertex 27.4517 25.6295 1.7875
      vertex 27.4517 25.6295 0
    endloop
  endfacet
  facet normal -0.998027 -0.0627915 0
    outer loop
      vertex 27.5312 25 1.7875
      vertex 27.5113 25.3172 1.7875
      vertex 27.5312 25 0
    endloop
  endfacet
  facet normal -0.998027 -0.0627915 0
    outer loop
      vertex 27.5312 25 0
      vertex 27.5113 25.3172 1.7875
      vertex 27.5113 25.3172 0
    endloop
  endfacet
  facet normal -0.998027 0.0627915 0
    outer loop
      vertex 27.5312 25 1.7875
      vertex 27.5312 25 0
      vertex 27.5113 24.6827 1.7875
    endloop
  endfacet
  facet normal -0.998027 0.0627915 0
    outer loop
      vertex 27.5113 24.6827 1.7875
      vertex 27.5312 25 0
      vertex 27.5113 24.6827 0
    endloop
  endfacet
  facet normal -0.982287 0.187381 0
    outer loop
      vertex 27.5113 24.6827 1.7875
      vertex 27.5113 24.6827 0
      vertex 27.4517 24.3705 1.7875
    endloop
  endfacet
  facet normal -0.982287 0.187381 0
    outer loop
      vertex 27.4517 24.3705 1.7875
      vertex 27.5113 24.6827 0
      vertex 27.4517 24.3705 0
    endloop
  endfacet
  facet normal -0.951057 0.309016 0
    outer loop
      vertex 27.4517 24.3705 1.7875
      vertex 27.4517 24.3705 0
      vertex 27.3535 24.0682 1.7875
    endloop
  endfacet
  facet normal -0.951057 0.309016 0
    outer loop
      vertex 27.3535 24.0682 1.7875
      vertex 27.4517 24.3705 0
      vertex 27.3535 24.0682 0
    endloop
  endfacet
  facet normal -0.904827 0.42578 0
    outer loop
      vertex 27.3535 24.0682 1.7875
      vertex 27.3535 24.0682 0
      vertex 27.2182 23.7806 1.7875
    endloop
  endfacet
  facet normal -0.904827 0.42578 0
    outer loop
      vertex 27.2182 23.7806 1.7875
      vertex 27.3535 24.0682 0
      vertex 27.2182 23.7806 0
    endloop
  endfacet
  facet normal -0.844328 0.535827 0
    outer loop
      vertex 27.2182 23.7806 1.7875
      vertex 27.2182 23.7806 0
      vertex 27.0478 23.5122 1.7875
    endloop
  endfacet
  facet normal -0.844328 0.535827 0
    outer loop
      vertex 27.0478 23.5122 1.7875
      vertex 27.2182 23.7806 0
      vertex 27.0478 23.5122 0
    endloop
  endfacet
  facet normal -0.770515 0.637422 0
    outer loop
      vertex 27.0478 23.5122 1.7875
      vertex 27.0478 23.5122 0
      vertex 26.8452 23.2672 1.7875
    endloop
  endfacet
  facet normal -0.770515 0.637422 0
    outer loop
      vertex 26.8452 23.2672 1.7875
      vertex 27.0478 23.5122 0
      vertex 26.8452 23.2672 0
    endloop
  endfacet
  facet normal -0.684546 0.728969 0
    outer loop
      vertex 26.8452 23.2672 1.7875
      vertex 26.8452 23.2672 0
      vertex 26.6135 23.0496 1.7875
    endloop
  endfacet
  facet normal -0.684546 0.728969 0
    outer loop
      vertex 26.6135 23.0496 1.7875
      vertex 26.8452 23.2672 0
      vertex 26.6135 23.0496 0
    endloop
  endfacet
  facet normal -0.587786 0.809017 0
    outer loop
      vertex 26.6135 23.0496 1.7875
      vertex 26.6135 23.0496 0
      vertex 26.3563 22.8628 1.7875
    endloop
  endfacet
  facet normal -0.587786 0.809017 0
    outer loop
      vertex 26.3563 22.8628 1.7875
      vertex 26.6135 23.0496 0
      vertex 26.3563 22.8628 0
    endloop
  endfacet
  facet normal -0.481752 0.876307 0
    outer loop
      vertex 26.3563 22.8628 1.7875
      vertex 26.3563 22.8628 0
      vertex 26.0778 22.7097 1.7875
    endloop
  endfacet
  facet normal -0.481752 0.876307 0
    outer loop
      vertex 26.0778 22.7097 1.7875
      vertex 26.3563 22.8628 0
      vertex 26.0778 22.7097 0
    endloop
  endfacet
  facet normal -0.368126 0.929776 0
    outer loop
      vertex 26.0778 22.7097 1.7875
      vertex 26.0778 22.7097 0
      vertex 25.7822 22.5926 1.7875
    endloop
  endfacet
  facet normal -0.368126 0.929776 0
    outer loop
      vertex 25.7822 22.5926 1.7875
      vertex 26.0778 22.7097 0
      vertex 25.7822 22.5926 0
    endloop
  endfacet
  facet normal -0.248691 0.968583 0
    outer loop
      vertex 25.7822 22.5926 1.7875
      vertex 25.7822 22.5926 0
      vertex 25.4743 22.5136 1.7875
    endloop
  endfacet
  facet normal -0.248691 0.968583 0
    outer loop
      vertex 25.4743 22.5136 1.7875
      vertex 25.7822 22.5926 0
      vertex 25.4743 22.5136 0
    endloop
  endfacet
  facet normal -0.125332 0.992115 0
    outer loop
      vertex 25.4743 22.5136 1.7875
      vertex 25.4743 22.5136 0
      vertex 25.1589 22.4737 1.7875
    endloop
  endfacet
  facet normal -0.125332 0.992115 0
    outer loop
      vertex 25.1589 22.4737 1.7875
      vertex 25.4743 22.5136 0
      vertex 25.1589 22.4737 0
    endloop
  endfacet
  facet normal 0 1 0
    outer loop
      vertex 25.1589 22.4737 1.7875
      vertex 25.1589 22.4737 0
      vertex 24.8411 22.4737 1.7875
    endloop
  endfacet
  facet normal 0 1 0
    outer loop
      vertex 24.8411 22.4737 1.7875
      vertex 25.1589 22.4737 0
      vertex 24.8411 22.4737 0
    endloop
  endfacet
  facet normal 0.125332 0.992115 0
    outer loop
      vertex 24.8411 22.4737 1.7875
      vertex 24.8411 22.4737 0
      vertex 24.5257 22.5136 1.7875
    endloop
  endfacet
  facet normal 0.125332 0.992115 0
    outer loop
      vertex 24.5257 22.5136 1.7875
      vertex 24.8411 22.4737 0
      vertex 24.5257 22.5136 0
    endloop
  endfacet
  facet normal 0.248691 0.968583 0
    outer loop
      vertex 24.5257 22.5136 1.7875
      vertex 24.5257 22.5136 0
      vertex 24.2178 22.5926 1.7875
    endloop
  endfacet
  facet normal 0.248691 0.968583 0
    outer loop
      vertex 24.2178 22.5926 1.7875
      vertex 24.5257 22.5136 0
      vertex 24.2178 22.5926 0
    endloop
  endfacet
  facet normal 0.368126 0.929776 0
    outer loop
      vertex 24.2178 22.5926 1.7875
      vertex 24.2178 22.5926 0
      vertex 23.9222 22.7097 1.7875
    endloop
  endfacet
  facet normal 0.368126 0.929776 0
    outer loop
      vertex 23.9222 22.7097 1.7875
      vertex 24.2178 22.5926 0
      vertex 23.9222 22.7097 0
    endloop
  endfacet
  facet normal 0.481752 0.876307 0
    outer loop
      vertex 23.9222 22.7097 1.7875
      vertex 23.9222 22.7097 0
      vertex 23.6437 22.8628 1.7875
    endloop
  endfacet
  facet normal 0.481752 0.876307 0
    outer loop
      vertex 23.6437 22.8628 1.7875
      vertex 23.9222 22.7097 0
      vertex 23.6437 22.8628 0
    endloop
  endfacet
  facet normal 0.587786 0.809017 0
    outer loop
      vertex 23.6437 22.8628 1.7875
      vertex 23.6437 22.8628 0
      vertex 23.3865 23.0496 1.7875
    endloop
  endfacet
  facet normal 0.587786 0.809017 0
    outer loop
      vertex 23.3865 23.0496 1.7875
      vertex 23.6437 22.8628 0
      vertex 23.3865 23.0496 0
    endloop
  endfacet
  facet normal 0.684546 0.728969 0
    outer loop
      vertex 23.3865 23.0496 1.7875
      vertex 23.3865 23.0496 0
      vertex 23.1548 23.2672 1.7875
    endloop
  endfacet
  facet normal 0.684546 0.728969 0
    outer loop
      vertex 23.1548 23.2672 1.7875
      vertex 23.3865 23.0496 0
      vertex 23.1548 23.2672 0
    endloop
  endfacet
  facet normal 0.770515 0.637422 0
    outer loop
      vertex 22.9522 23.5122 1.7875
      vertex 23.1548 23.2672 1.7875
      vertex 23.1548 23.2672 0
    endloop
  endfacet
  facet normal 0.770515 0.637422 0
    outer loop
      vertex 22.9522 23.5122 0
      vertex 22.9522 23.5122 1.7875
      vertex 23.1548 23.2672 0
    endloop
  endfacet
  facet normal 0.844328 0.535827 0
    outer loop
      vertex 22.7818 23.7806 1.7875
      vertex 22.9522 23.5122 1.7875
      vertex 22.9522 23.5122 0
    endloop
  endfacet
  facet normal 0.844328 0.535827 0
    outer loop
      vertex 22.7818 23.7806 0
      vertex 22.7818 23.7806 1.7875
      vertex 22.9522 23.5122 0
    endloop
  endfacet
  facet normal 0.904827 0.42578 0
    outer loop
      vertex 22.6465 24.0682 1.7875
      vertex 22.7818 23.7806 1.7875
      vertex 22.7818 23.7806 0
    endloop
  endfacet
  facet normal 0.904827 0.42578 0
    outer loop
      vertex 22.6465 24.0682 0
      vertex 22.6465 24.0682 1.7875
      vertex 22.7818 23.7806 0
    endloop
  endfacet
  facet normal 0.951057 0.309016 0
    outer loop
      vertex 22.5483 24.3705 1.7875
      vertex 22.6465 24.0682 1.7875
      vertex 22.6465 24.0682 0
    endloop
  endfacet
  facet normal 0.951057 0.309016 0
    outer loop
      vertex 22.5483 24.3705 0
      vertex 22.5483 24.3705 1.7875
      vertex 22.6465 24.0682 0
    endloop
  endfacet
  facet normal 0.982287 0.187381 0
    outer loop
      vertex 22.4887 24.6827 1.7875
      vertex 22.5483 24.3705 1.7875
      vertex 22.5483 24.3705 0
    endloop
  endfacet
  facet normal 0.982287 0.187381 0
    outer loop
      vertex 22.4887 24.6827 0
      vertex 22.4887 24.6827 1.7875
      vertex 22.5483 24.3705 0
    endloop
  endfacet
  facet normal 0 0 -1
    outer loop
      vertex 22.5483 25.6295 1.7875
      vertex 22.6465 25.9318 1.7875
      vertex 22.4887 25.3172 1.7875
    endloop
  endfacet
  facet normal 0 0 -1
    outer loop
      vertex 22.4887 25.3172 1.7875
      vertex 22.6465 25.9318 1.7875
      vertex 22.7818 26.2194 1.7875
    endloop
  endfacet
  facet normal 0 0 -1
    outer loop
      vertex 22.4887 25.3172 1.7875
      vertex 22.7818 26.2194 1.7875
      vertex 22.9522 26.4878 1.7875
    endloop
  endfacet
  facet normal 0 0 -1
    outer loop
      vertex 22.4887 25.3172 1.7875
      vertex 22.9522 26.4878 1.7875
      vertex 23.1548 26.7328 1.7875
    endloop
  endfacet
  facet normal 0 0 -1
    outer loop
      vertex 22.4887 25.3172 1.7875
      vertex 23.1548 26.7328 1.7875
      vertex 23.3865 26.9504 1.7875
    endloop
  endfacet
  facet normal 0 0 -1
    outer loop
      vertex 22.4887 25.3172 1.7875
      vertex 23.3865 26.9504 1.7875
      vertex 23.6437 27.1372 1.7875
    endloop
  endfacet
  facet normal 0 0 -1
    outer loop
      vertex 22.4887 25.3172 1.7875
      vertex 23.6437 27.1372 1.7875
      vertex 23.9222 27.2903 1.7875
    endloop
  endfacet
  facet normal 0 0 -1
    outer loop
      vertex 22.4887 25.3172 1.7875
      vertex 23.9222 27.2903 1.7875
      vertex 24.2178 27.4074 1.7875
    endloop
  endfacet
  facet normal 0 0 -1
    outer loop
      vertex 22.4887 25.3172 1.7875
      vertex 24.2178 27.4074 1.7875
      vertex 24.5257 27.4864 1.7875
    endloop
  endfacet
  facet normal 0 0 -1
    outer loop
      vertex 22.4887 25.3172 1.7875
      vertex 24.5257 27.4864 1.7875
      vertex 24.8411 27.5263 1.7875
    endloop
  endfacet
  facet normal 0 0 -1
    outer loop
      vertex 22.4887 25.3172 1.7875
      vertex 24.8411 27.5263 1.7875
      vertex 25.1589 27.5263 1.7875
    endloop
  endfacet
  facet normal 0 0 -1
    outer loop
      vertex 22.4887 25.3172 1.7875
      vertex 25.1589 27.5263 1.7875
      vertex 25.4743 27.4864 1.7875
    endloop
  endfacet
  facet normal 0 0 -1
    outer loop
      vertex 22.4887 25.3172 1.7875
      vertex 25.4743 27.4864 1.7875
      vertex 25.7822 27.4074 1.7875
    endloop
  endfacet
  facet normal 0 0 -1
    outer loop
      vertex 22.4887 25.3172 1.7875
      vertex 25.7822 27.4074 1.7875
      vertex 26.0778 27.2903 1.7875
    endloop
  endfacet
  facet normal 0 0 -1
    outer loop
      vertex 22.4887 25.3172 1.7875
      vertex 26.0778 27.2903 1.7875
      vertex 26.3563 27.1372 1.7875
    endloop
  endfacet
  facet normal 0 0 -1
    outer loop
      vertex 22.4887 25.3172 1.7875
      vertex 26.3563 27.1372 1.7875
      vertex 26.6135 26.9504 1.7875
    endloop
  endfacet
  facet normal 0 0 -1
    outer loop
      vertex 22.4887 25.3172 1.7875
      vertex 26.6135 26.9504 1.7875
      vertex 26.8452 26.7328 1.7875
    endloop
  endfacet
  facet normal 0 0 -1
    outer loop
      vertex 22.4887 25.3172 1.7875
      vertex 26.8452 26.7328 1.7875
      vertex 27.0478 26.4878 1.7875
    endloop
  endfacet
  facet normal 0 0 -1
    outer loop
      vertex 22.4887 25.3172 1.7875
      vertex 27.0478 26.4878 1.7875
      vertex 27.2182 26.2194 1.7875
    endloop
  endfacet
  facet normal 0 0 -1
    outer loop
      vertex 22.4887 25.3172 1.7875
      vertex 27.2182 26.2194 1.7875
      vertex 27.3535 25.9318 1.7875
    endloop
  endfacet
  facet normal 0 0 -1
    outer loop
      vertex 22.4887 25.3172 1.7875
      vertex 27.3535 25.9318 1.7875
      vertex 27.4517 25.6295 1.7875
    endloop
  endfacet
  facet normal 0 0 -1
    outer loop
      vertex 22.4887 25.3172 1.7875
      vertex 27.4517 25.6295 1.7875
      vertex 27.5113 25.3172 1.7875
    endloop
  endfacet
  facet normal 0 0 -1
    outer loop
      vertex 22.4887 25.3172 1.7875
      vertex 27.5113 25.3172 1.7875
      vertex 27.5312 25 1.7875
    endloop
  endfacet
  facet normal 0 0 -1
    outer loop
      vertex 22.4887 25.3172 1.7875
      vertex 27.5312 25 1.7875
      vertex 27.5113 24.6827 1.7875
    endloop
  endfacet
  facet normal 0 0 -1
    outer loop
      vertex 22.4887 25.3172 1.7875
      vertex 27.5113 24.6827 1.7875
      vertex 27.4517 24.3705 1.7875
    endloop
  endfacet
  facet normal 0 0 -1
    outer loop
      vertex 22.4887 25.3172 1.7875
      vertex 27.4517 24.3705 1.7875
      vertex 27.3535 24.0682 1.7875
    endloop
  endfacet
  facet normal 0 0 -1
    outer loop
      vertex 22.4887 25.3172 1.7875
      vertex 27.3535 24.0682 1.7875
      vertex 27.2182 23.7806 1.7875
    endloop
  endfacet
  facet normal 0 0 -1
    outer loop
      vertex 22.4887 25.3172 1.7875
      vertex 27.2182 23.7806 1.7875
      vertex 27.0478 23.5122 1.7875
    endloop
  endfacet
  facet normal 0 0 -1
    outer loop
      vertex 22.4887 25.3172 1.7875
      vertex 27.0478 23.5122 1.7875
      vertex 26.8452 23.2672 1.7875
    endloop
  endfacet
  facet normal 0 0 -1
    outer loop
      vertex 22.4887 25.3172 1.7875
      vertex 26.8452 23.2672 1.7875
      vertex 26.6135 23.0496 1.7875
    endloop
  endfacet
  facet normal 0 0 -1
    outer loop
      vertex 22.4887 25.3172 1.7875
      vertex 26.6135 23.0496 1.7875
      vertex 26.3563 22.8628 1.7875
    endloop
  endfacet
  facet normal 0 0 -1
    outer loop
      vertex 22.4887 25.3172 1.7875
      vertex 26.3563 22.8628 1.7875
      vertex 26.0778 22.7097 1.7875
    endloop
  endfacet
  facet normal 0 0 -1
    outer loop
      vertex 22.4887 25.3172 1.7875
      vertex 26.0778 22.7097 1.7875
      vertex 25.7822 22.5926 1.7875
    endloop
  endfacet
  facet normal 0 0 -1
    outer loop
      vertex 22.4887 25.3172 1.7875
      vertex 25.7822 22.5926 1.7875
      vertex 25.4743 22.5136 1.7875
    endloop
  endfacet
  facet normal 0 0 -1
    outer loop
      vertex 22.4887 25.3172 1.7875
      vertex 25.4743 22.5136 1.7875
      vertex 25.1589 22.4737 1.7875
    endloop
  endfacet
  facet normal 0 0 -1
    outer loop
      vertex 22.4887 25.3172 1.7875
      vertex 25.1589 22.4737 1.7875
      vertex 24.8411 22.4737 1.7875
    endloop
  endfacet
  facet normal 0 0 -1
    outer loop
      vertex 22.4887 25.3172 1.7875
      vertex 24.8411 22.4737 1.7875
      vertex 24.5257 22.5136 1.7875
    endloop
  endfacet
  facet normal 0 0 -1
    outer loop
      vertex 22.4887 25.3172 1.7875
      vertex 24.5257 22.5136 1.7875
      vertex 24.2178 22.5926 1.7875
    endloop
  endfacet
  facet normal 0 0 -1
    outer loop
      vertex 22.4887 25.3172 1.7875
      vertex 24.2178 22.5926 1.7875
      vertex 23.9222 22.7097 1.7875
    endloop
  endfacet
  facet normal 0 0 -1
    outer loop
      vertex 22.4887 25.3172 1.7875
      vertex 23.9222 22.7097 1.7875
      vertex 23.6437 22.8628 1.7875
    endloop
  endfacet
  facet normal 0 0 -1
    outer loop
      vertex 22.4887 25.3172 1.7875
      vertex 23.6437 22.8628 1.7875
      vertex 23.3865 23.0496 1.7875
    endloop
  endfacet
  facet normal 0 0 -1
    outer loop
      vertex 22.4887 25.3172 1.7875
      vertex 23.3865 23.0496 1.7875
      vertex 23.1548 23.2672 1.7875
    endloop
  endfacet
  facet normal 0 0 -1
    outer loop
      vertex 22.4887 25.3172 1.7875
      vertex 23.1548 23.2672 1.7875
      vertex 22.9522 23.5122 1.7875
    endloop
  endfacet
  facet normal 0 0 -1
    outer loop
      vertex 22.4887 25.3172 1.7875
      vertex 22.9522 23.5122 1.7875
      vertex 22.7818 23.7806 1.7875
    endloop
  endfacet
  facet normal 0 0 -1
    outer loop
      vertex 22.4887 25.3172 1.7875
      vertex 22.7818 23.7806 1.7875
      vertex 22.6465 24.0682 1.7875
    endloop
  endfacet
  facet normal 0 0 -1
    outer loop
      vertex 22.4887 25.3172 1.7875
      vertex 22.6465 24.0682 1.7875
      vertex 22.5483 24.3705 1.7875
    endloop
  endfacet
  facet normal 0 0 -1
    outer loop
      vertex 22.4887 25.3172 1.7875
      vertex 22.5483 24.3705 1.7875
      vertex 22.4887 24.6827 1.7875
    endloop
  endfacet
  facet normal 0 0 -1
    outer loop
      vertex 22.4887 25.3172 1.7875
      vertex 22.4887 24.6827 1.7875
      vertex 22.4688 25 1.7875
    endloop
  endfacet
endsolid OpenSCAD_Model
