solid OpenSCAD_Model
  facet normal -1 0 0
    outer loop
      vertex 0.75 24.25 0
      vertex 0.75 18.75 7.6
      vertex 0.75 24.25 49.25
    endloop
  endfacet
  facet normal -1 0 0
    outer loop
      vertex 0.75 17.9 0
      vertex 0.75 18.75 7.6
      vertex 0.75 24.25 0
    endloop
  endfacet
  facet normal -1 -0 0
    outer loop
      vertex 0.75 18.75 7.6
      vertex 0.75 17.9 0
      vertex 0.75 17.9 7.6
    endloop
  endfacet
  facet normal -1 -0 0
    outer loop
      vertex 0.75 24.25 49.25
      vertex 0.75 18.75 7.6
      vertex 0.75 18.75 49.25
    endloop
  endfacet
  facet normal -0 0 1
    outer loop
      vertex 0.75 24.25 49.25
      vertex 24.25 18.75 49.25
      vertex 24.25 24.25 49.25
    endloop
  endfacet
  facet normal 0 0 1
    outer loop
      vertex 24.25 18.75 49.25
      vertex 0.75 24.25 49.25
      vertex 0.75 18.75 49.25
    endloop
  endfacet
  facet normal 1 0 0
    outer loop
      vertex 24.25 18.75 7.6
      vertex 24.25 24.25 49.25
      vertex 24.25 18.75 49.25
    endloop
  endfacet
  facet normal 1 0 0
    outer loop
      vertex 24.25 24.25 49.25
      vertex 24.25 18.75 7.6
      vertex 24.25 24.25 0
    endloop
  endfacet
  facet normal 1 0 0
    outer loop
      vertex 24.25 17.9 0
      vertex 24.25 18.75 7.6
      vertex 24.25 17.9 7.6
    endloop
  endfacet
  facet normal 1 0 0
    outer loop
      vertex 24.25 18.75 7.6
      vertex 24.25 17.9 0
      vertex 24.25 24.25 0
    endloop
  endfacet
  facet normal 0 1 -0
    outer loop
      vertex 24.25 24.25 0
      vertex 0.75 24.25 49.25
      vertex 24.25 24.25 49.25
    endloop
  endfacet
  facet normal 0 1 0
    outer loop
      vertex 0.75 24.25 49.25
      vertex 24.25 24.25 0
      vertex 0.75 24.25 0
    endloop
  endfacet
  facet normal 0 0 -1
    outer loop
      vertex 25 0 0
      vertex 24.25 17.9 0
      vertex 25 17.9 0
    endloop
  endfacet
  facet normal 0 0 -1
    outer loop
      vertex 24.25 17.9 0
      vertex 0.75 17.9 0
      vertex 24.25 24.25 0
    endloop
  endfacet
  facet normal 0 0 -1
    outer loop
      vertex 25 0 0
      vertex 0.75 17.9 0
      vertex 24.25 17.9 0
    endloop
  endfacet
  facet normal 0 0 -1
    outer loop
      vertex 0 0 0
      vertex 0.75 17.9 0
      vertex 25 0 0
    endloop
  endfacet
  facet normal -0 0 -1
    outer loop
      vertex 0.75 17.9 0
      vertex 0 0 0
      vertex 0 17.9 0
    endloop
  endfacet
  facet normal -0 0 -1
    outer loop
      vertex 24.25 24.25 0
      vertex 0.75 17.9 0
      vertex 0.75 24.25 0
    endloop
  endfacet
  facet normal 0 -1 0
    outer loop
      vertex 0.75 18.75 7.6
      vertex 24.25 18.75 49.25
      vertex 0.75 18.75 49.25
    endloop
  endfacet
  facet normal 0 -1 -0
    outer loop
      vertex 24.25 18.75 49.25
      vertex 0.75 18.75 7.6
      vertex 24.25 18.75 7.6
    endloop
  endfacet
  facet normal -1 0 0
    outer loop
      vertex 0 0 0
      vertex 0 17.9 7.6
      vertex 0 17.9 0
    endloop
  endfacet
  facet normal -1 -0 0
    outer loop
      vertex 0 17.9 7.6
      vertex 0 0 0
      vertex 0 0 7.6
    endloop
  endfacet
  facet normal 0 0 1
    outer loop
      vertex 24.25 18.75 7.6
      vertex 0.75 18.75 7.6
      vertex 24.25 17.9 7.6
    endloop
  endfacet
  facet normal -0 0 1
    outer loop
      vertex 24.25 17.9 7.6
      vertex 25 0 7.6
      vertex 25 17.9 7.6
    endloop
  endfacet
  facet normal 0 0 1
    outer loop
      vertex 0.75 17.9 7.6
      vertex 24.25 17.9 7.6
      vertex 0.75 18.75 7.6
    endloop
  endfacet
  facet normal 0 0 1
    outer loop
      vertex 24.25 17.9 7.6
      vertex 0.75 17.9 7.6
      vertex 25 0 7.6
    endloop
  endfacet
  facet normal 0 0 1
    outer loop
      vertex 0 0 7.6
      vertex 0.75 17.9 7.6
      vertex 0 17.9 7.6
    endloop
  endfacet
  facet normal 0 0 1
    outer loop
      vertex 0.75 17.9 7.6
      vertex 0 0 7.6
      vertex 25 0 7.6
    endloop
  endfacet
  facet normal 1 -0 0
    outer loop
      vertex 25 0 7.6
      vertex 25 17.9 0
      vertex 25 17.9 7.6
    endloop
  endfacet
  facet normal 1 0 0
    outer loop
      vertex 25 17.9 0
      vertex 25 0 7.6
      vertex 25 0 0
    endloop
  endfacet
  facet normal 0 -1 0
    outer loop
      vertex 0 0 0
      vertex 25 0 7.6
      vertex 0 0 7.6
    endloop
  endfacet
  facet normal 0 -1 -0
    outer loop
      vertex 25 0 7.6
      vertex 0 0 0
      vertex 25 0 0
    endloop
  endfacet
  facet normal 0 1 -0
    outer loop
      vertex 0.75 17.9 0
      vertex 0 17.9 7.6
      vertex 0.75 17.9 7.6
    endloop
  endfacet
  facet normal 0 1 0
    outer loop
      vertex 0 17.9 7.6
      vertex 0.75 17.9 0
      vertex 0 17.9 0
    endloop
  endfacet
  facet normal 0 1 -0
    outer loop
      vertex 25 17.9 0
      vertex 24.25 17.9 7.6
      vertex 25 17.9 7.6
    endloop
  endfacet
  facet normal 0 1 0
    outer loop
      vertex 24.25 17.9 7.6
      vertex 25 17.9 0
      vertex 24.25 17.9 0
    endloop
  endfacet
endsolid OpenSCAD_Model
