solid OpenSCAD_Model
  facet normal 0 -1 0
    outer loop
      vertex 0.1 0 9.5
      vertex 0.1 0 8.5
      vertex 6 0 8.5
    endloop
  endfacet
  facet normal 0 -1 0
    outer loop
      vertex 5.1 0 12.5
      vertex 0.1 0 9.5
      vertex 6 0 9.8
    endloop
  endfacet
  facet normal 0 -1 0
    outer loop
      vertex 6 0 9.8
      vertex 0.1 0 9.5
      vertex 6 0 8.5
    endloop
  endfacet
  facet normal 0 -1 0
    outer loop
      vertex 1.1 0 12.5
      vertex 0.1 0 9.5
      vertex 5.1 0 12.5
    endloop
  endfacet
  facet normal 0 0 -1
    outer loop
      vertex 0.1 0 8.5
      vertex 0.1 7 8.5
      vertex 0.85 0.75 8.5
    endloop
  endfacet
  facet normal 0 0 -1
    outer loop
      vertex 0.1 0 8.5
      vertex 0.85 0.75 8.5
      vertex 6 0 8.5
    endloop
  endfacet
  facet normal 0 0 -1
    outer loop
      vertex 5.35 7 8.5
      vertex 6 0 8.5
      vertex 5.35 0.75 8.5
    endloop
  endfacet
  facet normal 0 0 -1
    outer loop
      vertex 0.85 0.75 8.5
      vertex 5.35 0.75 8.5
      vertex 6 0 8.5
    endloop
  endfacet
  facet normal 0 0 -1
    outer loop
      vertex 6 0 8.5
      vertex 5.35 7 8.5
      vertex 6 7 8.5
    endloop
  endfacet
  facet normal 0 0 -1
    outer loop
      vertex 0.85 0.75 8.5
      vertex 0.1 7 8.5
      vertex 0.85 7 8.5
    endloop
  endfacet
  facet normal -1 0 0
    outer loop
      vertex 0.1 0 8.5
      vertex 0.1 0 9.5
      vertex 0.1 7 8.5
    endloop
  endfacet
  facet normal -1 0 0
    outer loop
      vertex 0.1 7 8.5
      vertex 0.1 0 9.5
      vertex 0.1 7 9.5
    endloop
  endfacet
  facet normal -0.948683 0 0.316228
    outer loop
      vertex 0.1 0 9.5
      vertex 1.1 0 12.5
      vertex 0.1 7 9.5
    endloop
  endfacet
  facet normal -0.948683 0 0.316228
    outer loop
      vertex 0.1 7 9.5
      vertex 1.1 0 12.5
      vertex 1.1 7 12.5
    endloop
  endfacet
  facet normal 0 0 1
    outer loop
      vertex 1.1 7 12.5
      vertex 1.1 0 12.5
      vertex 5.1 0 12.5
    endloop
  endfacet
  facet normal 0 0 1
    outer loop
      vertex 5.1 7 12.5
      vertex 1.1 7 12.5
      vertex 5.1 0 12.5
    endloop
  endfacet
  facet normal 0.948683 0 0.316228
    outer loop
      vertex 5.1 7 12.5
      vertex 5.1 0 12.5
      vertex 6 0 9.8
    endloop
  endfacet
  facet normal 0.948683 0 0.316228
    outer loop
      vertex 6 7 9.8
      vertex 5.1 7 12.5
      vertex 6 0 9.8
    endloop
  endfacet
  facet normal 1 0 0
    outer loop
      vertex 6 7 8.5
      vertex 6 7 9.8
      vertex 6 0 9.8
    endloop
  endfacet
  facet normal 1 0 0
    outer loop
      vertex 6 0 8.5
      vertex 6 7 8.5
      vertex 6 0 9.8
    endloop
  endfacet
  facet normal 0 1 0
    outer loop
      vertex 0.85 7 9.49
      vertex 0.1 7 9.5
      vertex 1.85 7 11.74
    endloop
  endfacet
  facet normal 0 1 0
    outer loop
      vertex 4.35 7 11.74
      vertex 5.1 7 12.5
      vertex 6 7 9.8
    endloop
  endfacet
  facet normal 0 1 0
    outer loop
      vertex 5.35 7 9.49
      vertex 6 7 9.8
      vertex 6 7 8.5
    endloop
  endfacet
  facet normal 0 1 0
    outer loop
      vertex 4.35 7 11.74
      vertex 6 7 9.8
      vertex 5.35 7 9.49
    endloop
  endfacet
  facet normal 0 1 0
    outer loop
      vertex 1.85 7 11.74
      vertex 5.1 7 12.5
      vertex 4.35 7 11.74
    endloop
  endfacet
  facet normal 0 1 0
    outer loop
      vertex 1.1 7 12.5
      vertex 5.1 7 12.5
      vertex 1.85 7 11.74
    endloop
  endfacet
  facet normal 0 1 0
    outer loop
      vertex 1.1 7 12.5
      vertex 1.85 7 11.74
      vertex 0.1 7 9.5
    endloop
  endfacet
  facet normal 0 1 0
    outer loop
      vertex 0.85 7 8.5
      vertex 0.1 7 9.5
      vertex 0.85 7 9.49
    endloop
  endfacet
  facet normal 0 1 0
    outer loop
      vertex 0.1 7 9.5
      vertex 0.85 7 8.5
      vertex 0.1 7 8.5
    endloop
  endfacet
  facet normal 0 1 0
    outer loop
      vertex 5.35 7 9.49
      vertex 6 7 8.5
      vertex 5.35 7 8.5
    endloop
  endfacet
  facet normal -1 0 0
    outer loop
      vertex 5.35 7 9.49
      vertex 5.35 7 8.5
      vertex 5.35 0.75 9.49
    endloop
  endfacet
  facet normal -1 0 0
    outer loop
      vertex 5.35 0.75 9.49
      vertex 5.35 7 8.5
      vertex 5.35 0.75 8.5
    endloop
  endfacet
  facet normal 0 1 0
    outer loop
      vertex 1.85 0.75 11.74
      vertex 4.35 0.75 11.74
      vertex 0.85 0.75 9.49
    endloop
  endfacet
  facet normal 0 1 0
    outer loop
      vertex 0.85 0.75 9.49
      vertex 4.35 0.75 11.74
      vertex 5.35 0.75 9.49
    endloop
  endfacet
  facet normal 0 1 0
    outer loop
      vertex 0.85 0.75 9.49
      vertex 5.35 0.75 9.49
      vertex 5.35 0.75 8.5
    endloop
  endfacet
  facet normal 0 1 0
    outer loop
      vertex 0.85 0.75 9.49
      vertex 5.35 0.75 8.5
      vertex 0.85 0.75 8.5
    endloop
  endfacet
  facet normal 1 0 0
    outer loop
      vertex 0.85 7 8.5
      vertex 0.85 7 9.49
      vertex 0.85 0.75 9.49
    endloop
  endfacet
  facet normal 1 0 0
    outer loop
      vertex 0.85 0.75 8.5
      vertex 0.85 7 8.5
      vertex 0.85 0.75 9.49
    endloop
  endfacet
  facet normal 0.913812 0 -0.406138
    outer loop
      vertex 0.85 7 9.49
      vertex 1.85 7 11.74
      vertex 1.85 0.75 11.74
    endloop
  endfacet
  facet normal 0.913812 0 -0.406138
    outer loop
      vertex 0.85 0.75 9.49
      vertex 0.85 7 9.49
      vertex 1.85 0.75 11.74
    endloop
  endfacet
  facet normal 0 0 -1
    outer loop
      vertex 4.35 7 11.74
      vertex 4.35 0.75 11.74
      vertex 1.85 7 11.74
    endloop
  endfacet
  facet normal 0 0 -1
    outer loop
      vertex 1.85 7 11.74
      vertex 4.35 0.75 11.74
      vertex 1.85 0.75 11.74
    endloop
  endfacet
  facet normal -0.913812 0 -0.406138
    outer loop
      vertex 5.35 7 9.49
      vertex 5.35 0.75 9.49
      vertex 4.35 7 11.74
    endloop
  endfacet
  facet normal -0.913812 0 -0.406138
    outer loop
      vertex 4.35 7 11.74
      vertex 5.35 0.75 9.49
      vertex 4.35 0.75 11.74
    endloop
  endfacet
  facet normal -1 0 0
    outer loop
      vertex 0.1 45.75 8.5
      vertex 0.1 45.75 9.5
      vertex 0.1 50 8.5
    endloop
  endfacet
  facet normal -1 0 0
    outer loop
      vertex 0.1 50 8.5
      vertex 0.1 45.75 9.5
      vertex 0.1 50 9.5
    endloop
  endfacet
  facet normal 0 -1 0
    outer loop
      vertex 1.1 45.75 12.5
      vertex 0.85 45.75 9.49
      vertex 1.85 45.75 11.74
    endloop
  endfacet
  facet normal 0 -1 0
    outer loop
      vertex 5.35 45.75 9.49
      vertex 6 45.75 8.5
      vertex 4.35 45.75 11.74
    endloop
  endfacet
  facet normal 0 -1 0
    outer loop
      vertex 4.35 45.75 11.74
      vertex 5.1 45.75 12.5
      vertex 1.85 45.75 11.74
    endloop
  endfacet
  facet normal 0 -1 0
    outer loop
      vertex 0.85 45.75 8.5
      vertex 0.85 45.75 9.49
      vertex 0.1 45.75 9.5
    endloop
  endfacet
  facet normal 0 -1 0
    outer loop
      vertex 5.35 45.75 8.5
      vertex 6 45.75 8.5
      vertex 5.35 45.75 9.49
    endloop
  endfacet
  facet normal 0 -1 0
    outer loop
      vertex 6 45.75 8.5
      vertex 6 45.75 9.8
      vertex 4.35 45.75 11.74
    endloop
  endfacet
  facet normal 0 -1 0
    outer loop
      vertex 6 45.75 9.8
      vertex 5.1 45.75 12.5
      vertex 4.35 45.75 11.74
    endloop
  endfacet
  facet normal 0 -1 0
    outer loop
      vertex 5.1 45.75 12.5
      vertex 1.1 45.75 12.5
      vertex 1.85 45.75 11.74
    endloop
  endfacet
  facet normal 0 -1 0
    outer loop
      vertex 1.1 45.75 12.5
      vertex 0.1 45.75 9.5
      vertex 0.85 45.75 9.49
    endloop
  endfacet
  facet normal 0 -1 0
    outer loop
      vertex 0.1 45.75 9.5
      vertex 0.1 45.75 8.5
      vertex 0.85 45.75 8.5
    endloop
  endfacet
  facet normal 0 0 -1
    outer loop
      vertex 0.1 45.75 8.5
      vertex 0.1 50 8.5
      vertex 0.85 45.75 8.5
    endloop
  endfacet
  facet normal 0 0 -1
    outer loop
      vertex 0.85 49.25 8.5
      vertex 0.1 50 8.5
      vertex 6 50 8.5
    endloop
  endfacet
  facet normal 0 0 -1
    outer loop
      vertex 5.35 45.75 8.5
      vertex 6 50 8.5
      vertex 6 45.75 8.5
    endloop
  endfacet
  facet normal 0 0 -1
    outer loop
      vertex 5.35 49.25 8.5
      vertex 6 50 8.5
      vertex 5.35 45.75 8.5
    endloop
  endfacet
  facet normal 0 0 -1
    outer loop
      vertex 0.85 45.75 8.5
      vertex 0.1 50 8.5
      vertex 0.85 49.25 8.5
    endloop
  endfacet
  facet normal 0 0 -1
    outer loop
      vertex 0.85 49.25 8.5
      vertex 6 50 8.5
      vertex 5.35 49.25 8.5
    endloop
  endfacet
  facet normal 0 1 0
    outer loop
      vertex 0.1 50 8.5
      vertex 0.1 50 9.5
      vertex 6 50 8.5
    endloop
  endfacet
  facet normal 0 1 0
    outer loop
      vertex 6 50 8.5
      vertex 0.1 50 9.5
      vertex 1.1 50 12.5
    endloop
  endfacet
  facet normal 0 1 0
    outer loop
      vertex 6 50 8.5
      vertex 1.1 50 12.5
      vertex 5.1 50 12.5
    endloop
  endfacet
  facet normal 0 1 0
    outer loop
      vertex 6 50 8.5
      vertex 5.1 50 12.5
      vertex 6 50 9.8
    endloop
  endfacet
  facet normal -0.948683 0 0.316228
    outer loop
      vertex 0.1 45.75 9.5
      vertex 1.1 45.75 12.5
      vertex 0.1 50 9.5
    endloop
  endfacet
  facet normal -0.948683 0 0.316228
    outer loop
      vertex 0.1 50 9.5
      vertex 1.1 45.75 12.5
      vertex 1.1 50 12.5
    endloop
  endfacet
  facet normal 1 0 0
    outer loop
      vertex 0.85 49.25 8.5
      vertex 0.85 49.25 9.49
      vertex 0.85 45.75 9.49
    endloop
  endfacet
  facet normal 1 0 0
    outer loop
      vertex 0.85 45.75 8.5
      vertex 0.85 49.25 8.5
      vertex 0.85 45.75 9.49
    endloop
  endfacet
  facet normal 0 0 1
    outer loop
      vertex 1.1 50 12.5
      vertex 1.1 45.75 12.5
      vertex 5.1 45.75 12.5
    endloop
  endfacet
  facet normal 0 0 1
    outer loop
      vertex 5.1 50 12.5
      vertex 1.1 50 12.5
      vertex 5.1 45.75 12.5
    endloop
  endfacet
  facet normal 0.948683 0 0.316228
    outer loop
      vertex 5.1 50 12.5
      vertex 5.1 45.75 12.5
      vertex 6 45.75 9.8
    endloop
  endfacet
  facet normal 0.948683 0 0.316228
    outer loop
      vertex 6 50 9.8
      vertex 5.1 50 12.5
      vertex 6 45.75 9.8
    endloop
  endfacet
  facet normal 1 0 0
    outer loop
      vertex 6 50 8.5
      vertex 6 50 9.8
      vertex 6 45.75 9.8
    endloop
  endfacet
  facet normal 1 0 0
    outer loop
      vertex 6 45.75 8.5
      vertex 6 50 8.5
      vertex 6 45.75 9.8
    endloop
  endfacet
  facet normal -1 0 0
    outer loop
      vertex 5.35 49.25 9.49
      vertex 5.35 49.25 8.5
      vertex 5.35 45.75 9.49
    endloop
  endfacet
  facet normal -1 0 0
    outer loop
      vertex 5.35 45.75 9.49
      vertex 5.35 49.25 8.5
      vertex 5.35 45.75 8.5
    endloop
  endfacet
  facet normal -0.913812 0 -0.406138
    outer loop
      vertex 5.35 49.25 9.49
      vertex 5.35 45.75 9.49
      vertex 4.35 49.25 11.74
    endloop
  endfacet
  facet normal -0.913812 0 -0.406138
    outer loop
      vertex 4.35 49.25 11.74
      vertex 5.35 45.75 9.49
      vertex 4.35 45.75 11.74
    endloop
  endfacet
  facet normal 0 0 -1
    outer loop
      vertex 4.35 49.25 11.74
      vertex 4.35 45.75 11.74
      vertex 1.85 49.25 11.74
    endloop
  endfacet
  facet normal 0 0 -1
    outer loop
      vertex 1.85 49.25 11.74
      vertex 4.35 45.75 11.74
      vertex 1.85 45.75 11.74
    endloop
  endfacet
  facet normal 0.913812 0 -0.406138
    outer loop
      vertex 0.85 49.25 9.49
      vertex 1.85 49.25 11.74
      vertex 1.85 45.75 11.74
    endloop
  endfacet
  facet normal 0.913812 0 -0.406138
    outer loop
      vertex 0.85 45.75 9.49
      vertex 0.85 49.25 9.49
      vertex 1.85 45.75 11.74
    endloop
  endfacet
  facet normal 0 -1 0
    outer loop
      vertex 5.35 49.25 8.5
      vertex 5.35 49.25 9.49
      vertex 4.35 49.25 11.74
    endloop
  endfacet
  facet normal 0 -1 0
    outer loop
      vertex 0.85 49.25 9.49
      vertex 5.35 49.25 8.5
      vertex 1.85 49.25 11.74
    endloop
  endfacet
  facet normal 0 -1 0
    outer loop
      vertex 1.85 49.25 11.74
      vertex 5.35 49.25 8.5
      vertex 4.35 49.25 11.74
    endloop
  endfacet
  facet normal 0 -1 0
    outer loop
      vertex 0.85 49.25 8.5
      vertex 5.35 49.25 8.5
      vertex 0.85 49.25 9.49
    endloop
  endfacet
  facet normal 0 -1 0
    outer loop
      vertex 44 0 9.8
      vertex 44 0 8.5
      vertex 49.9 0 8.5
    endloop
  endfacet
  facet normal 0 -1 0
    outer loop
      vertex 48.9 0 12.5
      vertex 44 0 9.8
      vertex 49.9 0 9.5
    endloop
  endfacet
  facet normal 0 -1 0
    outer loop
      vertex 49.9 0 9.5
      vertex 44 0 9.8
      vertex 49.9 0 8.5
    endloop
  endfacet
  facet normal 0 -1 0
    outer loop
      vertex 44.9 0 12.5
      vertex 44 0 9.8
      vertex 48.9 0 12.5
    endloop
  endfacet
  facet normal 0 0 -1
    outer loop
      vertex 44 0 8.5
      vertex 44 10 8.5
      vertex 44.65 0.75 8.5
    endloop
  endfacet
  facet normal 0 0 -1
    outer loop
      vertex 44 0 8.5
      vertex 44.65 0.75 8.5
      vertex 49.9 0 8.5
    endloop
  endfacet
  facet normal 0 0 -1
    outer loop
      vertex 49.15 10 8.5
      vertex 49.9 0 8.5
      vertex 49.15 0.75 8.5
    endloop
  endfacet
  facet normal 0 0 -1
    outer loop
      vertex 44.65 0.75 8.5
      vertex 49.15 0.75 8.5
      vertex 49.9 0 8.5
    endloop
  endfacet
  facet normal 0 0 -1
    outer loop
      vertex 49.9 0 8.5
      vertex 49.15 10 8.5
      vertex 49.9 10 8.5
    endloop
  endfacet
  facet normal 0 0 -1
    outer loop
      vertex 44.65 0.75 8.5
      vertex 44 10 8.5
      vertex 44.65 10 8.5
    endloop
  endfacet
  facet normal -1 0 0
    outer loop
      vertex 44 10 9.8
      vertex 44 10 8.5
      vertex 44 0 9.8
    endloop
  endfacet
  facet normal -1 0 0
    outer loop
      vertex 44 0 9.8
      vertex 44 10 8.5
      vertex 44 0 8.5
    endloop
  endfacet
  facet normal -0.948683 0 0.316228
    outer loop
      vertex 44 0 9.8
      vertex 44.9 0 12.5
      vertex 44 10 9.8
    endloop
  endfacet
  facet normal -0.948683 0 0.316228
    outer loop
      vertex 44 10 9.8
      vertex 44.9 0 12.5
      vertex 44.9 10 12.5
    endloop
  endfacet
  facet normal 0 0 1
    outer loop
      vertex 44.9 10 12.5
      vertex 44.9 0 12.5
      vertex 48.9 0 12.5
    endloop
  endfacet
  facet normal 0 0 1
    outer loop
      vertex 48.9 10 12.5
      vertex 44.9 10 12.5
      vertex 48.9 0 12.5
    endloop
  endfacet
  facet normal 0.948683 0 0.316228
    outer loop
      vertex 48.9 10 12.5
      vertex 48.9 0 12.5
      vertex 49.9 0 9.5
    endloop
  endfacet
  facet normal 0.948683 0 0.316228
    outer loop
      vertex 49.9 10 9.5
      vertex 48.9 10 12.5
      vertex 49.9 0 9.5
    endloop
  endfacet
  facet normal 1 0 0
    outer loop
      vertex 49.9 0 9.5
      vertex 49.9 0 8.5
      vertex 49.9 10 8.5
    endloop
  endfacet
  facet normal 1 0 0
    outer loop
      vertex 49.9 10 9.5
      vertex 49.9 0 9.5
      vertex 49.9 10 8.5
    endloop
  endfacet
  facet normal 0 1 0
    outer loop
      vertex 44.65 10 9.49
      vertex 44 10 9.8
      vertex 45.65 10 11.74
    endloop
  endfacet
  facet normal 0 1 0
    outer loop
      vertex 48.15 10 11.74
      vertex 48.9 10 12.5
      vertex 49.9 10 9.5
    endloop
  endfacet
  facet normal 0 1 0
    outer loop
      vertex 49.15 10 9.49
      vertex 49.9 10 9.5
      vertex 49.9 10 8.5
    endloop
  endfacet
  facet normal 0 1 0
    outer loop
      vertex 48.15 10 11.74
      vertex 49.9 10 9.5
      vertex 49.15 10 9.49
    endloop
  endfacet
  facet normal 0 1 0
    outer loop
      vertex 45.65 10 11.74
      vertex 48.9 10 12.5
      vertex 48.15 10 11.74
    endloop
  endfacet
  facet normal 0 1 0
    outer loop
      vertex 44.9 10 12.5
      vertex 48.9 10 12.5
      vertex 45.65 10 11.74
    endloop
  endfacet
  facet normal 0 1 0
    outer loop
      vertex 44.9 10 12.5
      vertex 45.65 10 11.74
      vertex 44 10 9.8
    endloop
  endfacet
  facet normal 0 1 0
    outer loop
      vertex 44 10 9.8
      vertex 44.65 10 9.49
      vertex 44.65 10 8.5
    endloop
  endfacet
  facet normal 0 1 0
    outer loop
      vertex 44 10 9.8
      vertex 44.65 10 8.5
      vertex 44 10 8.5
    endloop
  endfacet
  facet normal 0 1 0
    outer loop
      vertex 49.15 10 9.49
      vertex 49.9 10 8.5
      vertex 49.15 10 8.5
    endloop
  endfacet
  facet normal -1 0 0
    outer loop
      vertex 49.15 10 9.49
      vertex 49.15 10 8.5
      vertex 49.15 0.75 9.49
    endloop
  endfacet
  facet normal -1 0 0
    outer loop
      vertex 49.15 0.75 9.49
      vertex 49.15 10 8.5
      vertex 49.15 0.75 8.5
    endloop
  endfacet
  facet normal 0 1 0
    outer loop
      vertex 45.65 0.75 11.74
      vertex 48.15 0.75 11.74
      vertex 44.65 0.75 9.49
    endloop
  endfacet
  facet normal 0 1 0
    outer loop
      vertex 44.65 0.75 9.49
      vertex 48.15 0.75 11.74
      vertex 49.15 0.75 9.49
    endloop
  endfacet
  facet normal 0 1 0
    outer loop
      vertex 44.65 0.75 9.49
      vertex 49.15 0.75 9.49
      vertex 49.15 0.75 8.5
    endloop
  endfacet
  facet normal 0 1 0
    outer loop
      vertex 44.65 0.75 9.49
      vertex 49.15 0.75 8.5
      vertex 44.65 0.75 8.5
    endloop
  endfacet
  facet normal 1 0 0
    outer loop
      vertex 44.65 10 8.5
      vertex 44.65 10 9.49
      vertex 44.65 0.75 9.49
    endloop
  endfacet
  facet normal 1 0 0
    outer loop
      vertex 44.65 0.75 8.5
      vertex 44.65 10 8.5
      vertex 44.65 0.75 9.49
    endloop
  endfacet
  facet normal 0.913812 0 -0.406138
    outer loop
      vertex 44.65 10 9.49
      vertex 45.65 10 11.74
      vertex 45.65 0.75 11.74
    endloop
  endfacet
  facet normal 0.913812 0 -0.406138
    outer loop
      vertex 44.65 0.75 9.49
      vertex 44.65 10 9.49
      vertex 45.65 0.75 11.74
    endloop
  endfacet
  facet normal 0 0 -1
    outer loop
      vertex 48.15 10 11.74
      vertex 48.15 0.75 11.74
      vertex 45.65 10 11.74
    endloop
  endfacet
  facet normal 0 0 -1
    outer loop
      vertex 45.65 10 11.74
      vertex 48.15 0.75 11.74
      vertex 45.65 0.75 11.74
    endloop
  endfacet
  facet normal -0.913812 0 -0.406138
    outer loop
      vertex 49.15 10 9.49
      vertex 49.15 0.75 9.49
      vertex 48.15 10 11.74
    endloop
  endfacet
  facet normal -0.913812 0 -0.406138
    outer loop
      vertex 48.15 10 11.74
      vertex 49.15 0.75 9.49
      vertex 48.15 0.75 11.74
    endloop
  endfacet
  facet normal -1 0 0
    outer loop
      vertex 44 50 9.8
      vertex 44 50 8.5
      vertex 44 41.75 9.8
    endloop
  endfacet
  facet normal -1 0 0
    outer loop
      vertex 44 41.75 9.8
      vertex 44 50 8.5
      vertex 44 41.75 8.5
    endloop
  endfacet
  facet normal 0 -1 0
    outer loop
      vertex 44.9 41.75 12.5
      vertex 44.65 41.75 9.49
      vertex 45.65 41.75 11.74
    endloop
  endfacet
  facet normal 0 -1 0
    outer loop
      vertex 49.15 41.75 9.49
      vertex 49.9 41.75 8.5
      vertex 48.15 41.75 11.74
    endloop
  endfacet
  facet normal 0 -1 0
    outer loop
      vertex 48.15 41.75 11.74
      vertex 48.9 41.75 12.5
      vertex 45.65 41.75 11.74
    endloop
  endfacet
  facet normal 0 -1 0
    outer loop
      vertex 44.65 41.75 8.5
      vertex 44.65 41.75 9.49
      vertex 44 41.75 9.8
    endloop
  endfacet
  facet normal 0 -1 0
    outer loop
      vertex 49.15 41.75 8.5
      vertex 49.9 41.75 8.5
      vertex 49.15 41.75 9.49
    endloop
  endfacet
  facet normal 0 -1 0
    outer loop
      vertex 49.9 41.75 8.5
      vertex 49.9 41.75 9.5
      vertex 48.15 41.75 11.74
    endloop
  endfacet
  facet normal 0 -1 0
    outer loop
      vertex 49.9 41.75 9.5
      vertex 48.9 41.75 12.5
      vertex 48.15 41.75 11.74
    endloop
  endfacet
  facet normal 0 -1 0
    outer loop
      vertex 48.9 41.75 12.5
      vertex 44.9 41.75 12.5
      vertex 45.65 41.75 11.74
    endloop
  endfacet
  facet normal 0 -1 0
    outer loop
      vertex 44.9 41.75 12.5
      vertex 44 41.75 9.8
      vertex 44.65 41.75 9.49
    endloop
  endfacet
  facet normal 0 -1 0
    outer loop
      vertex 44 41.75 9.8
      vertex 44 41.75 8.5
      vertex 44.65 41.75 8.5
    endloop
  endfacet
  facet normal 0 0 -1
    outer loop
      vertex 44 41.75 8.5
      vertex 44 50 8.5
      vertex 44.65 41.75 8.5
    endloop
  endfacet
  facet normal 0 0 -1
    outer loop
      vertex 49.15 49.25 8.5
      vertex 44 50 8.5
      vertex 49.9 50 8.5
    endloop
  endfacet
  facet normal 0 0 -1
    outer loop
      vertex 49.15 41.75 8.5
      vertex 49.9 50 8.5
      vertex 49.9 41.75 8.5
    endloop
  endfacet
  facet normal 0 0 -1
    outer loop
      vertex 44.65 49.25 8.5
      vertex 44 50 8.5
      vertex 49.15 49.25 8.5
    endloop
  endfacet
  facet normal 0 0 -1
    outer loop
      vertex 44.65 41.75 8.5
      vertex 44 50 8.5
      vertex 44.65 49.25 8.5
    endloop
  endfacet
  facet normal 0 0 -1
    outer loop
      vertex 49.15 49.25 8.5
      vertex 49.9 50 8.5
      vertex 49.15 41.75 8.5
    endloop
  endfacet
  facet normal -0.948683 0 0.316228
    outer loop
      vertex 44 41.75 9.8
      vertex 44.9 41.75 12.5
      vertex 44 50 9.8
    endloop
  endfacet
  facet normal -0.948683 0 0.316228
    outer loop
      vertex 44 50 9.8
      vertex 44.9 41.75 12.5
      vertex 44.9 50 12.5
    endloop
  endfacet
  facet normal 0 1 0
    outer loop
      vertex 44 50 8.5
      vertex 44 50 9.8
      vertex 49.9 50 8.5
    endloop
  endfacet
  facet normal 0 1 0
    outer loop
      vertex 49.9 50 8.5
      vertex 44 50 9.8
      vertex 44.9 50 12.5
    endloop
  endfacet
  facet normal 0 1 0
    outer loop
      vertex 49.9 50 8.5
      vertex 44.9 50 12.5
      vertex 48.9 50 12.5
    endloop
  endfacet
  facet normal 0 1 0
    outer loop
      vertex 49.9 50 8.5
      vertex 48.9 50 12.5
      vertex 49.9 50 9.5
    endloop
  endfacet
  facet normal 1 0 0
    outer loop
      vertex 44.65 49.25 8.5
      vertex 44.65 49.25 9.49
      vertex 44.65 41.75 9.49
    endloop
  endfacet
  facet normal 1 0 0
    outer loop
      vertex 44.65 41.75 8.5
      vertex 44.65 49.25 8.5
      vertex 44.65 41.75 9.49
    endloop
  endfacet
  facet normal 0 0 1
    outer loop
      vertex 44.9 50 12.5
      vertex 44.9 41.75 12.5
      vertex 48.9 41.75 12.5
    endloop
  endfacet
  facet normal 0 0 1
    outer loop
      vertex 48.9 50 12.5
      vertex 44.9 50 12.5
      vertex 48.9 41.75 12.5
    endloop
  endfacet
  facet normal 0.948683 0 0.316228
    outer loop
      vertex 48.9 50 12.5
      vertex 48.9 41.75 12.5
      vertex 49.9 41.75 9.5
    endloop
  endfacet
  facet normal 0.948683 0 0.316228
    outer loop
      vertex 49.9 50 9.5
      vertex 48.9 50 12.5
      vertex 49.9 41.75 9.5
    endloop
  endfacet
  facet normal 1 0 0
    outer loop
      vertex 49.9 41.75 9.5
      vertex 49.9 41.75 8.5
      vertex 49.9 50 8.5
    endloop
  endfacet
  facet normal 1 0 0
    outer loop
      vertex 49.9 50 9.5
      vertex 49.9 41.75 9.5
      vertex 49.9 50 8.5
    endloop
  endfacet
  facet normal -1 0 0
    outer loop
      vertex 49.15 49.25 9.49
      vertex 49.15 49.25 8.5
      vertex 49.15 41.75 9.49
    endloop
  endfacet
  facet normal -1 0 0
    outer loop
      vertex 49.15 41.75 9.49
      vertex 49.15 49.25 8.5
      vertex 49.15 41.75 8.5
    endloop
  endfacet
  facet normal -0.913812 0 -0.406138
    outer loop
      vertex 49.15 49.25 9.49
      vertex 49.15 41.75 9.49
      vertex 48.15 49.25 11.74
    endloop
  endfacet
  facet normal -0.913812 0 -0.406138
    outer loop
      vertex 48.15 49.25 11.74
      vertex 49.15 41.75 9.49
      vertex 48.15 41.75 11.74
    endloop
  endfacet
  facet normal 0 0 -1
    outer loop
      vertex 48.15 49.25 11.74
      vertex 48.15 41.75 11.74
      vertex 45.65 49.25 11.74
    endloop
  endfacet
  facet normal 0 0 -1
    outer loop
      vertex 45.65 49.25 11.74
      vertex 48.15 41.75 11.74
      vertex 45.65 41.75 11.74
    endloop
  endfacet
  facet normal 0.913812 0 -0.406138
    outer loop
      vertex 44.65 49.25 9.49
      vertex 45.65 49.25 11.74
      vertex 45.65 41.75 11.74
    endloop
  endfacet
  facet normal 0.913812 0 -0.406138
    outer loop
      vertex 44.65 41.75 9.49
      vertex 44.65 49.25 9.49
      vertex 45.65 41.75 11.74
    endloop
  endfacet
  facet normal 0 -1 0
    outer loop
      vertex 49.15 49.25 8.5
      vertex 49.15 49.25 9.49
      vertex 48.15 49.25 11.74
    endloop
  endfacet
  facet normal 0 -1 0
    outer loop
      vertex 44.65 49.25 9.49
      vertex 49.15 49.25 8.5
      vertex 45.65 49.25 11.74
    endloop
  endfacet
  facet normal 0 -1 0
    outer loop
      vertex 45.65 49.25 11.74
      vertex 49.15 49.25 8.5
      vertex 48.15 49.25 11.74
    endloop
  endfacet
  facet normal 0 -1 0
    outer loop
      vertex 44.65 49.25 8.5
      vertex 49.15 49.25 8.5
      vertex 44.65 49.25 9.49
    endloop
  endfacet
  facet normal -1 0 0
    outer loop
      vertex 5.35 0.05 3.01
      vertex 5.35 0.05 7.7
      vertex 5.35 11 3.01
    endloop
  endfacet
  facet normal -1 0 0
    outer loop
      vertex 5.35 11 3.01
      vertex 5.35 0.05 7.7
      vertex 5.35 11 7.7
    endloop
  endfacet
  facet normal 0 -1 0
    outer loop
      vertex 6 0.05 3.01
      vertex 6 0.05 7.7
      vertex 5.35 0.05 7.7
    endloop
  endfacet
  facet normal 0 -1 0
    outer loop
      vertex 5.35 0.05 3.01
      vertex 6 0.05 3.01
      vertex 5.35 0.05 7.7
    endloop
  endfacet
  facet normal 0 0 -1
    outer loop
      vertex 5.35 0.05 3.01
      vertex 5.35 11 3.01
      vertex 6 0.05 3.01
    endloop
  endfacet
  facet normal 0 0 -1
    outer loop
      vertex 6 0.05 3.01
      vertex 5.35 11 3.01
      vertex 6 11 3.01
    endloop
  endfacet
  facet normal 0 1 0
    outer loop
      vertex 6 11 7.7
      vertex 6 11 3.01
      vertex 5.35 11 7.7
    endloop
  endfacet
  facet normal 0 1 0
    outer loop
      vertex 5.35 11 7.7
      vertex 6 11 3.01
      vertex 5.35 11 3.01
    endloop
  endfacet
  facet normal 0 0 1
    outer loop
      vertex 6 0.05 7.7
      vertex 6 11 7.7
      vertex 5.35 11 7.7
    endloop
  endfacet
  facet normal 0 0 1
    outer loop
      vertex 5.35 0.05 7.7
      vertex 6 0.05 7.7
      vertex 5.35 11 7.7
    endloop
  endfacet
  facet normal 1 0 0
    outer loop
      vertex 6 11 3.01
      vertex 6 11 7.7
      vertex 6 0.05 7.7
    endloop
  endfacet
  facet normal 1 0 0
    outer loop
      vertex 6 0.05 3.01
      vertex 6 11 3.01
      vertex 6 0.05 7.7
    endloop
  endfacet
  facet normal 0 -1 0
    outer loop
      vertex 44.65 0.05 3.01
      vertex 44.65 0.05 7.7
      vertex 44 0.05 7.7
    endloop
  endfacet
  facet normal 0 -1 0
    outer loop
      vertex 44 0.05 3.01
      vertex 44.65 0.05 3.01
      vertex 44 0.05 7.7
    endloop
  endfacet
  facet normal 0 0 -1
    outer loop
      vertex 44 0.05 3.01
      vertex 44 5 3.01
      vertex 44.65 0.05 3.01
    endloop
  endfacet
  facet normal 0 0 -1
    outer loop
      vertex 44.65 0.05 3.01
      vertex 44 5 3.01
      vertex 44.65 5 3.01
    endloop
  endfacet
  facet normal -1 0 0
    outer loop
      vertex 44 5 7.7
      vertex 44 5 3.01
      vertex 44 0.05 7.7
    endloop
  endfacet
  facet normal -1 0 0
    outer loop
      vertex 44 0.05 7.7
      vertex 44 5 3.01
      vertex 44 0.05 3.01
    endloop
  endfacet
  facet normal 1 0 0
    outer loop
      vertex 44.65 0.05 7.7
      vertex 44.65 0.05 3.01
      vertex 44.65 5 3.01
    endloop
  endfacet
  facet normal 1 0 0
    outer loop
      vertex 44.65 5 7.7
      vertex 44.65 0.05 7.7
      vertex 44.65 5 3.01
    endloop
  endfacet
  facet normal 0 0 1
    outer loop
      vertex 44.65 0.05 7.7
      vertex 44.65 5 7.7
      vertex 44 5 7.7
    endloop
  endfacet
  facet normal 0 0 1
    outer loop
      vertex 44 0.05 7.7
      vertex 44.65 0.05 7.7
      vertex 44 5 7.7
    endloop
  endfacet
  facet normal 0 1 0
    outer loop
      vertex 44.65 5 7.7
      vertex 44.65 5 3.01
      vertex 44 5 7.7
    endloop
  endfacet
  facet normal 0 1 0
    outer loop
      vertex 44 5 7.7
      vertex 44.65 5 3.01
      vertex 44 5 3.01
    endloop
  endfacet
  facet normal -1 0 0
    outer loop
      vertex 5.35 40.75 3.01
      vertex 5.35 40.75 7.7
      vertex 5.35 49.95 3.01
    endloop
  endfacet
  facet normal -1 0 0
    outer loop
      vertex 5.35 49.95 3.01
      vertex 5.35 40.75 7.7
      vertex 5.35 49.95 7.7
    endloop
  endfacet
  facet normal 0 -1 0
    outer loop
      vertex 6 40.75 3.01
      vertex 6 40.75 7.7
      vertex 5.35 40.75 7.7
    endloop
  endfacet
  facet normal 0 -1 0
    outer loop
      vertex 5.35 40.75 3.01
      vertex 6 40.75 3.01
      vertex 5.35 40.75 7.7
    endloop
  endfacet
  facet normal 0 0 -1
    outer loop
      vertex 5.35 40.75 3.01
      vertex 5.35 49.95 3.01
      vertex 6 40.75 3.01
    endloop
  endfacet
  facet normal 0 0 -1
    outer loop
      vertex 6 40.75 3.01
      vertex 5.35 49.95 3.01
      vertex 6 49.95 3.01
    endloop
  endfacet
  facet normal 0 1 0
    outer loop
      vertex 6 49.95 7.7
      vertex 6 49.95 3.01
      vertex 5.35 49.95 7.7
    endloop
  endfacet
  facet normal 0 1 0
    outer loop
      vertex 5.35 49.95 7.7
      vertex 6 49.95 3.01
      vertex 5.35 49.95 3.01
    endloop
  endfacet
  facet normal 0 0 1
    outer loop
      vertex 6 40.75 7.7
      vertex 6 49.95 7.7
      vertex 5.35 49.95 7.7
    endloop
  endfacet
  facet normal 0 0 1
    outer loop
      vertex 5.35 40.75 7.7
      vertex 6 40.75 7.7
      vertex 5.35 49.95 7.7
    endloop
  endfacet
  facet normal 1 0 0
    outer loop
      vertex 6 49.95 3.01
      vertex 6 49.95 7.7
      vertex 6 40.75 7.7
    endloop
  endfacet
  facet normal 1 0 0
    outer loop
      vertex 6 40.75 3.01
      vertex 6 49.95 3.01
      vertex 6 40.75 7.7
    endloop
  endfacet
  facet normal 0 -1 0
    outer loop
      vertex 44.65 44.75 3.01
      vertex 44.65 44.75 7.7
      vertex 44 44.75 7.7
    endloop
  endfacet
  facet normal 0 -1 0
    outer loop
      vertex 44 44.75 3.01
      vertex 44.65 44.75 3.01
      vertex 44 44.75 7.7
    endloop
  endfacet
  facet normal 0 0 -1
    outer loop
      vertex 44 44.75 3.01
      vertex 44 49.95 3.01
      vertex 44.65 44.75 3.01
    endloop
  endfacet
  facet normal 0 0 -1
    outer loop
      vertex 44.65 44.75 3.01
      vertex 44 49.95 3.01
      vertex 44.65 49.95 3.01
    endloop
  endfacet
  facet normal -1 0 0
    outer loop
      vertex 44 49.95 7.7
      vertex 44 49.95 3.01
      vertex 44 44.75 7.7
    endloop
  endfacet
  facet normal -1 0 0
    outer loop
      vertex 44 44.75 7.7
      vertex 44 49.95 3.01
      vertex 44 44.75 3.01
    endloop
  endfacet
  facet normal 1 0 0
    outer loop
      vertex 44.65 44.75 7.7
      vertex 44.65 44.75 3.01
      vertex 44.65 49.95 3.01
    endloop
  endfacet
  facet normal 1 0 0
    outer loop
      vertex 44.65 49.95 7.7
      vertex 44.65 44.75 7.7
      vertex 44.65 49.95 3.01
    endloop
  endfacet
  facet normal 0 0 1
    outer loop
      vertex 44.65 44.75 7.7
      vertex 44.65 49.95 7.7
      vertex 44 49.95 7.7
    endloop
  endfacet
  facet normal 0 0 1
    outer loop
      vertex 44 44.75 7.7
      vertex 44.65 44.75 7.7
      vertex 44 49.95 7.7
    endloop
  endfacet
  facet normal 0 1 0
    outer loop
      vertex 44.65 49.95 7.7
      vertex 44.65 49.95 3.01
      vertex 44 49.95 7.7
    endloop
  endfacet
  facet normal 0 1 0
    outer loop
      vertex 44 49.95 7.7
      vertex 44.65 49.95 3.01
      vertex 44 49.95 3.01
    endloop
  endfacet
  facet normal -1 0 0
    outer loop
      vertex 5.35 11.75 3.01
      vertex 5.35 11.75 7.7
      vertex 5.35 19 3.01
    endloop
  endfacet
  facet normal -1 0 0
    outer loop
      vertex 5.35 19 3.01
      vertex 5.35 11.75 7.7
      vertex 5.35 19 7.7
    endloop
  endfacet
  facet normal 0 -1 0
    outer loop
      vertex 6 11.75 3.01
      vertex 6 11.75 7.7
      vertex 5.35 11.75 7.7
    endloop
  endfacet
  facet normal 0 -1 0
    outer loop
      vertex 5.35 11.75 3.01
      vertex 6 11.75 3.01
      vertex 5.35 11.75 7.7
    endloop
  endfacet
  facet normal 0 0 -1
    outer loop
      vertex 5.35 11.75 3.01
      vertex 5.35 19 3.01
      vertex 6 11.75 3.01
    endloop
  endfacet
  facet normal 0 0 -1
    outer loop
      vertex 6 11.75 3.01
      vertex 5.35 19 3.01
      vertex 6 19 3.01
    endloop
  endfacet
  facet normal 0 1 0
    outer loop
      vertex 6 19 7.7
      vertex 6 19 3.01
      vertex 5.35 19 7.7
    endloop
  endfacet
  facet normal 0 1 0
    outer loop
      vertex 5.35 19 7.7
      vertex 6 19 3.01
      vertex 5.35 19 3.01
    endloop
  endfacet
  facet normal 0 0 1
    outer loop
      vertex 6 11.75 7.7
      vertex 6 19 7.7
      vertex 5.35 19 7.7
    endloop
  endfacet
  facet normal 0 0 1
    outer loop
      vertex 5.35 11.75 7.7
      vertex 6 11.75 7.7
      vertex 5.35 19 7.7
    endloop
  endfacet
  facet normal 1 0 0
    outer loop
      vertex 6 19 3.01
      vertex 6 19 7.7
      vertex 6 11.75 7.7
    endloop
  endfacet
  facet normal 1 0 0
    outer loop
      vertex 6 11.75 3.01
      vertex 6 19 3.01
      vertex 6 11.75 7.7
    endloop
  endfacet
  facet normal -1 0 0
    outer loop
      vertex 5.35 19.75 3.01
      vertex 5.35 19.75 7.7
      vertex 5.35 32 3.01
    endloop
  endfacet
  facet normal -1 0 0
    outer loop
      vertex 5.35 32 3.01
      vertex 5.35 19.75 7.7
      vertex 5.35 32 7.7
    endloop
  endfacet
  facet normal 0 -1 0
    outer loop
      vertex 6 19.75 3.01
      vertex 6 19.75 7.7
      vertex 5.35 19.75 7.7
    endloop
  endfacet
  facet normal 0 -1 0
    outer loop
      vertex 5.35 19.75 3.01
      vertex 6 19.75 3.01
      vertex 5.35 19.75 7.7
    endloop
  endfacet
  facet normal 0 0 -1
    outer loop
      vertex 5.35 19.75 3.01
      vertex 5.35 32 3.01
      vertex 6 19.75 3.01
    endloop
  endfacet
  facet normal 0 0 -1
    outer loop
      vertex 6 19.75 3.01
      vertex 5.35 32 3.01
      vertex 6 32 3.01
    endloop
  endfacet
  facet normal 0 1 0
    outer loop
      vertex 6 32 7.7
      vertex 6 32 3.01
      vertex 5.35 32 7.7
    endloop
  endfacet
  facet normal 0 1 0
    outer loop
      vertex 5.35 32 7.7
      vertex 6 32 3.01
      vertex 5.35 32 3.01
    endloop
  endfacet
  facet normal 0 0 1
    outer loop
      vertex 6 19.75 7.7
      vertex 6 32 7.7
      vertex 5.35 32 7.7
    endloop
  endfacet
  facet normal 0 0 1
    outer loop
      vertex 5.35 19.75 7.7
      vertex 6 19.75 7.7
      vertex 5.35 32 7.7
    endloop
  endfacet
  facet normal 1 0 0
    outer loop
      vertex 6 32 3.01
      vertex 6 32 7.7
      vertex 6 19.75 7.7
    endloop
  endfacet
  facet normal 1 0 0
    outer loop
      vertex 6 19.75 3.01
      vertex 6 32 3.01
      vertex 6 19.75 7.7
    endloop
  endfacet
  facet normal -1 0 0
    outer loop
      vertex 5.35 32.75 3.01
      vertex 5.35 32.75 7.7
      vertex 5.35 40 3.01
    endloop
  endfacet
  facet normal -1 0 0
    outer loop
      vertex 5.35 40 3.01
      vertex 5.35 32.75 7.7
      vertex 5.35 40 7.7
    endloop
  endfacet
  facet normal 0 -1 0
    outer loop
      vertex 6 32.75 3.01
      vertex 6 32.75 7.7
      vertex 5.35 32.75 7.7
    endloop
  endfacet
  facet normal 0 -1 0
    outer loop
      vertex 5.35 32.75 3.01
      vertex 6 32.75 3.01
      vertex 5.35 32.75 7.7
    endloop
  endfacet
  facet normal 0 0 -1
    outer loop
      vertex 5.35 32.75 3.01
      vertex 5.35 40 3.01
      vertex 6 32.75 3.01
    endloop
  endfacet
  facet normal 0 0 -1
    outer loop
      vertex 6 32.75 3.01
      vertex 5.35 40 3.01
      vertex 6 40 3.01
    endloop
  endfacet
  facet normal 0 1 0
    outer loop
      vertex 6 40 7.7
      vertex 6 40 3.01
      vertex 5.35 40 7.7
    endloop
  endfacet
  facet normal 0 1 0
    outer loop
      vertex 5.35 40 7.7
      vertex 6 40 3.01
      vertex 5.35 40 3.01
    endloop
  endfacet
  facet normal 0 0 1
    outer loop
      vertex 6 32.75 7.7
      vertex 6 40 7.7
      vertex 5.35 40 7.7
    endloop
  endfacet
  facet normal 0 0 1
    outer loop
      vertex 5.35 32.75 7.7
      vertex 6 32.75 7.7
      vertex 5.35 40 7.7
    endloop
  endfacet
  facet normal 1 0 0
    outer loop
      vertex 6 40 3.01
      vertex 6 40 7.7
      vertex 6 32.75 7.7
    endloop
  endfacet
  facet normal 1 0 0
    outer loop
      vertex 6 32.75 3.01
      vertex 6 40 3.01
      vertex 6 32.75 7.7
    endloop
  endfacet
  facet normal 0 -1 0
    outer loop
      vertex 44.65 5.75 3.01
      vertex 44.65 5.75 7.7
      vertex 44 5.75 7.7
    endloop
  endfacet
  facet normal 0 -1 0
    outer loop
      vertex 44 5.75 3.01
      vertex 44.65 5.75 3.01
      vertex 44 5.75 7.7
    endloop
  endfacet
  facet normal 0 0 -1
    outer loop
      vertex 44 5.75 3.01
      vertex 44 14 3.01
      vertex 44.65 5.75 3.01
    endloop
  endfacet
  facet normal 0 0 -1
    outer loop
      vertex 44.65 5.75 3.01
      vertex 44 14 3.01
      vertex 44.65 14 3.01
    endloop
  endfacet
  facet normal -1 0 0
    outer loop
      vertex 44 14 7.7
      vertex 44 14 3.01
      vertex 44 5.75 7.7
    endloop
  endfacet
  facet normal -1 0 0
    outer loop
      vertex 44 5.75 7.7
      vertex 44 14 3.01
      vertex 44 5.75 3.01
    endloop
  endfacet
  facet normal 1 0 0
    outer loop
      vertex 44.65 5.75 7.7
      vertex 44.65 5.75 3.01
      vertex 44.65 14 3.01
    endloop
  endfacet
  facet normal 1 0 0
    outer loop
      vertex 44.65 14 7.7
      vertex 44.65 5.75 7.7
      vertex 44.65 14 3.01
    endloop
  endfacet
  facet normal 0 0 1
    outer loop
      vertex 44.65 5.75 7.7
      vertex 44.65 14 7.7
      vertex 44 14 7.7
    endloop
  endfacet
  facet normal 0 0 1
    outer loop
      vertex 44 5.75 7.7
      vertex 44.65 5.75 7.7
      vertex 44 14 7.7
    endloop
  endfacet
  facet normal 0 1 0
    outer loop
      vertex 44.65 14 7.7
      vertex 44.65 14 3.01
      vertex 44 14 7.7
    endloop
  endfacet
  facet normal 0 1 0
    outer loop
      vertex 44 14 7.7
      vertex 44.65 14 3.01
      vertex 44 14 3.01
    endloop
  endfacet
  facet normal 0 -1 0
    outer loop
      vertex 44.65 14.75 3.01
      vertex 44.65 14.75 7.7
      vertex 44 14.75 7.7
    endloop
  endfacet
  facet normal 0 -1 0
    outer loop
      vertex 44 14.75 3.01
      vertex 44.65 14.75 3.01
      vertex 44 14.75 7.7
    endloop
  endfacet
  facet normal 0 0 -1
    outer loop
      vertex 44 14.75 3.01
      vertex 44 25 3.01
      vertex 44.65 14.75 3.01
    endloop
  endfacet
  facet normal 0 0 -1
    outer loop
      vertex 44.65 14.75 3.01
      vertex 44 25 3.01
      vertex 44.65 25 3.01
    endloop
  endfacet
  facet normal -1 0 0
    outer loop
      vertex 44 25 7.7
      vertex 44 25 3.01
      vertex 44 14.75 7.7
    endloop
  endfacet
  facet normal -1 0 0
    outer loop
      vertex 44 14.75 7.7
      vertex 44 25 3.01
      vertex 44 14.75 3.01
    endloop
  endfacet
  facet normal 1 0 0
    outer loop
      vertex 44.65 14.75 7.7
      vertex 44.65 14.75 3.01
      vertex 44.65 25 3.01
    endloop
  endfacet
  facet normal 1 0 0
    outer loop
      vertex 44.65 25 7.7
      vertex 44.65 14.75 7.7
      vertex 44.65 25 3.01
    endloop
  endfacet
  facet normal 0 0 1
    outer loop
      vertex 44.65 14.75 7.7
      vertex 44.65 25 7.7
      vertex 44 25 7.7
    endloop
  endfacet
  facet normal 0 0 1
    outer loop
      vertex 44 14.75 7.7
      vertex 44.65 14.75 7.7
      vertex 44 25 7.7
    endloop
  endfacet
  facet normal 0 1 0
    outer loop
      vertex 44.65 25 7.7
      vertex 44.65 25 3.01
      vertex 44 25 7.7
    endloop
  endfacet
  facet normal 0 1 0
    outer loop
      vertex 44 25 7.7
      vertex 44.65 25 3.01
      vertex 44 25 3.01
    endloop
  endfacet
  facet normal 0 -1 0
    outer loop
      vertex 44.65 25.75 3.01
      vertex 44.65 25.75 7.7
      vertex 44 25.75 7.7
    endloop
  endfacet
  facet normal 0 -1 0
    outer loop
      vertex 44 25.75 3.01
      vertex 44.65 25.75 3.01
      vertex 44 25.75 7.7
    endloop
  endfacet
  facet normal 0 0 -1
    outer loop
      vertex 44 25.75 3.01
      vertex 44 36 3.01
      vertex 44.65 25.75 3.01
    endloop
  endfacet
  facet normal 0 0 -1
    outer loop
      vertex 44.65 25.75 3.01
      vertex 44 36 3.01
      vertex 44.65 36 3.01
    endloop
  endfacet
  facet normal -1 0 0
    outer loop
      vertex 44 36 7.7
      vertex 44 36 3.01
      vertex 44 25.75 7.7
    endloop
  endfacet
  facet normal -1 0 0
    outer loop
      vertex 44 25.75 7.7
      vertex 44 36 3.01
      vertex 44 25.75 3.01
    endloop
  endfacet
  facet normal 1 0 0
    outer loop
      vertex 44.65 25.75 7.7
      vertex 44.65 25.75 3.01
      vertex 44.65 36 3.01
    endloop
  endfacet
  facet normal 1 0 0
    outer loop
      vertex 44.65 36 7.7
      vertex 44.65 25.75 7.7
      vertex 44.65 36 3.01
    endloop
  endfacet
  facet normal 0 0 1
    outer loop
      vertex 44.65 25.75 7.7
      vertex 44.65 36 7.7
      vertex 44 36 7.7
    endloop
  endfacet
  facet normal 0 0 1
    outer loop
      vertex 44 25.75 7.7
      vertex 44.65 25.75 7.7
      vertex 44 36 7.7
    endloop
  endfacet
  facet normal 0 1 0
    outer loop
      vertex 44.65 36 7.7
      vertex 44.65 36 3.01
      vertex 44 36 7.7
    endloop
  endfacet
  facet normal 0 1 0
    outer loop
      vertex 44 36 7.7
      vertex 44.65 36 3.01
      vertex 44 36 3.01
    endloop
  endfacet
  facet normal 0 -1 0
    outer loop
      vertex 44.65 36.75 3.01
      vertex 44.65 36.75 7.7
      vertex 44 36.75 7.7
    endloop
  endfacet
  facet normal 0 -1 0
    outer loop
      vertex 44 36.75 3.01
      vertex 44.65 36.75 3.01
      vertex 44 36.75 7.7
    endloop
  endfacet
  facet normal 0 0 -1
    outer loop
      vertex 44 36.75 3.01
      vertex 44 44 3.01
      vertex 44.65 36.75 3.01
    endloop
  endfacet
  facet normal 0 0 -1
    outer loop
      vertex 44.65 36.75 3.01
      vertex 44 44 3.01
      vertex 44.65 44 3.01
    endloop
  endfacet
  facet normal -1 0 0
    outer loop
      vertex 44 44 7.7
      vertex 44 44 3.01
      vertex 44 36.75 7.7
    endloop
  endfacet
  facet normal -1 0 0
    outer loop
      vertex 44 36.75 7.7
      vertex 44 44 3.01
      vertex 44 36.75 3.01
    endloop
  endfacet
  facet normal 1 0 0
    outer loop
      vertex 44.65 36.75 7.7
      vertex 44.65 36.75 3.01
      vertex 44.65 44 3.01
    endloop
  endfacet
  facet normal 1 0 0
    outer loop
      vertex 44.65 44 7.7
      vertex 44.65 36.75 7.7
      vertex 44.65 44 3.01
    endloop
  endfacet
  facet normal 0 0 1
    outer loop
      vertex 44.65 36.75 7.7
      vertex 44.65 44 7.7
      vertex 44 44 7.7
    endloop
  endfacet
  facet normal 0 0 1
    outer loop
      vertex 44 36.75 7.7
      vertex 44.65 36.75 7.7
      vertex 44 44 7.7
    endloop
  endfacet
  facet normal 0 1 0
    outer loop
      vertex 44.65 44 7.7
      vertex 44.65 44 3.01
      vertex 44 44 7.7
    endloop
  endfacet
  facet normal 0 1 0
    outer loop
      vertex 44 44 7.7
      vertex 44.65 44 3.01
      vertex 44 44 3.01
    endloop
  endfacet
  facet normal -1 0 0
    outer loop
      vertex 0.1 7.75 8.5
      vertex 0.1 7.75 9.5
      vertex 0.1 15 8.5
    endloop
  endfacet
  facet normal -1 0 0
    outer loop
      vertex 0.1 15 8.5
      vertex 0.1 7.75 9.5
      vertex 0.1 15 9.5
    endloop
  endfacet
  facet normal 0 -1 0
    outer loop
      vertex 1.1 7.75 12.5
      vertex 0.85 7.75 9.49
      vertex 1.85 7.75 11.74
    endloop
  endfacet
  facet normal 0 -1 0
    outer loop
      vertex 5.35 7.75 9.49
      vertex 6 7.75 8.5
      vertex 4.35 7.75 11.74
    endloop
  endfacet
  facet normal 0 -1 0
    outer loop
      vertex 4.35 7.75 11.74
      vertex 5.1 7.75 12.5
      vertex 1.85 7.75 11.74
    endloop
  endfacet
  facet normal 0 -1 0
    outer loop
      vertex 0.85 7.75 8.5
      vertex 0.85 7.75 9.49
      vertex 0.1 7.75 9.5
    endloop
  endfacet
  facet normal 0 -1 0
    outer loop
      vertex 5.35 7.75 8.5
      vertex 6 7.75 8.5
      vertex 5.35 7.75 9.49
    endloop
  endfacet
  facet normal 0 -1 0
    outer loop
      vertex 6 7.75 8.5
      vertex 6 7.75 9.8
      vertex 4.35 7.75 11.74
    endloop
  endfacet
  facet normal 0 -1 0
    outer loop
      vertex 6 7.75 9.8
      vertex 5.1 7.75 12.5
      vertex 4.35 7.75 11.74
    endloop
  endfacet
  facet normal 0 -1 0
    outer loop
      vertex 5.1 7.75 12.5
      vertex 1.1 7.75 12.5
      vertex 1.85 7.75 11.74
    endloop
  endfacet
  facet normal 0 -1 0
    outer loop
      vertex 1.1 7.75 12.5
      vertex 0.1 7.75 9.5
      vertex 0.85 7.75 9.49
    endloop
  endfacet
  facet normal 0 -1 0
    outer loop
      vertex 0.1 7.75 9.5
      vertex 0.1 7.75 8.5
      vertex 0.85 7.75 8.5
    endloop
  endfacet
  facet normal 0 0 -1
    outer loop
      vertex 0.1 7.75 8.5
      vertex 0.1 15 8.5
      vertex 0.85 7.75 8.5
    endloop
  endfacet
  facet normal 0 0 -1
    outer loop
      vertex 0.85 7.75 8.5
      vertex 0.1 15 8.5
      vertex 0.85 15 8.5
    endloop
  endfacet
  facet normal 0 1 0
    outer loop
      vertex 0.85 15 9.49
      vertex 0.1 15 9.5
      vertex 1.85 15 11.74
    endloop
  endfacet
  facet normal 0 1 0
    outer loop
      vertex 4.35 15 11.74
      vertex 5.1 15 12.5
      vertex 6 15 9.8
    endloop
  endfacet
  facet normal 0 1 0
    outer loop
      vertex 5.35 15 9.49
      vertex 6 15 9.8
      vertex 6 15 8.5
    endloop
  endfacet
  facet normal 0 1 0
    outer loop
      vertex 4.35 15 11.74
      vertex 6 15 9.8
      vertex 5.35 15 9.49
    endloop
  endfacet
  facet normal 0 1 0
    outer loop
      vertex 1.85 15 11.74
      vertex 5.1 15 12.5
      vertex 4.35 15 11.74
    endloop
  endfacet
  facet normal 0 1 0
    outer loop
      vertex 1.1 15 12.5
      vertex 5.1 15 12.5
      vertex 1.85 15 11.74
    endloop
  endfacet
  facet normal 0 1 0
    outer loop
      vertex 1.1 15 12.5
      vertex 1.85 15 11.74
      vertex 0.1 15 9.5
    endloop
  endfacet
  facet normal 0 1 0
    outer loop
      vertex 0.85 15 8.5
      vertex 0.1 15 9.5
      vertex 0.85 15 9.49
    endloop
  endfacet
  facet normal 0 1 0
    outer loop
      vertex 0.1 15 9.5
      vertex 0.85 15 8.5
      vertex 0.1 15 8.5
    endloop
  endfacet
  facet normal 0 1 0
    outer loop
      vertex 5.35 15 9.49
      vertex 6 15 8.5
      vertex 5.35 15 8.5
    endloop
  endfacet
  facet normal -0.948683 0 0.316228
    outer loop
      vertex 0.1 7.75 9.5
      vertex 1.1 7.75 12.5
      vertex 0.1 15 9.5
    endloop
  endfacet
  facet normal -0.948683 0 0.316228
    outer loop
      vertex 0.1 15 9.5
      vertex 1.1 7.75 12.5
      vertex 1.1 15 12.5
    endloop
  endfacet
  facet normal 1 0 0
    outer loop
      vertex 0.85 15 8.5
      vertex 0.85 15 9.49
      vertex 0.85 7.75 9.49
    endloop
  endfacet
  facet normal 1 0 0
    outer loop
      vertex 0.85 7.75 8.5
      vertex 0.85 15 8.5
      vertex 0.85 7.75 9.49
    endloop
  endfacet
  facet normal 0 0 1
    outer loop
      vertex 1.1 15 12.5
      vertex 1.1 7.75 12.5
      vertex 5.1 7.75 12.5
    endloop
  endfacet
  facet normal 0 0 1
    outer loop
      vertex 5.1 15 12.5
      vertex 1.1 15 12.5
      vertex 5.1 7.75 12.5
    endloop
  endfacet
  facet normal 0.948683 0 0.316228
    outer loop
      vertex 5.1 15 12.5
      vertex 5.1 7.75 12.5
      vertex 6 7.75 9.8
    endloop
  endfacet
  facet normal 0.948683 0 0.316228
    outer loop
      vertex 6 15 9.8
      vertex 5.1 15 12.5
      vertex 6 7.75 9.8
    endloop
  endfacet
  facet normal 1 0 0
    outer loop
      vertex 6 15 8.5
      vertex 6 15 9.8
      vertex 6 7.75 9.8
    endloop
  endfacet
  facet normal 1 0 0
    outer loop
      vertex 6 7.75 8.5
      vertex 6 15 8.5
      vertex 6 7.75 9.8
    endloop
  endfacet
  facet normal 0 0 -1
    outer loop
      vertex 5.35 7.75 8.5
      vertex 5.35 15 8.5
      vertex 6 7.75 8.5
    endloop
  endfacet
  facet normal 0 0 -1
    outer loop
      vertex 6 7.75 8.5
      vertex 5.35 15 8.5
      vertex 6 15 8.5
    endloop
  endfacet
  facet normal -1 0 0
    outer loop
      vertex 5.35 15 9.49
      vertex 5.35 15 8.5
      vertex 5.35 7.75 9.49
    endloop
  endfacet
  facet normal -1 0 0
    outer loop
      vertex 5.35 7.75 9.49
      vertex 5.35 15 8.5
      vertex 5.35 7.75 8.5
    endloop
  endfacet
  facet normal -0.913812 0 -0.406138
    outer loop
      vertex 5.35 15 9.49
      vertex 5.35 7.75 9.49
      vertex 4.35 15 11.74
    endloop
  endfacet
  facet normal -0.913812 0 -0.406138
    outer loop
      vertex 4.35 15 11.74
      vertex 5.35 7.75 9.49
      vertex 4.35 7.75 11.74
    endloop
  endfacet
  facet normal 0 0 -1
    outer loop
      vertex 4.35 15 11.74
      vertex 4.35 7.75 11.74
      vertex 1.85 15 11.74
    endloop
  endfacet
  facet normal 0 0 -1
    outer loop
      vertex 1.85 15 11.74
      vertex 4.35 7.75 11.74
      vertex 1.85 7.75 11.74
    endloop
  endfacet
  facet normal 0.913812 0 -0.406138
    outer loop
      vertex 0.85 15 9.49
      vertex 1.85 15 11.74
      vertex 1.85 7.75 11.74
    endloop
  endfacet
  facet normal 0.913812 0 -0.406138
    outer loop
      vertex 0.85 7.75 9.49
      vertex 0.85 15 9.49
      vertex 1.85 7.75 11.74
    endloop
  endfacet
  facet normal -1 0 0
    outer loop
      vertex 0.1 15.75 8.5
      vertex 0.1 15.75 9.5
      vertex 0.1 26 8.5
    endloop
  endfacet
  facet normal -1 0 0
    outer loop
      vertex 0.1 26 8.5
      vertex 0.1 15.75 9.5
      vertex 0.1 26 9.5
    endloop
  endfacet
  facet normal 0 -1 0
    outer loop
      vertex 1.1 15.75 12.5
      vertex 0.85 15.75 9.49
      vertex 1.85 15.75 11.74
    endloop
  endfacet
  facet normal 0 -1 0
    outer loop
      vertex 5.35 15.75 9.49
      vertex 6 15.75 8.5
      vertex 4.35 15.75 11.74
    endloop
  endfacet
  facet normal 0 -1 0
    outer loop
      vertex 4.35 15.75 11.74
      vertex 5.1 15.75 12.5
      vertex 1.85 15.75 11.74
    endloop
  endfacet
  facet normal 0 -1 0
    outer loop
      vertex 0.85 15.75 8.5
      vertex 0.85 15.75 9.49
      vertex 0.1 15.75 9.5
    endloop
  endfacet
  facet normal 0 -1 0
    outer loop
      vertex 5.35 15.75 8.5
      vertex 6 15.75 8.5
      vertex 5.35 15.75 9.49
    endloop
  endfacet
  facet normal 0 -1 0
    outer loop
      vertex 6 15.75 8.5
      vertex 6 15.75 9.8
      vertex 4.35 15.75 11.74
    endloop
  endfacet
  facet normal 0 -1 0
    outer loop
      vertex 6 15.75 9.8
      vertex 5.1 15.75 12.5
      vertex 4.35 15.75 11.74
    endloop
  endfacet
  facet normal 0 -1 0
    outer loop
      vertex 5.1 15.75 12.5
      vertex 1.1 15.75 12.5
      vertex 1.85 15.75 11.74
    endloop
  endfacet
  facet normal 0 -1 0
    outer loop
      vertex 1.1 15.75 12.5
      vertex 0.1 15.75 9.5
      vertex 0.85 15.75 9.49
    endloop
  endfacet
  facet normal 0 -1 0
    outer loop
      vertex 0.1 15.75 9.5
      vertex 0.1 15.75 8.5
      vertex 0.85 15.75 8.5
    endloop
  endfacet
  facet normal 0 0 -1
    outer loop
      vertex 0.1 15.75 8.5
      vertex 0.1 26 8.5
      vertex 0.85 15.75 8.5
    endloop
  endfacet
  facet normal 0 0 -1
    outer loop
      vertex 0.85 15.75 8.5
      vertex 0.1 26 8.5
      vertex 0.85 26 8.5
    endloop
  endfacet
  facet normal 0 1 0
    outer loop
      vertex 0.85 26 9.49
      vertex 0.1 26 9.5
      vertex 1.85 26 11.74
    endloop
  endfacet
  facet normal 0 1 0
    outer loop
      vertex 4.35 26 11.74
      vertex 5.1 26 12.5
      vertex 6 26 9.8
    endloop
  endfacet
  facet normal 0 1 0
    outer loop
      vertex 5.35 26 9.49
      vertex 6 26 9.8
      vertex 6 26 8.5
    endloop
  endfacet
  facet normal 0 1 0
    outer loop
      vertex 4.35 26 11.74
      vertex 6 26 9.8
      vertex 5.35 26 9.49
    endloop
  endfacet
  facet normal 0 1 0
    outer loop
      vertex 1.85 26 11.74
      vertex 5.1 26 12.5
      vertex 4.35 26 11.74
    endloop
  endfacet
  facet normal 0 1 0
    outer loop
      vertex 1.1 26 12.5
      vertex 5.1 26 12.5
      vertex 1.85 26 11.74
    endloop
  endfacet
  facet normal 0 1 0
    outer loop
      vertex 1.1 26 12.5
      vertex 1.85 26 11.74
      vertex 0.1 26 9.5
    endloop
  endfacet
  facet normal 0 1 0
    outer loop
      vertex 0.85 26 8.5
      vertex 0.1 26 9.5
      vertex 0.85 26 9.49
    endloop
  endfacet
  facet normal 0 1 0
    outer loop
      vertex 0.1 26 9.5
      vertex 0.85 26 8.5
      vertex 0.1 26 8.5
    endloop
  endfacet
  facet normal 0 1 0
    outer loop
      vertex 5.35 26 9.49
      vertex 6 26 8.5
      vertex 5.35 26 8.5
    endloop
  endfacet
  facet normal -0.948683 0 0.316228
    outer loop
      vertex 0.1 15.75 9.5
      vertex 1.1 15.75 12.5
      vertex 0.1 26 9.5
    endloop
  endfacet
  facet normal -0.948683 0 0.316228
    outer loop
      vertex 0.1 26 9.5
      vertex 1.1 15.75 12.5
      vertex 1.1 26 12.5
    endloop
  endfacet
  facet normal 1 0 0
    outer loop
      vertex 0.85 26 8.5
      vertex 0.85 26 9.49
      vertex 0.85 15.75 9.49
    endloop
  endfacet
  facet normal 1 0 0
    outer loop
      vertex 0.85 15.75 8.5
      vertex 0.85 26 8.5
      vertex 0.85 15.75 9.49
    endloop
  endfacet
  facet normal 0 0 1
    outer loop
      vertex 1.1 26 12.5
      vertex 1.1 15.75 12.5
      vertex 5.1 15.75 12.5
    endloop
  endfacet
  facet normal 0 0 1
    outer loop
      vertex 5.1 26 12.5
      vertex 1.1 26 12.5
      vertex 5.1 15.75 12.5
    endloop
  endfacet
  facet normal 0.948683 0 0.316228
    outer loop
      vertex 5.1 26 12.5
      vertex 5.1 15.75 12.5
      vertex 6 15.75 9.8
    endloop
  endfacet
  facet normal 0.948683 0 0.316228
    outer loop
      vertex 6 26 9.8
      vertex 5.1 26 12.5
      vertex 6 15.75 9.8
    endloop
  endfacet
  facet normal 1 0 0
    outer loop
      vertex 6 26 8.5
      vertex 6 26 9.8
      vertex 6 15.75 9.8
    endloop
  endfacet
  facet normal 1 0 0
    outer loop
      vertex 6 15.75 8.5
      vertex 6 26 8.5
      vertex 6 15.75 9.8
    endloop
  endfacet
  facet normal 0 0 -1
    outer loop
      vertex 5.35 15.75 8.5
      vertex 5.35 26 8.5
      vertex 6 15.75 8.5
    endloop
  endfacet
  facet normal 0 0 -1
    outer loop
      vertex 6 15.75 8.5
      vertex 5.35 26 8.5
      vertex 6 26 8.5
    endloop
  endfacet
  facet normal -1 0 0
    outer loop
      vertex 5.35 26 9.49
      vertex 5.35 26 8.5
      vertex 5.35 15.75 9.49
    endloop
  endfacet
  facet normal -1 0 0
    outer loop
      vertex 5.35 15.75 9.49
      vertex 5.35 26 8.5
      vertex 5.35 15.75 8.5
    endloop
  endfacet
  facet normal -0.913812 0 -0.406138
    outer loop
      vertex 5.35 26 9.49
      vertex 5.35 15.75 9.49
      vertex 4.35 26 11.74
    endloop
  endfacet
  facet normal -0.913812 0 -0.406138
    outer loop
      vertex 4.35 26 11.74
      vertex 5.35 15.75 9.49
      vertex 4.35 15.75 11.74
    endloop
  endfacet
  facet normal 0 0 -1
    outer loop
      vertex 4.35 26 11.74
      vertex 4.35 15.75 11.74
      vertex 1.85 26 11.74
    endloop
  endfacet
  facet normal 0 0 -1
    outer loop
      vertex 1.85 26 11.74
      vertex 4.35 15.75 11.74
      vertex 1.85 15.75 11.74
    endloop
  endfacet
  facet normal 0.913812 0 -0.406138
    outer loop
      vertex 0.85 26 9.49
      vertex 1.85 26 11.74
      vertex 1.85 15.75 11.74
    endloop
  endfacet
  facet normal 0.913812 0 -0.406138
    outer loop
      vertex 0.85 15.75 9.49
      vertex 0.85 26 9.49
      vertex 1.85 15.75 11.74
    endloop
  endfacet
  facet normal -1 0 0
    outer loop
      vertex 0.1 26.75 8.5
      vertex 0.1 26.75 9.5
      vertex 0.1 34 8.5
    endloop
  endfacet
  facet normal -1 0 0
    outer loop
      vertex 0.1 34 8.5
      vertex 0.1 26.75 9.5
      vertex 0.1 34 9.5
    endloop
  endfacet
  facet normal 0 -1 0
    outer loop
      vertex 1.1 26.75 12.5
      vertex 0.85 26.75 9.49
      vertex 1.85 26.75 11.74
    endloop
  endfacet
  facet normal 0 -1 0
    outer loop
      vertex 5.35 26.75 9.49
      vertex 6 26.75 8.5
      vertex 4.35 26.75 11.74
    endloop
  endfacet
  facet normal 0 -1 0
    outer loop
      vertex 4.35 26.75 11.74
      vertex 5.1 26.75 12.5
      vertex 1.85 26.75 11.74
    endloop
  endfacet
  facet normal 0 -1 0
    outer loop
      vertex 0.85 26.75 8.5
      vertex 0.85 26.75 9.49
      vertex 0.1 26.75 9.5
    endloop
  endfacet
  facet normal 0 -1 0
    outer loop
      vertex 5.35 26.75 8.5
      vertex 6 26.75 8.5
      vertex 5.35 26.75 9.49
    endloop
  endfacet
  facet normal 0 -1 0
    outer loop
      vertex 6 26.75 8.5
      vertex 6 26.75 9.8
      vertex 4.35 26.75 11.74
    endloop
  endfacet
  facet normal 0 -1 0
    outer loop
      vertex 6 26.75 9.8
      vertex 5.1 26.75 12.5
      vertex 4.35 26.75 11.74
    endloop
  endfacet
  facet normal 0 -1 0
    outer loop
      vertex 5.1 26.75 12.5
      vertex 1.1 26.75 12.5
      vertex 1.85 26.75 11.74
    endloop
  endfacet
  facet normal 0 -1 0
    outer loop
      vertex 1.1 26.75 12.5
      vertex 0.1 26.75 9.5
      vertex 0.85 26.75 9.49
    endloop
  endfacet
  facet normal 0 -1 0
    outer loop
      vertex 0.1 26.75 9.5
      vertex 0.1 26.75 8.5
      vertex 0.85 26.75 8.5
    endloop
  endfacet
  facet normal 0 0 -1
    outer loop
      vertex 0.1 26.75 8.5
      vertex 0.1 34 8.5
      vertex 0.85 26.75 8.5
    endloop
  endfacet
  facet normal 0 0 -1
    outer loop
      vertex 0.85 26.75 8.5
      vertex 0.1 34 8.5
      vertex 0.85 34 8.5
    endloop
  endfacet
  facet normal 0 1 0
    outer loop
      vertex 0.85 34 9.49
      vertex 0.1 34 9.5
      vertex 1.85 34 11.74
    endloop
  endfacet
  facet normal 0 1 0
    outer loop
      vertex 4.35 34 11.74
      vertex 5.1 34 12.5
      vertex 6 34 9.8
    endloop
  endfacet
  facet normal 0 1 0
    outer loop
      vertex 5.35 34 9.49
      vertex 6 34 9.8
      vertex 6 34 8.5
    endloop
  endfacet
  facet normal 0 1 0
    outer loop
      vertex 4.35 34 11.74
      vertex 6 34 9.8
      vertex 5.35 34 9.49
    endloop
  endfacet
  facet normal 0 1 0
    outer loop
      vertex 1.85 34 11.74
      vertex 5.1 34 12.5
      vertex 4.35 34 11.74
    endloop
  endfacet
  facet normal 0 1 0
    outer loop
      vertex 1.1 34 12.5
      vertex 5.1 34 12.5
      vertex 1.85 34 11.74
    endloop
  endfacet
  facet normal 0 1 0
    outer loop
      vertex 1.1 34 12.5
      vertex 1.85 34 11.74
      vertex 0.1 34 9.5
    endloop
  endfacet
  facet normal 0 1 0
    outer loop
      vertex 0.85 34 8.5
      vertex 0.1 34 9.5
      vertex 0.85 34 9.49
    endloop
  endfacet
  facet normal 0 1 0
    outer loop
      vertex 0.1 34 9.5
      vertex 0.85 34 8.5
      vertex 0.1 34 8.5
    endloop
  endfacet
  facet normal 0 1 0
    outer loop
      vertex 5.35 34 9.49
      vertex 6 34 8.5
      vertex 5.35 34 8.5
    endloop
  endfacet
  facet normal -0.948683 0 0.316228
    outer loop
      vertex 0.1 26.75 9.5
      vertex 1.1 26.75 12.5
      vertex 0.1 34 9.5
    endloop
  endfacet
  facet normal -0.948683 0 0.316228
    outer loop
      vertex 0.1 34 9.5
      vertex 1.1 26.75 12.5
      vertex 1.1 34 12.5
    endloop
  endfacet
  facet normal 1 0 0
    outer loop
      vertex 0.85 34 8.5
      vertex 0.85 34 9.49
      vertex 0.85 26.75 9.49
    endloop
  endfacet
  facet normal 1 0 0
    outer loop
      vertex 0.85 26.75 8.5
      vertex 0.85 34 8.5
      vertex 0.85 26.75 9.49
    endloop
  endfacet
  facet normal 0 0 1
    outer loop
      vertex 1.1 34 12.5
      vertex 1.1 26.75 12.5
      vertex 5.1 26.75 12.5
    endloop
  endfacet
  facet normal 0 0 1
    outer loop
      vertex 5.1 34 12.5
      vertex 1.1 34 12.5
      vertex 5.1 26.75 12.5
    endloop
  endfacet
  facet normal 0.948683 0 0.316228
    outer loop
      vertex 5.1 34 12.5
      vertex 5.1 26.75 12.5
      vertex 6 26.75 9.8
    endloop
  endfacet
  facet normal 0.948683 0 0.316228
    outer loop
      vertex 6 34 9.8
      vertex 5.1 34 12.5
      vertex 6 26.75 9.8
    endloop
  endfacet
  facet normal 1 0 0
    outer loop
      vertex 6 34 8.5
      vertex 6 34 9.8
      vertex 6 26.75 9.8
    endloop
  endfacet
  facet normal 1 0 0
    outer loop
      vertex 6 26.75 8.5
      vertex 6 34 8.5
      vertex 6 26.75 9.8
    endloop
  endfacet
  facet normal 0 0 -1
    outer loop
      vertex 5.35 26.75 8.5
      vertex 5.35 34 8.5
      vertex 6 26.75 8.5
    endloop
  endfacet
  facet normal 0 0 -1
    outer loop
      vertex 6 26.75 8.5
      vertex 5.35 34 8.5
      vertex 6 34 8.5
    endloop
  endfacet
  facet normal -1 0 0
    outer loop
      vertex 5.35 34 9.49
      vertex 5.35 34 8.5
      vertex 5.35 26.75 9.49
    endloop
  endfacet
  facet normal -1 0 0
    outer loop
      vertex 5.35 26.75 9.49
      vertex 5.35 34 8.5
      vertex 5.35 26.75 8.5
    endloop
  endfacet
  facet normal -0.913812 0 -0.406138
    outer loop
      vertex 5.35 34 9.49
      vertex 5.35 26.75 9.49
      vertex 4.35 34 11.74
    endloop
  endfacet
  facet normal -0.913812 0 -0.406138
    outer loop
      vertex 4.35 34 11.74
      vertex 5.35 26.75 9.49
      vertex 4.35 26.75 11.74
    endloop
  endfacet
  facet normal 0 0 -1
    outer loop
      vertex 4.35 34 11.74
      vertex 4.35 26.75 11.74
      vertex 1.85 34 11.74
    endloop
  endfacet
  facet normal 0 0 -1
    outer loop
      vertex 1.85 34 11.74
      vertex 4.35 26.75 11.74
      vertex 1.85 26.75 11.74
    endloop
  endfacet
  facet normal 0.913812 0 -0.406138
    outer loop
      vertex 0.85 34 9.49
      vertex 1.85 34 11.74
      vertex 1.85 26.75 11.74
    endloop
  endfacet
  facet normal 0.913812 0 -0.406138
    outer loop
      vertex 0.85 26.75 9.49
      vertex 0.85 34 9.49
      vertex 1.85 26.75 11.74
    endloop
  endfacet
  facet normal -1 0 0
    outer loop
      vertex 0.1 34.75 8.5
      vertex 0.1 34.75 9.5
      vertex 0.1 45 8.5
    endloop
  endfacet
  facet normal -1 0 0
    outer loop
      vertex 0.1 45 8.5
      vertex 0.1 34.75 9.5
      vertex 0.1 45 9.5
    endloop
  endfacet
  facet normal 0 -1 0
    outer loop
      vertex 1.1 34.75 12.5
      vertex 0.85 34.75 9.49
      vertex 1.85 34.75 11.74
    endloop
  endfacet
  facet normal 0 -1 0
    outer loop
      vertex 5.35 34.75 9.49
      vertex 6 34.75 8.5
      vertex 4.35 34.75 11.74
    endloop
  endfacet
  facet normal 0 -1 0
    outer loop
      vertex 4.35 34.75 11.74
      vertex 5.1 34.75 12.5
      vertex 1.85 34.75 11.74
    endloop
  endfacet
  facet normal 0 -1 0
    outer loop
      vertex 0.85 34.75 8.5
      vertex 0.85 34.75 9.49
      vertex 0.1 34.75 9.5
    endloop
  endfacet
  facet normal 0 -1 0
    outer loop
      vertex 5.35 34.75 8.5
      vertex 6 34.75 8.5
      vertex 5.35 34.75 9.49
    endloop
  endfacet
  facet normal 0 -1 0
    outer loop
      vertex 6 34.75 8.5
      vertex 6 34.75 9.8
      vertex 4.35 34.75 11.74
    endloop
  endfacet
  facet normal 0 -1 0
    outer loop
      vertex 6 34.75 9.8
      vertex 5.1 34.75 12.5
      vertex 4.35 34.75 11.74
    endloop
  endfacet
  facet normal 0 -1 0
    outer loop
      vertex 5.1 34.75 12.5
      vertex 1.1 34.75 12.5
      vertex 1.85 34.75 11.74
    endloop
  endfacet
  facet normal 0 -1 0
    outer loop
      vertex 1.1 34.75 12.5
      vertex 0.1 34.75 9.5
      vertex 0.85 34.75 9.49
    endloop
  endfacet
  facet normal 0 -1 0
    outer loop
      vertex 0.1 34.75 9.5
      vertex 0.1 34.75 8.5
      vertex 0.85 34.75 8.5
    endloop
  endfacet
  facet normal 0 0 -1
    outer loop
      vertex 0.1 34.75 8.5
      vertex 0.1 45 8.5
      vertex 0.85 34.75 8.5
    endloop
  endfacet
  facet normal 0 0 -1
    outer loop
      vertex 0.85 34.75 8.5
      vertex 0.1 45 8.5
      vertex 0.85 45 8.5
    endloop
  endfacet
  facet normal 0 1 0
    outer loop
      vertex 0.85 45 9.49
      vertex 0.1 45 9.5
      vertex 1.85 45 11.74
    endloop
  endfacet
  facet normal 0 1 0
    outer loop
      vertex 4.35 45 11.74
      vertex 5.1 45 12.5
      vertex 6 45 9.8
    endloop
  endfacet
  facet normal 0 1 0
    outer loop
      vertex 5.35 45 9.49
      vertex 6 45 9.8
      vertex 6 45 8.5
    endloop
  endfacet
  facet normal 0 1 0
    outer loop
      vertex 4.35 45 11.74
      vertex 6 45 9.8
      vertex 5.35 45 9.49
    endloop
  endfacet
  facet normal 0 1 0
    outer loop
      vertex 1.85 45 11.74
      vertex 5.1 45 12.5
      vertex 4.35 45 11.74
    endloop
  endfacet
  facet normal 0 1 0
    outer loop
      vertex 1.1 45 12.5
      vertex 5.1 45 12.5
      vertex 1.85 45 11.74
    endloop
  endfacet
  facet normal 0 1 0
    outer loop
      vertex 1.1 45 12.5
      vertex 1.85 45 11.74
      vertex 0.1 45 9.5
    endloop
  endfacet
  facet normal 0 1 0
    outer loop
      vertex 0.85 45 8.5
      vertex 0.1 45 9.5
      vertex 0.85 45 9.49
    endloop
  endfacet
  facet normal 0 1 0
    outer loop
      vertex 0.1 45 9.5
      vertex 0.85 45 8.5
      vertex 0.1 45 8.5
    endloop
  endfacet
  facet normal 0 1 0
    outer loop
      vertex 5.35 45 9.49
      vertex 6 45 8.5
      vertex 5.35 45 8.5
    endloop
  endfacet
  facet normal -0.948683 0 0.316228
    outer loop
      vertex 0.1 34.75 9.5
      vertex 1.1 34.75 12.5
      vertex 0.1 45 9.5
    endloop
  endfacet
  facet normal -0.948683 0 0.316228
    outer loop
      vertex 0.1 45 9.5
      vertex 1.1 34.75 12.5
      vertex 1.1 45 12.5
    endloop
  endfacet
  facet normal 1 0 0
    outer loop
      vertex 0.85 45 8.5
      vertex 0.85 45 9.49
      vertex 0.85 34.75 9.49
    endloop
  endfacet
  facet normal 1 0 0
    outer loop
      vertex 0.85 34.75 8.5
      vertex 0.85 45 8.5
      vertex 0.85 34.75 9.49
    endloop
  endfacet
  facet normal 0 0 1
    outer loop
      vertex 1.1 45 12.5
      vertex 1.1 34.75 12.5
      vertex 5.1 34.75 12.5
    endloop
  endfacet
  facet normal 0 0 1
    outer loop
      vertex 5.1 45 12.5
      vertex 1.1 45 12.5
      vertex 5.1 34.75 12.5
    endloop
  endfacet
  facet normal 0.948683 0 0.316228
    outer loop
      vertex 5.1 45 12.5
      vertex 5.1 34.75 12.5
      vertex 6 34.75 9.8
    endloop
  endfacet
  facet normal 0.948683 0 0.316228
    outer loop
      vertex 6 45 9.8
      vertex 5.1 45 12.5
      vertex 6 34.75 9.8
    endloop
  endfacet
  facet normal 1 0 0
    outer loop
      vertex 6 45 8.5
      vertex 6 45 9.8
      vertex 6 34.75 9.8
    endloop
  endfacet
  facet normal 1 0 0
    outer loop
      vertex 6 34.75 8.5
      vertex 6 45 8.5
      vertex 6 34.75 9.8
    endloop
  endfacet
  facet normal 0 0 -1
    outer loop
      vertex 5.35 34.75 8.5
      vertex 5.35 45 8.5
      vertex 6 34.75 8.5
    endloop
  endfacet
  facet normal 0 0 -1
    outer loop
      vertex 6 34.75 8.5
      vertex 5.35 45 8.5
      vertex 6 45 8.5
    endloop
  endfacet
  facet normal -1 0 0
    outer loop
      vertex 5.35 45 9.49
      vertex 5.35 45 8.5
      vertex 5.35 34.75 9.49
    endloop
  endfacet
  facet normal -1 0 0
    outer loop
      vertex 5.35 34.75 9.49
      vertex 5.35 45 8.5
      vertex 5.35 34.75 8.5
    endloop
  endfacet
  facet normal -0.913812 0 -0.406138
    outer loop
      vertex 5.35 45 9.49
      vertex 5.35 34.75 9.49
      vertex 4.35 45 11.74
    endloop
  endfacet
  facet normal -0.913812 0 -0.406138
    outer loop
      vertex 4.35 45 11.74
      vertex 5.35 34.75 9.49
      vertex 4.35 34.75 11.74
    endloop
  endfacet
  facet normal 0 0 -1
    outer loop
      vertex 4.35 45 11.74
      vertex 4.35 34.75 11.74
      vertex 1.85 45 11.74
    endloop
  endfacet
  facet normal 0 0 -1
    outer loop
      vertex 1.85 45 11.74
      vertex 4.35 34.75 11.74
      vertex 1.85 34.75 11.74
    endloop
  endfacet
  facet normal 0.913812 0 -0.406138
    outer loop
      vertex 0.85 45 9.49
      vertex 1.85 45 11.74
      vertex 1.85 34.75 11.74
    endloop
  endfacet
  facet normal 0.913812 0 -0.406138
    outer loop
      vertex 0.85 34.75 9.49
      vertex 0.85 45 9.49
      vertex 1.85 34.75 11.74
    endloop
  endfacet
  facet normal 0 -1 0
    outer loop
      vertex 44.9 10.75 12.5
      vertex 44.65 10.75 9.49
      vertex 45.65 10.75 11.74
    endloop
  endfacet
  facet normal 0 -1 0
    outer loop
      vertex 49.15 10.75 9.49
      vertex 49.9 10.75 8.5
      vertex 48.15 10.75 11.74
    endloop
  endfacet
  facet normal 0 -1 0
    outer loop
      vertex 48.15 10.75 11.74
      vertex 48.9 10.75 12.5
      vertex 45.65 10.75 11.74
    endloop
  endfacet
  facet normal 0 -1 0
    outer loop
      vertex 44.65 10.75 8.5
      vertex 44.65 10.75 9.49
      vertex 44 10.75 9.8
    endloop
  endfacet
  facet normal 0 -1 0
    outer loop
      vertex 49.15 10.75 8.5
      vertex 49.9 10.75 8.5
      vertex 49.15 10.75 9.49
    endloop
  endfacet
  facet normal 0 -1 0
    outer loop
      vertex 49.9 10.75 8.5
      vertex 49.9 10.75 9.5
      vertex 48.15 10.75 11.74
    endloop
  endfacet
  facet normal 0 -1 0
    outer loop
      vertex 49.9 10.75 9.5
      vertex 48.9 10.75 12.5
      vertex 48.15 10.75 11.74
    endloop
  endfacet
  facet normal 0 -1 0
    outer loop
      vertex 48.9 10.75 12.5
      vertex 44.9 10.75 12.5
      vertex 45.65 10.75 11.74
    endloop
  endfacet
  facet normal 0 -1 0
    outer loop
      vertex 44.9 10.75 12.5
      vertex 44 10.75 9.8
      vertex 44.65 10.75 9.49
    endloop
  endfacet
  facet normal 0 -1 0
    outer loop
      vertex 44 10.75 9.8
      vertex 44 10.75 8.5
      vertex 44.65 10.75 8.5
    endloop
  endfacet
  facet normal 0 0 -1
    outer loop
      vertex 44 10.75 8.5
      vertex 44 22 8.5
      vertex 44.65 10.75 8.5
    endloop
  endfacet
  facet normal 0 0 -1
    outer loop
      vertex 44.65 10.75 8.5
      vertex 44 22 8.5
      vertex 44.65 22 8.5
    endloop
  endfacet
  facet normal -1 0 0
    outer loop
      vertex 44 22 9.8
      vertex 44 22 8.5
      vertex 44 10.75 9.8
    endloop
  endfacet
  facet normal -1 0 0
    outer loop
      vertex 44 10.75 9.8
      vertex 44 22 8.5
      vertex 44 10.75 8.5
    endloop
  endfacet
  facet normal 1 0 0
    outer loop
      vertex 44.65 22 8.5
      vertex 44.65 22 9.49
      vertex 44.65 10.75 9.49
    endloop
  endfacet
  facet normal 1 0 0
    outer loop
      vertex 44.65 10.75 8.5
      vertex 44.65 22 8.5
      vertex 44.65 10.75 9.49
    endloop
  endfacet
  facet normal -0.948683 0 0.316228
    outer loop
      vertex 44 10.75 9.8
      vertex 44.9 10.75 12.5
      vertex 44 22 9.8
    endloop
  endfacet
  facet normal -0.948683 0 0.316228
    outer loop
      vertex 44 22 9.8
      vertex 44.9 10.75 12.5
      vertex 44.9 22 12.5
    endloop
  endfacet
  facet normal 0 0 1
    outer loop
      vertex 44.9 22 12.5
      vertex 44.9 10.75 12.5
      vertex 48.9 10.75 12.5
    endloop
  endfacet
  facet normal 0 0 1
    outer loop
      vertex 48.9 22 12.5
      vertex 44.9 22 12.5
      vertex 48.9 10.75 12.5
    endloop
  endfacet
  facet normal 0.948683 0 0.316228
    outer loop
      vertex 48.9 22 12.5
      vertex 48.9 10.75 12.5
      vertex 49.9 10.75 9.5
    endloop
  endfacet
  facet normal 0.948683 0 0.316228
    outer loop
      vertex 49.9 22 9.5
      vertex 48.9 22 12.5
      vertex 49.9 10.75 9.5
    endloop
  endfacet
  facet normal 1 0 0
    outer loop
      vertex 49.9 10.75 9.5
      vertex 49.9 10.75 8.5
      vertex 49.9 22 8.5
    endloop
  endfacet
  facet normal 1 0 0
    outer loop
      vertex 49.9 22 9.5
      vertex 49.9 10.75 9.5
      vertex 49.9 22 8.5
    endloop
  endfacet
  facet normal 0 0 -1
    outer loop
      vertex 49.15 10.75 8.5
      vertex 49.15 22 8.5
      vertex 49.9 10.75 8.5
    endloop
  endfacet
  facet normal 0 0 -1
    outer loop
      vertex 49.9 10.75 8.5
      vertex 49.15 22 8.5
      vertex 49.9 22 8.5
    endloop
  endfacet
  facet normal -1 0 0
    outer loop
      vertex 49.15 22 9.49
      vertex 49.15 22 8.5
      vertex 49.15 10.75 9.49
    endloop
  endfacet
  facet normal -1 0 0
    outer loop
      vertex 49.15 10.75 9.49
      vertex 49.15 22 8.5
      vertex 49.15 10.75 8.5
    endloop
  endfacet
  facet normal -0.913812 0 -0.406138
    outer loop
      vertex 49.15 22 9.49
      vertex 49.15 10.75 9.49
      vertex 48.15 22 11.74
    endloop
  endfacet
  facet normal -0.913812 0 -0.406138
    outer loop
      vertex 48.15 22 11.74
      vertex 49.15 10.75 9.49
      vertex 48.15 10.75 11.74
    endloop
  endfacet
  facet normal 0 0 -1
    outer loop
      vertex 48.15 22 11.74
      vertex 48.15 10.75 11.74
      vertex 45.65 22 11.74
    endloop
  endfacet
  facet normal 0 0 -1
    outer loop
      vertex 45.65 22 11.74
      vertex 48.15 10.75 11.74
      vertex 45.65 10.75 11.74
    endloop
  endfacet
  facet normal 0.913812 0 -0.406138
    outer loop
      vertex 44.65 22 9.49
      vertex 45.65 22 11.74
      vertex 45.65 10.75 11.74
    endloop
  endfacet
  facet normal 0.913812 0 -0.406138
    outer loop
      vertex 44.65 10.75 9.49
      vertex 44.65 22 9.49
      vertex 45.65 10.75 11.74
    endloop
  endfacet
  facet normal 0 1 0
    outer loop
      vertex 44.65 22 9.49
      vertex 44 22 9.8
      vertex 45.65 22 11.74
    endloop
  endfacet
  facet normal 0 1 0
    outer loop
      vertex 48.15 22 11.74
      vertex 48.9 22 12.5
      vertex 49.9 22 9.5
    endloop
  endfacet
  facet normal 0 1 0
    outer loop
      vertex 49.15 22 9.49
      vertex 49.9 22 9.5
      vertex 49.9 22 8.5
    endloop
  endfacet
  facet normal 0 1 0
    outer loop
      vertex 48.15 22 11.74
      vertex 49.9 22 9.5
      vertex 49.15 22 9.49
    endloop
  endfacet
  facet normal 0 1 0
    outer loop
      vertex 45.65 22 11.74
      vertex 48.9 22 12.5
      vertex 48.15 22 11.74
    endloop
  endfacet
  facet normal 0 1 0
    outer loop
      vertex 44.9 22 12.5
      vertex 48.9 22 12.5
      vertex 45.65 22 11.74
    endloop
  endfacet
  facet normal 0 1 0
    outer loop
      vertex 44.9 22 12.5
      vertex 45.65 22 11.74
      vertex 44 22 9.8
    endloop
  endfacet
  facet normal 0 1 0
    outer loop
      vertex 44 22 9.8
      vertex 44.65 22 9.49
      vertex 44.65 22 8.5
    endloop
  endfacet
  facet normal 0 1 0
    outer loop
      vertex 44 22 9.8
      vertex 44.65 22 8.5
      vertex 44 22 8.5
    endloop
  endfacet
  facet normal 0 1 0
    outer loop
      vertex 49.15 22 9.49
      vertex 49.9 22 8.5
      vertex 49.15 22 8.5
    endloop
  endfacet
  facet normal -1 0 0
    outer loop
      vertex 44 30 9.8
      vertex 44 30 8.5
      vertex 44 22.75 9.8
    endloop
  endfacet
  facet normal -1 0 0
    outer loop
      vertex 44 22.75 9.8
      vertex 44 30 8.5
      vertex 44 22.75 8.5
    endloop
  endfacet
  facet normal 0 -1 0
    outer loop
      vertex 44.9 22.75 12.5
      vertex 44.65 22.75 9.49
      vertex 45.65 22.75 11.74
    endloop
  endfacet
  facet normal 0 -1 0
    outer loop
      vertex 49.15 22.75 9.49
      vertex 49.9 22.75 8.5
      vertex 48.15 22.75 11.74
    endloop
  endfacet
  facet normal 0 -1 0
    outer loop
      vertex 48.15 22.75 11.74
      vertex 48.9 22.75 12.5
      vertex 45.65 22.75 11.74
    endloop
  endfacet
  facet normal 0 -1 0
    outer loop
      vertex 44.65 22.75 8.5
      vertex 44.65 22.75 9.49
      vertex 44 22.75 9.8
    endloop
  endfacet
  facet normal 0 -1 0
    outer loop
      vertex 49.15 22.75 8.5
      vertex 49.9 22.75 8.5
      vertex 49.15 22.75 9.49
    endloop
  endfacet
  facet normal 0 -1 0
    outer loop
      vertex 49.9 22.75 8.5
      vertex 49.9 22.75 9.5
      vertex 48.15 22.75 11.74
    endloop
  endfacet
  facet normal 0 -1 0
    outer loop
      vertex 49.9 22.75 9.5
      vertex 48.9 22.75 12.5
      vertex 48.15 22.75 11.74
    endloop
  endfacet
  facet normal 0 -1 0
    outer loop
      vertex 48.9 22.75 12.5
      vertex 44.9 22.75 12.5
      vertex 45.65 22.75 11.74
    endloop
  endfacet
  facet normal 0 -1 0
    outer loop
      vertex 44.9 22.75 12.5
      vertex 44 22.75 9.8
      vertex 44.65 22.75 9.49
    endloop
  endfacet
  facet normal 0 -1 0
    outer loop
      vertex 44 22.75 9.8
      vertex 44 22.75 8.5
      vertex 44.65 22.75 8.5
    endloop
  endfacet
  facet normal 0 0 -1
    outer loop
      vertex 44 22.75 8.5
      vertex 44 30 8.5
      vertex 44.65 22.75 8.5
    endloop
  endfacet
  facet normal 0 0 -1
    outer loop
      vertex 44.65 22.75 8.5
      vertex 44 30 8.5
      vertex 44.65 30 8.5
    endloop
  endfacet
  facet normal -0.948683 0 0.316228
    outer loop
      vertex 44 22.75 9.8
      vertex 44.9 22.75 12.5
      vertex 44 30 9.8
    endloop
  endfacet
  facet normal -0.948683 0 0.316228
    outer loop
      vertex 44 30 9.8
      vertex 44.9 22.75 12.5
      vertex 44.9 30 12.5
    endloop
  endfacet
  facet normal 0 1 0
    outer loop
      vertex 44.65 30 9.49
      vertex 44 30 9.8
      vertex 45.65 30 11.74
    endloop
  endfacet
  facet normal 0 1 0
    outer loop
      vertex 48.15 30 11.74
      vertex 48.9 30 12.5
      vertex 49.9 30 9.5
    endloop
  endfacet
  facet normal 0 1 0
    outer loop
      vertex 49.15 30 9.49
      vertex 49.9 30 9.5
      vertex 49.9 30 8.5
    endloop
  endfacet
  facet normal 0 1 0
    outer loop
      vertex 48.15 30 11.74
      vertex 49.9 30 9.5
      vertex 49.15 30 9.49
    endloop
  endfacet
  facet normal 0 1 0
    outer loop
      vertex 45.65 30 11.74
      vertex 48.9 30 12.5
      vertex 48.15 30 11.74
    endloop
  endfacet
  facet normal 0 1 0
    outer loop
      vertex 44.9 30 12.5
      vertex 48.9 30 12.5
      vertex 45.65 30 11.74
    endloop
  endfacet
  facet normal 0 1 0
    outer loop
      vertex 44.9 30 12.5
      vertex 45.65 30 11.74
      vertex 44 30 9.8
    endloop
  endfacet
  facet normal 0 1 0
    outer loop
      vertex 44 30 9.8
      vertex 44.65 30 9.49
      vertex 44.65 30 8.5
    endloop
  endfacet
  facet normal 0 1 0
    outer loop
      vertex 44 30 9.8
      vertex 44.65 30 8.5
      vertex 44 30 8.5
    endloop
  endfacet
  facet normal 0 1 0
    outer loop
      vertex 49.15 30 9.49
      vertex 49.9 30 8.5
      vertex 49.15 30 8.5
    endloop
  endfacet
  facet normal 1 0 0
    outer loop
      vertex 44.65 30 8.5
      vertex 44.65 30 9.49
      vertex 44.65 22.75 9.49
    endloop
  endfacet
  facet normal 1 0 0
    outer loop
      vertex 44.65 22.75 8.5
      vertex 44.65 30 8.5
      vertex 44.65 22.75 9.49
    endloop
  endfacet
  facet normal 0 0 1
    outer loop
      vertex 44.9 30 12.5
      vertex 44.9 22.75 12.5
      vertex 48.9 22.75 12.5
    endloop
  endfacet
  facet normal 0 0 1
    outer loop
      vertex 48.9 30 12.5
      vertex 44.9 30 12.5
      vertex 48.9 22.75 12.5
    endloop
  endfacet
  facet normal 0.948683 0 0.316228
    outer loop
      vertex 48.9 30 12.5
      vertex 48.9 22.75 12.5
      vertex 49.9 22.75 9.5
    endloop
  endfacet
  facet normal 0.948683 0 0.316228
    outer loop
      vertex 49.9 30 9.5
      vertex 48.9 30 12.5
      vertex 49.9 22.75 9.5
    endloop
  endfacet
  facet normal 1 0 0
    outer loop
      vertex 49.9 22.75 9.5
      vertex 49.9 22.75 8.5
      vertex 49.9 30 8.5
    endloop
  endfacet
  facet normal 1 0 0
    outer loop
      vertex 49.9 30 9.5
      vertex 49.9 22.75 9.5
      vertex 49.9 30 8.5
    endloop
  endfacet
  facet normal 0 0 -1
    outer loop
      vertex 49.15 22.75 8.5
      vertex 49.15 30 8.5
      vertex 49.9 22.75 8.5
    endloop
  endfacet
  facet normal 0 0 -1
    outer loop
      vertex 49.9 22.75 8.5
      vertex 49.15 30 8.5
      vertex 49.9 30 8.5
    endloop
  endfacet
  facet normal -1 0 0
    outer loop
      vertex 49.15 30 9.49
      vertex 49.15 30 8.5
      vertex 49.15 22.75 9.49
    endloop
  endfacet
  facet normal -1 0 0
    outer loop
      vertex 49.15 22.75 9.49
      vertex 49.15 30 8.5
      vertex 49.15 22.75 8.5
    endloop
  endfacet
  facet normal -0.913812 0 -0.406138
    outer loop
      vertex 49.15 30 9.49
      vertex 49.15 22.75 9.49
      vertex 48.15 30 11.74
    endloop
  endfacet
  facet normal -0.913812 0 -0.406138
    outer loop
      vertex 48.15 30 11.74
      vertex 49.15 22.75 9.49
      vertex 48.15 22.75 11.74
    endloop
  endfacet
  facet normal 0 0 -1
    outer loop
      vertex 48.15 30 11.74
      vertex 48.15 22.75 11.74
      vertex 45.65 30 11.74
    endloop
  endfacet
  facet normal 0 0 -1
    outer loop
      vertex 45.65 30 11.74
      vertex 48.15 22.75 11.74
      vertex 45.65 22.75 11.74
    endloop
  endfacet
  facet normal 0.913812 0 -0.406138
    outer loop
      vertex 44.65 30 9.49
      vertex 45.65 30 11.74
      vertex 45.65 22.75 11.74
    endloop
  endfacet
  facet normal 0.913812 0 -0.406138
    outer loop
      vertex 44.65 22.75 9.49
      vertex 44.65 30 9.49
      vertex 45.65 22.75 11.74
    endloop
  endfacet
  facet normal 0 -1 0
    outer loop
      vertex 44.9 30.75 12.5
      vertex 44.65 30.75 9.49
      vertex 45.65 30.75 11.74
    endloop
  endfacet
  facet normal 0 -1 0
    outer loop
      vertex 49.15 30.75 9.49
      vertex 49.9 30.75 8.5
      vertex 48.15 30.75 11.74
    endloop
  endfacet
  facet normal 0 -1 0
    outer loop
      vertex 48.15 30.75 11.74
      vertex 48.9 30.75 12.5
      vertex 45.65 30.75 11.74
    endloop
  endfacet
  facet normal 0 -1 0
    outer loop
      vertex 44.65 30.75 8.5
      vertex 44.65 30.75 9.49
      vertex 44 30.75 9.8
    endloop
  endfacet
  facet normal 0 -1 0
    outer loop
      vertex 49.15 30.75 8.5
      vertex 49.9 30.75 8.5
      vertex 49.15 30.75 9.49
    endloop
  endfacet
  facet normal 0 -1 0
    outer loop
      vertex 49.9 30.75 8.5
      vertex 49.9 30.75 9.5
      vertex 48.15 30.75 11.74
    endloop
  endfacet
  facet normal 0 -1 0
    outer loop
      vertex 49.9 30.75 9.5
      vertex 48.9 30.75 12.5
      vertex 48.15 30.75 11.74
    endloop
  endfacet
  facet normal 0 -1 0
    outer loop
      vertex 48.9 30.75 12.5
      vertex 44.9 30.75 12.5
      vertex 45.65 30.75 11.74
    endloop
  endfacet
  facet normal 0 -1 0
    outer loop
      vertex 44.9 30.75 12.5
      vertex 44 30.75 9.8
      vertex 44.65 30.75 9.49
    endloop
  endfacet
  facet normal 0 -1 0
    outer loop
      vertex 44 30.75 9.8
      vertex 44 30.75 8.5
      vertex 44.65 30.75 8.5
    endloop
  endfacet
  facet normal 0 0 -1
    outer loop
      vertex 44 30.75 8.5
      vertex 44 41 8.5
      vertex 44.65 30.75 8.5
    endloop
  endfacet
  facet normal 0 0 -1
    outer loop
      vertex 44.65 30.75 8.5
      vertex 44 41 8.5
      vertex 44.65 41 8.5
    endloop
  endfacet
  facet normal -1 0 0
    outer loop
      vertex 44 41 9.8
      vertex 44 41 8.5
      vertex 44 30.75 9.8
    endloop
  endfacet
  facet normal -1 0 0
    outer loop
      vertex 44 30.75 9.8
      vertex 44 41 8.5
      vertex 44 30.75 8.5
    endloop
  endfacet
  facet normal 1 0 0
    outer loop
      vertex 44.65 41 8.5
      vertex 44.65 41 9.49
      vertex 44.65 30.75 9.49
    endloop
  endfacet
  facet normal 1 0 0
    outer loop
      vertex 44.65 30.75 8.5
      vertex 44.65 41 8.5
      vertex 44.65 30.75 9.49
    endloop
  endfacet
  facet normal -0.948683 0 0.316228
    outer loop
      vertex 44 30.75 9.8
      vertex 44.9 30.75 12.5
      vertex 44 41 9.8
    endloop
  endfacet
  facet normal -0.948683 0 0.316228
    outer loop
      vertex 44 41 9.8
      vertex 44.9 30.75 12.5
      vertex 44.9 41 12.5
    endloop
  endfacet
  facet normal 0 0 1
    outer loop
      vertex 44.9 41 12.5
      vertex 44.9 30.75 12.5
      vertex 48.9 30.75 12.5
    endloop
  endfacet
  facet normal 0 0 1
    outer loop
      vertex 48.9 41 12.5
      vertex 44.9 41 12.5
      vertex 48.9 30.75 12.5
    endloop
  endfacet
  facet normal 0.948683 0 0.316228
    outer loop
      vertex 48.9 41 12.5
      vertex 48.9 30.75 12.5
      vertex 49.9 30.75 9.5
    endloop
  endfacet
  facet normal 0.948683 0 0.316228
    outer loop
      vertex 49.9 41 9.5
      vertex 48.9 41 12.5
      vertex 49.9 30.75 9.5
    endloop
  endfacet
  facet normal 1 0 0
    outer loop
      vertex 49.9 30.75 9.5
      vertex 49.9 30.75 8.5
      vertex 49.9 41 8.5
    endloop
  endfacet
  facet normal 1 0 0
    outer loop
      vertex 49.9 41 9.5
      vertex 49.9 30.75 9.5
      vertex 49.9 41 8.5
    endloop
  endfacet
  facet normal 0 0 -1
    outer loop
      vertex 49.15 30.75 8.5
      vertex 49.15 41 8.5
      vertex 49.9 30.75 8.5
    endloop
  endfacet
  facet normal 0 0 -1
    outer loop
      vertex 49.9 30.75 8.5
      vertex 49.15 41 8.5
      vertex 49.9 41 8.5
    endloop
  endfacet
  facet normal -1 0 0
    outer loop
      vertex 49.15 41 9.49
      vertex 49.15 41 8.5
      vertex 49.15 30.75 9.49
    endloop
  endfacet
  facet normal -1 0 0
    outer loop
      vertex 49.15 30.75 9.49
      vertex 49.15 41 8.5
      vertex 49.15 30.75 8.5
    endloop
  endfacet
  facet normal -0.913812 0 -0.406138
    outer loop
      vertex 49.15 41 9.49
      vertex 49.15 30.75 9.49
      vertex 48.15 41 11.74
    endloop
  endfacet
  facet normal -0.913812 0 -0.406138
    outer loop
      vertex 48.15 41 11.74
      vertex 49.15 30.75 9.49
      vertex 48.15 30.75 11.74
    endloop
  endfacet
  facet normal 0 0 -1
    outer loop
      vertex 48.15 41 11.74
      vertex 48.15 30.75 11.74
      vertex 45.65 41 11.74
    endloop
  endfacet
  facet normal 0 0 -1
    outer loop
      vertex 45.65 41 11.74
      vertex 48.15 30.75 11.74
      vertex 45.65 30.75 11.74
    endloop
  endfacet
  facet normal 0.913812 0 -0.406138
    outer loop
      vertex 44.65 41 9.49
      vertex 45.65 41 11.74
      vertex 45.65 30.75 11.74
    endloop
  endfacet
  facet normal 0.913812 0 -0.406138
    outer loop
      vertex 44.65 30.75 9.49
      vertex 44.65 41 9.49
      vertex 45.65 30.75 11.74
    endloop
  endfacet
  facet normal 0 1 0
    outer loop
      vertex 44.65 41 9.49
      vertex 44 41 9.8
      vertex 45.65 41 11.74
    endloop
  endfacet
  facet normal 0 1 0
    outer loop
      vertex 48.15 41 11.74
      vertex 48.9 41 12.5
      vertex 49.9 41 9.5
    endloop
  endfacet
  facet normal 0 1 0
    outer loop
      vertex 49.15 41 9.49
      vertex 49.9 41 9.5
      vertex 49.9 41 8.5
    endloop
  endfacet
  facet normal 0 1 0
    outer loop
      vertex 48.15 41 11.74
      vertex 49.9 41 9.5
      vertex 49.15 41 9.49
    endloop
  endfacet
  facet normal 0 1 0
    outer loop
      vertex 45.65 41 11.74
      vertex 48.9 41 12.5
      vertex 48.15 41 11.74
    endloop
  endfacet
  facet normal 0 1 0
    outer loop
      vertex 44.9 41 12.5
      vertex 48.9 41 12.5
      vertex 45.65 41 11.74
    endloop
  endfacet
  facet normal 0 1 0
    outer loop
      vertex 44.9 41 12.5
      vertex 45.65 41 11.74
      vertex 44 41 9.8
    endloop
  endfacet
  facet normal 0 1 0
    outer loop
      vertex 44 41 9.8
      vertex 44.65 41 9.49
      vertex 44.65 41 8.5
    endloop
  endfacet
  facet normal 0 1 0
    outer loop
      vertex 44 41 9.8
      vertex 44.65 41 8.5
      vertex 44 41 8.5
    endloop
  endfacet
  facet normal 0 1 0
    outer loop
      vertex 49.15 41 9.49
      vertex 49.9 41 8.5
      vertex 49.15 41 8.5
    endloop
  endfacet
endsolid OpenSCAD_Model
