solid OpenSCAD_Model
  facet normal 1 -0 0
    outer loop
      vertex 2.4 2.4 2.2
      vertex 2.4 22.6 0
      vertex 2.4 22.6 2.2
    endloop
  endfacet
  facet normal 1 0 0
    outer loop
      vertex 2.4 22.6 0
      vertex 2.4 2.4 2.2
      vertex 2.4 2.4 0
    endloop
  endfacet
  facet normal 0 0 -1
    outer loop
      vertex 22.6 2.4 2.2
      vertex 21.2 3.8 2.2
      vertex 22.6 22.6 2.2
    endloop
  endfacet
  facet normal 0 0 -1
    outer loop
      vertex 22.6 2.4 2.2
      vertex 3.8 3.8 2.2
      vertex 21.2 3.8 2.2
    endloop
  endfacet
  facet normal -0 0 -1
    outer loop
      vertex 3.8 3.8 2.2
      vertex 2.4 2.4 2.2
      vertex 3.8 21.2 2.2
    endloop
  endfacet
  facet normal 0 0 -1
    outer loop
      vertex 2.4 2.4 2.2
      vertex 3.8 3.8 2.2
      vertex 22.6 2.4 2.2
    endloop
  endfacet
  facet normal 0 0 -1
    outer loop
      vertex 21.2 21.2 2.2
      vertex 22.6 22.6 2.2
      vertex 21.2 3.8 2.2
    endloop
  endfacet
  facet normal 0 0 -1
    outer loop
      vertex 3.8 21.2 2.2
      vertex 22.6 22.6 2.2
      vertex 21.2 21.2 2.2
    endloop
  endfacet
  facet normal 0 0 -1
    outer loop
      vertex 3.8 21.2 2.2
      vertex 2.4 22.6 2.2
      vertex 22.6 22.6 2.2
    endloop
  endfacet
  facet normal 0 0 -1
    outer loop
      vertex 2.4 22.6 2.2
      vertex 3.8 21.2 2.2
      vertex 2.4 2.4 2.2
    endloop
  endfacet
  facet normal -1 0 0
    outer loop
      vertex 22.6 2.4 0
      vertex 22.6 22.6 2.2
      vertex 22.6 22.6 0
    endloop
  endfacet
  facet normal -1 -0 0
    outer loop
      vertex 22.6 22.6 2.2
      vertex 22.6 2.4 0
      vertex 22.6 2.4 2.2
    endloop
  endfacet
  facet normal 0 -1 0
    outer loop
      vertex 2.4 22.6 0
      vertex 22.6 22.6 2.2
      vertex 2.4 22.6 2.2
    endloop
  endfacet
  facet normal 0 -1 -0
    outer loop
      vertex 22.6 22.6 2.2
      vertex 2.4 22.6 0
      vertex 22.6 22.6 0
    endloop
  endfacet
  facet normal 0 1 -0
    outer loop
      vertex 22.6 2.4 0
      vertex 2.4 2.4 2.2
      vertex 22.6 2.4 2.2
    endloop
  endfacet
  facet normal 0 1 0
    outer loop
      vertex 2.4 2.4 2.2
      vertex 22.6 2.4 0
      vertex 2.4 2.4 0
    endloop
  endfacet
  facet normal -1 0 0
    outer loop
      vertex 3.8 3.8 0
      vertex 3.8 21.2 2.2
      vertex 3.8 21.2 0
    endloop
  endfacet
  facet normal -1 -0 0
    outer loop
      vertex 3.8 21.2 2.2
      vertex 3.8 3.8 0
      vertex 3.8 3.8 2.2
    endloop
  endfacet
  facet normal 1 -0 0
    outer loop
      vertex 21.2 3.8 2.2
      vertex 21.2 21.2 0
      vertex 21.2 21.2 2.2
    endloop
  endfacet
  facet normal 1 0 0
    outer loop
      vertex 21.2 21.2 0
      vertex 21.2 3.8 2.2
      vertex 21.2 3.8 0
    endloop
  endfacet
  facet normal 0 1 -0
    outer loop
      vertex 21.2 21.2 0
      vertex 3.8 21.2 2.2
      vertex 21.2 21.2 2.2
    endloop
  endfacet
  facet normal 0 1 0
    outer loop
      vertex 3.8 21.2 2.2
      vertex 21.2 21.2 0
      vertex 3.8 21.2 0
    endloop
  endfacet
  facet normal 0 -1 0
    outer loop
      vertex 3.8 3.8 0
      vertex 21.2 3.8 2.2
      vertex 3.8 3.8 2.2
    endloop
  endfacet
  facet normal 0 -1 -0
    outer loop
      vertex 21.2 3.8 2.2
      vertex 3.8 3.8 0
      vertex 21.2 3.8 0
    endloop
  endfacet
  facet normal -0.998027 -0.0627929 0
    outer loop
      vertex 15.0312 12.5 0
      vertex 15.0113 12.8172 1.7875
      vertex 15.0113 12.8172 0
    endloop
  endfacet
  facet normal -0.998027 -0.0627929 0
    outer loop
      vertex 15.0113 12.8172 1.7875
      vertex 15.0312 12.5 0
      vertex 15.0312 12.5 1.7875
    endloop
  endfacet
  facet normal 0 -1 0
    outer loop
      vertex 12.3411 15.0263 0
      vertex 12.6589 15.0263 1.7875
      vertex 12.3411 15.0263 1.7875
    endloop
  endfacet
  facet normal 0 -1 -0
    outer loop
      vertex 12.6589 15.0263 1.7875
      vertex 12.3411 15.0263 0
      vertex 12.6589 15.0263 0
    endloop
  endfacet
  facet normal 0 1 -0
    outer loop
      vertex 12.6589 9.97374 0
      vertex 12.3411 9.97374 1.7875
      vertex 12.6589 9.97374 1.7875
    endloop
  endfacet
  facet normal 0 1 0
    outer loop
      vertex 12.3411 9.97374 1.7875
      vertex 12.6589 9.97374 0
      vertex 12.3411 9.97374 0
    endloop
  endfacet
  facet normal -0.684546 -0.728969 0
    outer loop
      vertex 14.1135 14.4504 0
      vertex 14.3452 14.2328 1.7875
      vertex 14.1135 14.4504 1.7875
    endloop
  endfacet
  facet normal -0.684546 -0.728969 -0
    outer loop
      vertex 14.3452 14.2328 1.7875
      vertex 14.1135 14.4504 0
      vertex 14.3452 14.2328 0
    endloop
  endfacet
  facet normal 0.770513 -0.637424 0
    outer loop
      vertex 10.4522 13.9878 1.7875
      vertex 10.6548 14.2328 0
      vertex 10.6548 14.2328 1.7875
    endloop
  endfacet
  facet normal 0.770513 -0.637424 0
    outer loop
      vertex 10.6548 14.2328 0
      vertex 10.4522 13.9878 1.7875
      vertex 10.4522 13.9878 0
    endloop
  endfacet
  facet normal 0.368123 -0.929777 0
    outer loop
      vertex 11.4222 14.7903 0
      vertex 11.7178 14.9074 1.7875
      vertex 11.4222 14.7903 1.7875
    endloop
  endfacet
  facet normal 0.368123 -0.929777 0
    outer loop
      vertex 11.7178 14.9074 1.7875
      vertex 11.4222 14.7903 0
      vertex 11.7178 14.9074 0
    endloop
  endfacet
  facet normal 0.904827 0.42578 0
    outer loop
      vertex 10.2818 11.2806 1.7875
      vertex 10.1465 11.5682 0
      vertex 10.1465 11.5682 1.7875
    endloop
  endfacet
  facet normal 0.904827 0.42578 0
    outer loop
      vertex 10.1465 11.5682 0
      vertex 10.2818 11.2806 1.7875
      vertex 10.2818 11.2806 0
    endloop
  endfacet
  facet normal -0.904827 -0.42578 0
    outer loop
      vertex 14.8535 13.4318 0
      vertex 14.7182 13.7194 1.7875
      vertex 14.7182 13.7194 0
    endloop
  endfacet
  facet normal -0.904827 -0.42578 0
    outer loop
      vertex 14.7182 13.7194 1.7875
      vertex 14.8535 13.4318 0
      vertex 14.8535 13.4318 1.7875
    endloop
  endfacet
  facet normal -0.982288 -0.18738 0
    outer loop
      vertex 15.0113 12.8172 0
      vertex 14.9517 13.1295 1.7875
      vertex 14.9517 13.1295 0
    endloop
  endfacet
  facet normal -0.982288 -0.18738 0
    outer loop
      vertex 14.9517 13.1295 1.7875
      vertex 15.0113 12.8172 0
      vertex 15.0113 12.8172 1.7875
    endloop
  endfacet
  facet normal -0.368123 -0.929777 0
    outer loop
      vertex 13.2822 14.9074 0
      vertex 13.5778 14.7903 1.7875
      vertex 13.2822 14.9074 1.7875
    endloop
  endfacet
  facet normal -0.368123 -0.929777 -0
    outer loop
      vertex 13.5778 14.7903 1.7875
      vertex 13.2822 14.9074 0
      vertex 13.5778 14.7903 0
    endloop
  endfacet
  facet normal -0.481755 -0.876306 0
    outer loop
      vertex 13.5778 14.7903 0
      vertex 13.8563 14.6372 1.7875
      vertex 13.5778 14.7903 1.7875
    endloop
  endfacet
  facet normal -0.481755 -0.876306 -0
    outer loop
      vertex 13.8563 14.6372 1.7875
      vertex 13.5778 14.7903 0
      vertex 13.8563 14.6372 0
    endloop
  endfacet
  facet normal 0.951057 -0.309017 0
    outer loop
      vertex 10.0483 13.1295 1.7875
      vertex 10.1465 13.4318 0
      vertex 10.1465 13.4318 1.7875
    endloop
  endfacet
  facet normal 0.951057 -0.309017 0
    outer loop
      vertex 10.1465 13.4318 0
      vertex 10.0483 13.1295 1.7875
      vertex 10.0483 13.1295 0
    endloop
  endfacet
  facet normal 0 0 -1
    outer loop
      vertex 15.0113 12.1827 1.7875
      vertex 15.0113 12.8172 1.7875
      vertex 15.0312 12.5 1.7875
    endloop
  endfacet
  facet normal 0 0 -1
    outer loop
      vertex 14.9517 11.8705 1.7875
      vertex 15.0113 12.8172 1.7875
      vertex 15.0113 12.1827 1.7875
    endloop
  endfacet
  facet normal 0 0 -1
    outer loop
      vertex 14.9517 11.8705 1.7875
      vertex 14.9517 13.1295 1.7875
      vertex 15.0113 12.8172 1.7875
    endloop
  endfacet
  facet normal 0 0 -1
    outer loop
      vertex 14.8535 11.5682 1.7875
      vertex 14.9517 13.1295 1.7875
      vertex 14.9517 11.8705 1.7875
    endloop
  endfacet
  facet normal 0 0 -1
    outer loop
      vertex 14.8535 11.5682 1.7875
      vertex 14.8535 13.4318 1.7875
      vertex 14.9517 13.1295 1.7875
    endloop
  endfacet
  facet normal 0 0 -1
    outer loop
      vertex 14.7182 11.2806 1.7875
      vertex 14.8535 13.4318 1.7875
      vertex 14.8535 11.5682 1.7875
    endloop
  endfacet
  facet normal 0 0 -1
    outer loop
      vertex 14.7182 11.2806 1.7875
      vertex 14.7182 13.7194 1.7875
      vertex 14.8535 13.4318 1.7875
    endloop
  endfacet
  facet normal 0 0 -1
    outer loop
      vertex 14.5478 11.0122 1.7875
      vertex 14.7182 13.7194 1.7875
      vertex 14.7182 11.2806 1.7875
    endloop
  endfacet
  facet normal 0 0 -1
    outer loop
      vertex 14.5478 11.0122 1.7875
      vertex 14.5478 13.9878 1.7875
      vertex 14.7182 13.7194 1.7875
    endloop
  endfacet
  facet normal 0 0 -1
    outer loop
      vertex 14.3452 10.7672 1.7875
      vertex 14.5478 13.9878 1.7875
      vertex 14.5478 11.0122 1.7875
    endloop
  endfacet
  facet normal 0 0 -1
    outer loop
      vertex 14.3452 10.7672 1.7875
      vertex 14.3452 14.2328 1.7875
      vertex 14.5478 13.9878 1.7875
    endloop
  endfacet
  facet normal 0 0 -1
    outer loop
      vertex 14.1135 10.5496 1.7875
      vertex 14.3452 14.2328 1.7875
      vertex 14.3452 10.7672 1.7875
    endloop
  endfacet
  facet normal 0 0 -1
    outer loop
      vertex 14.1135 10.5496 1.7875
      vertex 14.1135 14.4504 1.7875
      vertex 14.3452 14.2328 1.7875
    endloop
  endfacet
  facet normal 0 0 -1
    outer loop
      vertex 13.8563 10.3628 1.7875
      vertex 14.1135 14.4504 1.7875
      vertex 14.1135 10.5496 1.7875
    endloop
  endfacet
  facet normal 0 0 -1
    outer loop
      vertex 13.8563 10.3628 1.7875
      vertex 13.8563 14.6372 1.7875
      vertex 14.1135 14.4504 1.7875
    endloop
  endfacet
  facet normal 0 0 -1
    outer loop
      vertex 13.5778 10.2097 1.7875
      vertex 13.8563 14.6372 1.7875
      vertex 13.8563 10.3628 1.7875
    endloop
  endfacet
  facet normal 0 0 -1
    outer loop
      vertex 13.5778 10.2097 1.7875
      vertex 13.5778 14.7903 1.7875
      vertex 13.8563 14.6372 1.7875
    endloop
  endfacet
  facet normal 0 0 -1
    outer loop
      vertex 13.2822 10.0926 1.7875
      vertex 13.5778 14.7903 1.7875
      vertex 13.5778 10.2097 1.7875
    endloop
  endfacet
  facet normal 0 0 -1
    outer loop
      vertex 13.2822 10.0926 1.7875
      vertex 13.2822 14.9074 1.7875
      vertex 13.5778 14.7903 1.7875
    endloop
  endfacet
  facet normal 0 0 -1
    outer loop
      vertex 12.9743 10.0136 1.7875
      vertex 13.2822 14.9074 1.7875
      vertex 13.2822 10.0926 1.7875
    endloop
  endfacet
  facet normal 0 0 -1
    outer loop
      vertex 12.9743 10.0136 1.7875
      vertex 12.9743 14.9864 1.7875
      vertex 13.2822 14.9074 1.7875
    endloop
  endfacet
  facet normal 0 0 -1
    outer loop
      vertex 12.6589 9.97374 1.7875
      vertex 12.9743 14.9864 1.7875
      vertex 12.9743 10.0136 1.7875
    endloop
  endfacet
  facet normal 0 0 -1
    outer loop
      vertex 12.6589 9.97374 1.7875
      vertex 12.6589 15.0263 1.7875
      vertex 12.9743 14.9864 1.7875
    endloop
  endfacet
  facet normal 0 0 -1
    outer loop
      vertex 12.3411 9.97374 1.7875
      vertex 12.6589 15.0263 1.7875
      vertex 12.6589 9.97374 1.7875
    endloop
  endfacet
  facet normal 0 0 -1
    outer loop
      vertex 12.3411 9.97374 1.7875
      vertex 12.3411 15.0263 1.7875
      vertex 12.6589 15.0263 1.7875
    endloop
  endfacet
  facet normal 0 0 -1
    outer loop
      vertex 12.0257 10.0136 1.7875
      vertex 12.3411 15.0263 1.7875
      vertex 12.3411 9.97374 1.7875
    endloop
  endfacet
  facet normal 0 0 -1
    outer loop
      vertex 12.0257 10.0136 1.7875
      vertex 12.0257 14.9864 1.7875
      vertex 12.3411 15.0263 1.7875
    endloop
  endfacet
  facet normal 0 0 -1
    outer loop
      vertex 11.7178 10.0926 1.7875
      vertex 12.0257 14.9864 1.7875
      vertex 12.0257 10.0136 1.7875
    endloop
  endfacet
  facet normal 0 0 -1
    outer loop
      vertex 11.7178 10.0926 1.7875
      vertex 11.7178 14.9074 1.7875
      vertex 12.0257 14.9864 1.7875
    endloop
  endfacet
  facet normal 0 0 -1
    outer loop
      vertex 11.4222 10.2097 1.7875
      vertex 11.7178 14.9074 1.7875
      vertex 11.7178 10.0926 1.7875
    endloop
  endfacet
  facet normal 0 0 -1
    outer loop
      vertex 11.4222 10.2097 1.7875
      vertex 11.4222 14.7903 1.7875
      vertex 11.7178 14.9074 1.7875
    endloop
  endfacet
  facet normal 0 0 -1
    outer loop
      vertex 11.1437 10.3628 1.7875
      vertex 11.4222 14.7903 1.7875
      vertex 11.4222 10.2097 1.7875
    endloop
  endfacet
  facet normal 0 0 -1
    outer loop
      vertex 11.1437 10.3628 1.7875
      vertex 11.1437 14.6372 1.7875
      vertex 11.4222 14.7903 1.7875
    endloop
  endfacet
  facet normal 0 0 -1
    outer loop
      vertex 10.8865 10.5496 1.7875
      vertex 11.1437 14.6372 1.7875
      vertex 11.1437 10.3628 1.7875
    endloop
  endfacet
  facet normal 0 0 -1
    outer loop
      vertex 10.8865 10.5496 1.7875
      vertex 10.8865 14.4504 1.7875
      vertex 11.1437 14.6372 1.7875
    endloop
  endfacet
  facet normal 0 0 -1
    outer loop
      vertex 10.6548 10.7672 1.7875
      vertex 10.8865 14.4504 1.7875
      vertex 10.8865 10.5496 1.7875
    endloop
  endfacet
  facet normal 0 0 -1
    outer loop
      vertex 10.6548 10.7672 1.7875
      vertex 10.6548 14.2328 1.7875
      vertex 10.8865 14.4504 1.7875
    endloop
  endfacet
  facet normal 0 0 -1
    outer loop
      vertex 10.4522 11.0122 1.7875
      vertex 10.6548 14.2328 1.7875
      vertex 10.6548 10.7672 1.7875
    endloop
  endfacet
  facet normal 0 0 -1
    outer loop
      vertex 10.4522 11.0122 1.7875
      vertex 10.4522 13.9878 1.7875
      vertex 10.6548 14.2328 1.7875
    endloop
  endfacet
  facet normal 0 0 -1
    outer loop
      vertex 10.2818 11.2806 1.7875
      vertex 10.4522 13.9878 1.7875
      vertex 10.4522 11.0122 1.7875
    endloop
  endfacet
  facet normal 0 0 -1
    outer loop
      vertex 10.2818 11.2806 1.7875
      vertex 10.2818 13.7194 1.7875
      vertex 10.4522 13.9878 1.7875
    endloop
  endfacet
  facet normal 0 0 -1
    outer loop
      vertex 10.1465 11.5682 1.7875
      vertex 10.2818 13.7194 1.7875
      vertex 10.2818 11.2806 1.7875
    endloop
  endfacet
  facet normal 0 0 -1
    outer loop
      vertex 10.1465 11.5682 1.7875
      vertex 10.1465 13.4318 1.7875
      vertex 10.2818 13.7194 1.7875
    endloop
  endfacet
  facet normal 0 0 -1
    outer loop
      vertex 10.0483 11.8705 1.7875
      vertex 10.1465 13.4318 1.7875
      vertex 10.1465 11.5682 1.7875
    endloop
  endfacet
  facet normal 0 0 -1
    outer loop
      vertex 10.0483 11.8705 1.7875
      vertex 10.0483 13.1295 1.7875
      vertex 10.1465 13.4318 1.7875
    endloop
  endfacet
  facet normal 0 0 -1
    outer loop
      vertex 9.98871 12.1827 1.7875
      vertex 10.0483 13.1295 1.7875
      vertex 10.0483 11.8705 1.7875
    endloop
  endfacet
  facet normal 0 0 -1
    outer loop
      vertex 9.98871 12.1827 1.7875
      vertex 9.98871 12.8172 1.7875
      vertex 10.0483 13.1295 1.7875
    endloop
  endfacet
  facet normal 0 -0 -1
    outer loop
      vertex 9.98871 12.8172 1.7875
      vertex 9.98871 12.1827 1.7875
      vertex 9.96875 12.5 1.7875
    endloop
  endfacet
  facet normal 0.125334 -0.992115 0
    outer loop
      vertex 12.0257 14.9864 0
      vertex 12.3411 15.0263 1.7875
      vertex 12.0257 14.9864 1.7875
    endloop
  endfacet
  facet normal 0.125334 -0.992115 0
    outer loop
      vertex 12.3411 15.0263 1.7875
      vertex 12.0257 14.9864 0
      vertex 12.3411 15.0263 0
    endloop
  endfacet
  facet normal -0.125334 0.992115 0
    outer loop
      vertex 12.9743 10.0136 0
      vertex 12.6589 9.97374 1.7875
      vertex 12.9743 10.0136 1.7875
    endloop
  endfacet
  facet normal -0.125334 0.992115 0
    outer loop
      vertex 12.6589 9.97374 1.7875
      vertex 12.9743 10.0136 0
      vertex 12.6589 9.97374 0
    endloop
  endfacet
  facet normal 0.982288 0.18738 0
    outer loop
      vertex 10.0483 11.8705 1.7875
      vertex 9.98871 12.1827 0
      vertex 9.98871 12.1827 1.7875
    endloop
  endfacet
  facet normal 0.982288 0.18738 0
    outer loop
      vertex 9.98871 12.1827 0
      vertex 10.0483 11.8705 1.7875
      vertex 10.0483 11.8705 0
    endloop
  endfacet
  facet normal -0.951057 -0.309017 0
    outer loop
      vertex 14.9517 13.1295 0
      vertex 14.8535 13.4318 1.7875
      vertex 14.8535 13.4318 0
    endloop
  endfacet
  facet normal -0.951057 -0.309017 0
    outer loop
      vertex 14.8535 13.4318 1.7875
      vertex 14.9517 13.1295 0
      vertex 14.9517 13.1295 1.7875
    endloop
  endfacet
  facet normal -0.770513 -0.637424 0
    outer loop
      vertex 14.5478 13.9878 0
      vertex 14.3452 14.2328 1.7875
      vertex 14.3452 14.2328 0
    endloop
  endfacet
  facet normal -0.770513 -0.637424 0
    outer loop
      vertex 14.3452 14.2328 1.7875
      vertex 14.5478 13.9878 0
      vertex 14.5478 13.9878 1.7875
    endloop
  endfacet
  facet normal -0.844328 -0.535827 0
    outer loop
      vertex 14.7182 13.7194 0
      vertex 14.5478 13.9878 1.7875
      vertex 14.5478 13.9878 0
    endloop
  endfacet
  facet normal -0.844328 -0.535827 0
    outer loop
      vertex 14.5478 13.9878 1.7875
      vertex 14.7182 13.7194 0
      vertex 14.7182 13.7194 1.7875
    endloop
  endfacet
  facet normal -0.24869 -0.968583 0
    outer loop
      vertex 12.9743 14.9864 0
      vertex 13.2822 14.9074 1.7875
      vertex 12.9743 14.9864 1.7875
    endloop
  endfacet
  facet normal -0.24869 -0.968583 -0
    outer loop
      vertex 13.2822 14.9074 1.7875
      vertex 12.9743 14.9864 0
      vertex 13.2822 14.9074 0
    endloop
  endfacet
  facet normal -0.125334 -0.992115 0
    outer loop
      vertex 12.6589 15.0263 0
      vertex 12.9743 14.9864 1.7875
      vertex 12.6589 15.0263 1.7875
    endloop
  endfacet
  facet normal -0.125334 -0.992115 -0
    outer loop
      vertex 12.9743 14.9864 1.7875
      vertex 12.6589 15.0263 0
      vertex 12.9743 14.9864 0
    endloop
  endfacet
  facet normal -0.587784 -0.809018 0
    outer loop
      vertex 13.8563 14.6372 0
      vertex 14.1135 14.4504 1.7875
      vertex 13.8563 14.6372 1.7875
    endloop
  endfacet
  facet normal -0.587784 -0.809018 -0
    outer loop
      vertex 14.1135 14.4504 1.7875
      vertex 13.8563 14.6372 0
      vertex 14.1135 14.4504 0
    endloop
  endfacet
  facet normal 0.904827 -0.42578 0
    outer loop
      vertex 10.1465 13.4318 1.7875
      vertex 10.2818 13.7194 0
      vertex 10.2818 13.7194 1.7875
    endloop
  endfacet
  facet normal 0.904827 -0.42578 0
    outer loop
      vertex 10.2818 13.7194 0
      vertex 10.1465 13.4318 1.7875
      vertex 10.1465 13.4318 0
    endloop
  endfacet
  facet normal 0.844328 -0.535827 0
    outer loop
      vertex 10.2818 13.7194 1.7875
      vertex 10.4522 13.9878 0
      vertex 10.4522 13.9878 1.7875
    endloop
  endfacet
  facet normal 0.844328 -0.535827 0
    outer loop
      vertex 10.4522 13.9878 0
      vertex 10.2818 13.7194 1.7875
      vertex 10.2818 13.7194 0
    endloop
  endfacet
  facet normal 0.982288 -0.18738 0
    outer loop
      vertex 9.98871 12.8172 1.7875
      vertex 10.0483 13.1295 0
      vertex 10.0483 13.1295 1.7875
    endloop
  endfacet
  facet normal 0.982288 -0.18738 0
    outer loop
      vertex 10.0483 13.1295 0
      vertex 9.98871 12.8172 1.7875
      vertex 9.98871 12.8172 0
    endloop
  endfacet
  facet normal 0.998027 -0.0627899 0
    outer loop
      vertex 9.96875 12.5 1.7875
      vertex 9.98871 12.8172 0
      vertex 9.98871 12.8172 1.7875
    endloop
  endfacet
  facet normal 0.998027 -0.0627899 0
    outer loop
      vertex 9.98871 12.8172 0
      vertex 9.96875 12.5 1.7875
      vertex 9.96875 12.5 0
    endloop
  endfacet
  facet normal 0.998027 0.0627898 0
    outer loop
      vertex 9.98871 12.1827 1.7875
      vertex 9.96875 12.5 0
      vertex 9.96875 12.5 1.7875
    endloop
  endfacet
  facet normal 0.998027 0.0627898 0
    outer loop
      vertex 9.96875 12.5 0
      vertex 9.98871 12.1827 1.7875
      vertex 9.98871 12.1827 0
    endloop
  endfacet
  facet normal 0.587784 -0.809018 0
    outer loop
      vertex 10.8865 14.4504 0
      vertex 11.1437 14.6372 1.7875
      vertex 10.8865 14.4504 1.7875
    endloop
  endfacet
  facet normal 0.587784 -0.809018 0
    outer loop
      vertex 11.1437 14.6372 1.7875
      vertex 10.8865 14.4504 0
      vertex 11.1437 14.6372 0
    endloop
  endfacet
  facet normal 0.481755 -0.876306 0
    outer loop
      vertex 11.1437 14.6372 0
      vertex 11.4222 14.7903 1.7875
      vertex 11.1437 14.6372 1.7875
    endloop
  endfacet
  facet normal 0.481755 -0.876306 0
    outer loop
      vertex 11.4222 14.7903 1.7875
      vertex 11.1437 14.6372 0
      vertex 11.4222 14.7903 0
    endloop
  endfacet
  facet normal 0.684546 -0.728969 0
    outer loop
      vertex 10.6548 14.2328 0
      vertex 10.8865 14.4504 1.7875
      vertex 10.6548 14.2328 1.7875
    endloop
  endfacet
  facet normal 0.684546 -0.728969 0
    outer loop
      vertex 10.8865 14.4504 1.7875
      vertex 10.6548 14.2328 0
      vertex 10.8865 14.4504 0
    endloop
  endfacet
  facet normal 0.24869 -0.968583 0
    outer loop
      vertex 11.7178 14.9074 0
      vertex 12.0257 14.9864 1.7875
      vertex 11.7178 14.9074 1.7875
    endloop
  endfacet
  facet normal 0.24869 -0.968583 0
    outer loop
      vertex 12.0257 14.9864 1.7875
      vertex 11.7178 14.9074 0
      vertex 12.0257 14.9864 0
    endloop
  endfacet
  facet normal -0.998027 0.0627927 0
    outer loop
      vertex 15.0113 12.1827 0
      vertex 15.0312 12.5 1.7875
      vertex 15.0312 12.5 0
    endloop
  endfacet
  facet normal -0.998027 0.0627927 0
    outer loop
      vertex 15.0312 12.5 1.7875
      vertex 15.0113 12.1827 0
      vertex 15.0113 12.1827 1.7875
    endloop
  endfacet
  facet normal -0.24869 0.968583 0
    outer loop
      vertex 13.2822 10.0926 0
      vertex 12.9743 10.0136 1.7875
      vertex 13.2822 10.0926 1.7875
    endloop
  endfacet
  facet normal -0.24869 0.968583 0
    outer loop
      vertex 12.9743 10.0136 1.7875
      vertex 13.2822 10.0926 0
      vertex 12.9743 10.0136 0
    endloop
  endfacet
  facet normal -0.684546 0.728969 0
    outer loop
      vertex 14.3452 10.7672 0
      vertex 14.1135 10.5496 1.7875
      vertex 14.3452 10.7672 1.7875
    endloop
  endfacet
  facet normal -0.684546 0.728969 0
    outer loop
      vertex 14.1135 10.5496 1.7875
      vertex 14.3452 10.7672 0
      vertex 14.1135 10.5496 0
    endloop
  endfacet
  facet normal -0.481755 0.876306 0
    outer loop
      vertex 13.8563 10.3628 0
      vertex 13.5778 10.2097 1.7875
      vertex 13.8563 10.3628 1.7875
    endloop
  endfacet
  facet normal -0.481755 0.876306 0
    outer loop
      vertex 13.5778 10.2097 1.7875
      vertex 13.8563 10.3628 0
      vertex 13.5778 10.2097 0
    endloop
  endfacet
  facet normal -0.951057 0.309017 0
    outer loop
      vertex 14.8535 11.5682 0
      vertex 14.9517 11.8705 1.7875
      vertex 14.9517 11.8705 0
    endloop
  endfacet
  facet normal -0.951057 0.309017 0
    outer loop
      vertex 14.9517 11.8705 1.7875
      vertex 14.8535 11.5682 0
      vertex 14.8535 11.5682 1.7875
    endloop
  endfacet
  facet normal -0.844328 0.535827 0
    outer loop
      vertex 14.5478 11.0122 0
      vertex 14.7182 11.2806 1.7875
      vertex 14.7182 11.2806 0
    endloop
  endfacet
  facet normal -0.844328 0.535827 0
    outer loop
      vertex 14.7182 11.2806 1.7875
      vertex 14.5478 11.0122 0
      vertex 14.5478 11.0122 1.7875
    endloop
  endfacet
  facet normal 0.587784 0.809018 -0
    outer loop
      vertex 11.1437 10.3628 0
      vertex 10.8865 10.5496 1.7875
      vertex 11.1437 10.3628 1.7875
    endloop
  endfacet
  facet normal 0.587784 0.809018 0
    outer loop
      vertex 10.8865 10.5496 1.7875
      vertex 11.1437 10.3628 0
      vertex 10.8865 10.5496 0
    endloop
  endfacet
  facet normal 0.368123 0.929777 -0
    outer loop
      vertex 11.7178 10.0926 0
      vertex 11.4222 10.2097 1.7875
      vertex 11.7178 10.0926 1.7875
    endloop
  endfacet
  facet normal 0.368123 0.929777 0
    outer loop
      vertex 11.4222 10.2097 1.7875
      vertex 11.7178 10.0926 0
      vertex 11.4222 10.2097 0
    endloop
  endfacet
  facet normal 0.24869 0.968583 -0
    outer loop
      vertex 12.0257 10.0136 0
      vertex 11.7178 10.0926 1.7875
      vertex 12.0257 10.0136 1.7875
    endloop
  endfacet
  facet normal 0.24869 0.968583 0
    outer loop
      vertex 11.7178 10.0926 1.7875
      vertex 12.0257 10.0136 0
      vertex 11.7178 10.0926 0
    endloop
  endfacet
  facet normal 0.844328 0.535827 0
    outer loop
      vertex 10.4522 11.0122 1.7875
      vertex 10.2818 11.2806 0
      vertex 10.2818 11.2806 1.7875
    endloop
  endfacet
  facet normal 0.844328 0.535827 0
    outer loop
      vertex 10.2818 11.2806 0
      vertex 10.4522 11.0122 1.7875
      vertex 10.4522 11.0122 0
    endloop
  endfacet
  facet normal 0.684546 0.728969 -0
    outer loop
      vertex 10.8865 10.5496 0
      vertex 10.6548 10.7672 1.7875
      vertex 10.8865 10.5496 1.7875
    endloop
  endfacet
  facet normal 0.684546 0.728969 0
    outer loop
      vertex 10.6548 10.7672 1.7875
      vertex 10.8865 10.5496 0
      vertex 10.6548 10.7672 0
    endloop
  endfacet
  facet normal 0.951057 0.309017 0
    outer loop
      vertex 10.1465 11.5682 1.7875
      vertex 10.0483 11.8705 0
      vertex 10.0483 11.8705 1.7875
    endloop
  endfacet
  facet normal 0.951057 0.309017 0
    outer loop
      vertex 10.0483 11.8705 0
      vertex 10.1465 11.5682 1.7875
      vertex 10.1465 11.5682 0
    endloop
  endfacet
  facet normal -0.368123 0.929777 0
    outer loop
      vertex 13.5778 10.2097 0
      vertex 13.2822 10.0926 1.7875
      vertex 13.5778 10.2097 1.7875
    endloop
  endfacet
  facet normal -0.368123 0.929777 0
    outer loop
      vertex 13.2822 10.0926 1.7875
      vertex 13.5778 10.2097 0
      vertex 13.2822 10.0926 0
    endloop
  endfacet
  facet normal -0.770513 0.637424 0
    outer loop
      vertex 14.3452 10.7672 0
      vertex 14.5478 11.0122 1.7875
      vertex 14.5478 11.0122 0
    endloop
  endfacet
  facet normal -0.770513 0.637424 0
    outer loop
      vertex 14.5478 11.0122 1.7875
      vertex 14.3452 10.7672 0
      vertex 14.3452 10.7672 1.7875
    endloop
  endfacet
  facet normal -0.587784 0.809018 0
    outer loop
      vertex 14.1135 10.5496 0
      vertex 13.8563 10.3628 1.7875
      vertex 14.1135 10.5496 1.7875
    endloop
  endfacet
  facet normal -0.587784 0.809018 0
    outer loop
      vertex 13.8563 10.3628 1.7875
      vertex 14.1135 10.5496 0
      vertex 13.8563 10.3628 0
    endloop
  endfacet
  facet normal -0.982288 0.18738 0
    outer loop
      vertex 14.9517 11.8705 0
      vertex 15.0113 12.1827 1.7875
      vertex 15.0113 12.1827 0
    endloop
  endfacet
  facet normal -0.982288 0.18738 0
    outer loop
      vertex 15.0113 12.1827 1.7875
      vertex 14.9517 11.8705 0
      vertex 14.9517 11.8705 1.7875
    endloop
  endfacet
  facet normal -0.904827 0.42578 0
    outer loop
      vertex 14.7182 11.2806 0
      vertex 14.8535 11.5682 1.7875
      vertex 14.8535 11.5682 0
    endloop
  endfacet
  facet normal -0.904827 0.42578 0
    outer loop
      vertex 14.8535 11.5682 1.7875
      vertex 14.7182 11.2806 0
      vertex 14.7182 11.2806 1.7875
    endloop
  endfacet
  facet normal 0.481755 0.876306 -0
    outer loop
      vertex 11.4222 10.2097 0
      vertex 11.1437 10.3628 1.7875
      vertex 11.4222 10.2097 1.7875
    endloop
  endfacet
  facet normal 0.481755 0.876306 0
    outer loop
      vertex 11.1437 10.3628 1.7875
      vertex 11.4222 10.2097 0
      vertex 11.1437 10.3628 0
    endloop
  endfacet
  facet normal 0.125334 0.992115 -0
    outer loop
      vertex 12.3411 9.97374 0
      vertex 12.0257 10.0136 1.7875
      vertex 12.3411 9.97374 1.7875
    endloop
  endfacet
  facet normal 0.125334 0.992115 0
    outer loop
      vertex 12.0257 10.0136 1.7875
      vertex 12.3411 9.97374 0
      vertex 12.0257 10.0136 0
    endloop
  endfacet
  facet normal 0.770513 0.637424 0
    outer loop
      vertex 10.6548 10.7672 1.7875
      vertex 10.4522 11.0122 0
      vertex 10.4522 11.0122 1.7875
    endloop
  endfacet
  facet normal 0.770513 0.637424 0
    outer loop
      vertex 10.4522 11.0122 0
      vertex 10.6548 10.7672 1.7875
      vertex 10.6548 10.7672 0
    endloop
  endfacet
  facet normal -1 0 0
    outer loop
      vertex 0.5 17.2412 30.4292
      vertex 0.5 24.5 48.5
      vertex 0.5 24.5 0
    endloop
  endfacet
  facet normal -1 0 0
    outer loop
      vertex 0.5 24.5 48.5
      vertex 0.5 17.474 33.1051
      vertex 0.5 17.4895 34
    endloop
  endfacet
  facet normal -1 0 0
    outer loop
      vertex 0.5 24.5 48.5
      vertex 0.5 17.4274 32.2111
      vertex 0.5 17.474 33.1051
    endloop
  endfacet
  facet normal -1 0 0
    outer loop
      vertex 0.5 24.5 48.5
      vertex 0.5 17.3497 31.3188
      vertex 0.5 17.4274 32.2111
    endloop
  endfacet
  facet normal -1 0 0
    outer loop
      vertex 0.5 24.5 48.5
      vertex 0.5 17.2412 30.4292
      vertex 0.5 17.3497 31.3188
    endloop
  endfacet
  facet normal -1 0 0
    outer loop
      vertex 0.5 24.5 0
      vertex 0.5 17.1018 29.5431
      vertex 0.5 17.2412 30.4292
    endloop
  endfacet
  facet normal -1 0 0
    outer loop
      vertex 0.5 24.5 0
      vertex 0.5 16.9317 28.6614
      vertex 0.5 17.1018 29.5431
    endloop
  endfacet
  facet normal -1 0 0
    outer loop
      vertex 0.5 24.5 0
      vertex 0.5 16.7311 27.785
      vertex 0.5 16.9317 28.6614
    endloop
  endfacet
  facet normal -1 0 0
    outer loop
      vertex 0.5 24.5 0
      vertex 0.5 16.5002 26.9147
      vertex 0.5 16.7311 27.785
    endloop
  endfacet
  facet normal -1 0 0
    outer loop
      vertex 0.5 24.5 0
      vertex 0.5 16.2392 26.0514
      vertex 0.5 16.5002 26.9147
    endloop
  endfacet
  facet normal -1 0 0
    outer loop
      vertex 0.5 24.5 0
      vertex 0.5 15.9483 25.1959
      vertex 0.5 16.2392 26.0514
    endloop
  endfacet
  facet normal -1 0 0
    outer loop
      vertex 0.5 24.5 0
      vertex 0.5 15.6279 24.3492
      vertex 0.5 15.9483 25.1959
    endloop
  endfacet
  facet normal -1 0 0
    outer loop
      vertex 0.5 24.5 0
      vertex 0.5 15.2782 23.5119
      vertex 0.5 15.6279 24.3492
    endloop
  endfacet
  facet normal -1 0 0
    outer loop
      vertex 0.5 24.5 0
      vertex 0.5 14.8996 22.6851
      vertex 0.5 15.2782 23.5119
    endloop
  endfacet
  facet normal -1 0 0
    outer loop
      vertex 0.5 24.5 0
      vertex 0.5 14.4926 21.8693
      vertex 0.5 14.8996 22.6851
    endloop
  endfacet
  facet normal -1 0 0
    outer loop
      vertex 0.5 24.5 0
      vertex 0.5 14.0573 21.0656
      vertex 0.5 14.4926 21.8693
    endloop
  endfacet
  facet normal -1 0 0
    outer loop
      vertex 0.5 24.5 0
      vertex 0.5 13.5945 20.2746
      vertex 0.5 14.0573 21.0656
    endloop
  endfacet
  facet normal -1 0 0
    outer loop
      vertex 0.5 24.5 0
      vertex 0.5 13.1043 19.4972
      vertex 0.5 13.5945 20.2746
    endloop
  endfacet
  facet normal -1 0 0
    outer loop
      vertex 0.5 24.5 0
      vertex 0.5 12.5875 18.734
      vertex 0.5 13.1043 19.4972
    endloop
  endfacet
  facet normal -1 0 0
    outer loop
      vertex 0.5 24.5 0
      vertex 0.5 12.0444 17.986
      vertex 0.5 12.5875 18.734
    endloop
  endfacet
  facet normal -1 0 0
    outer loop
      vertex 0.5 24.5 0
      vertex 0.5 11.4755 17.2537
      vertex 0.5 12.0444 17.986
    endloop
  endfacet
  facet normal -1 0 0
    outer loop
      vertex 0.5 24.5 0
      vertex 0.5 10.8816 16.538
      vertex 0.5 11.4755 17.2537
    endloop
  endfacet
  facet normal -1 0 0
    outer loop
      vertex 0.5 24.5 0
      vertex 0.5 10.2631 15.8395
      vertex 0.5 10.8816 16.538
    endloop
  endfacet
  facet normal -1 0 0
    outer loop
      vertex 0.5 24.5 0
      vertex 0.5 9.62062 15.1589
      vertex 0.5 10.2631 15.8395
    endloop
  endfacet
  facet normal -1 0 0
    outer loop
      vertex 0.5 24.5 0
      vertex 0.5 8.95486 14.4969
      vertex 0.5 9.62062 15.1589
    endloop
  endfacet
  facet normal -1 0 0
    outer loop
      vertex 0.5 24.5 0
      vertex 0.5 8.26644 13.8542
      vertex 0.5 8.95486 14.4969
    endloop
  endfacet
  facet normal -1 0 0
    outer loop
      vertex 0.5 24.5 0
      vertex 0.5 7.55605 13.2313
      vertex 0.5 8.26644 13.8542
    endloop
  endfacet
  facet normal -1 0 0
    outer loop
      vertex 0.5 24.5 0
      vertex 0.5 6.82438 12.629
      vertex 0.5 7.55605 13.2313
    endloop
  endfacet
  facet normal -1 0 0
    outer loop
      vertex 0.5 24.5 0
      vertex 0.5 6.07216 12.0477
      vertex 0.5 6.82438 12.629
    endloop
  endfacet
  facet normal -1 0 0
    outer loop
      vertex 0.5 24.5 0
      vertex 0.5 5.30014 11.4881
      vertex 0.5 6.07216 12.0477
    endloop
  endfacet
  facet normal -1 0 0
    outer loop
      vertex 0.5 0.5 0
      vertex 0.5 5.30014 11.4881
      vertex 0.5 24.5 0
    endloop
  endfacet
  facet normal -1 0 0
    outer loop
      vertex 0.5 5.30014 11.4881
      vertex 0.5 0.5 0
      vertex 0.5 4.50906 10.9507
    endloop
  endfacet
  facet normal -1 0 0
    outer loop
      vertex 0.5 4.50906 10.9507
      vertex 0.5 0.5 0
      vertex 0.5 3.69972 10.4361
    endloop
  endfacet
  facet normal -1 0 0
    outer loop
      vertex 0.5 3.69972 10.4361
      vertex 0.5 0.5 0
      vertex 0.5 2.87292 9.94467
    endloop
  endfacet
  facet normal -1 0 0
    outer loop
      vertex 0.5 2.87292 9.94467
      vertex 0.5 0.5 0
      vertex 0.5 2.02946 9.47703
    endloop
  endfacet
  facet normal -1 0 0
    outer loop
      vertex 0.5 2.02946 9.47703
      vertex 0.5 0.5 0
      vertex 0.5 1.17018 9.03358
    endloop
  endfacet
  facet normal -1 0 0
    outer loop
      vertex 0.5 1.17018 9.03358
      vertex 0.5 0.5 0
      vertex 0.5 0.5 8.71254
    endloop
  endfacet
  facet normal -1 0 0
    outer loop
      vertex 0.5 17.474 34.8949
      vertex 0.5 24.5 48.5
      vertex 0.5 17.4895 34
    endloop
  endfacet
  facet normal -1 0 0
    outer loop
      vertex 0.5 17.4274 35.7889
      vertex 0.5 24.5 48.5
      vertex 0.5 17.474 34.8949
    endloop
  endfacet
  facet normal -1 0 0
    outer loop
      vertex 0.5 17.3497 36.6812
      vertex 0.5 24.5 48.5
      vertex 0.5 17.4274 35.7889
    endloop
  endfacet
  facet normal -1 0 0
    outer loop
      vertex 0.5 17.2412 37.5708
      vertex 0.5 24.5 48.5
      vertex 0.5 17.3497 36.6812
    endloop
  endfacet
  facet normal -1 0 0
    outer loop
      vertex 0.5 17.1018 38.4569
      vertex 0.5 24.5 48.5
      vertex 0.5 17.2412 37.5708
    endloop
  endfacet
  facet normal -1 0 0
    outer loop
      vertex 0.5 16.9317 39.3386
      vertex 0.5 24.5 48.5
      vertex 0.5 17.1018 38.4569
    endloop
  endfacet
  facet normal -1 0 0
    outer loop
      vertex 0.5 16.7311 40.215
      vertex 0.5 24.5 48.5
      vertex 0.5 16.9317 39.3386
    endloop
  endfacet
  facet normal -1 0 0
    outer loop
      vertex 0.5 16.5002 41.0853
      vertex 0.5 24.5 48.5
      vertex 0.5 16.7311 40.215
    endloop
  endfacet
  facet normal -1 0 0
    outer loop
      vertex 0.5 16.2392 41.9486
      vertex 0.5 24.5 48.5
      vertex 0.5 16.5002 41.0853
    endloop
  endfacet
  facet normal -1 0 0
    outer loop
      vertex 0.5 15.9483 42.804
      vertex 0.5 24.5 48.5
      vertex 0.5 16.2392 41.9486
    endloop
  endfacet
  facet normal -1 0 0
    outer loop
      vertex 0.5 15.6279 43.6508
      vertex 0.5 24.5 48.5
      vertex 0.5 15.9483 42.804
    endloop
  endfacet
  facet normal -1 0 0
    outer loop
      vertex 0.5 15.2782 44.4881
      vertex 0.5 24.5 48.5
      vertex 0.5 15.6279 43.6508
    endloop
  endfacet
  facet normal -1 0 0
    outer loop
      vertex 0.5 14.8996 45.3149
      vertex 0.5 24.5 48.5
      vertex 0.5 15.2782 44.4881
    endloop
  endfacet
  facet normal -1 0 0
    outer loop
      vertex 0.5 14.4926 46.1307
      vertex 0.5 24.5 48.5
      vertex 0.5 14.8996 45.3149
    endloop
  endfacet
  facet normal -1 0 0
    outer loop
      vertex 0.5 14.0573 46.9344
      vertex 0.5 24.5 48.5
      vertex 0.5 14.4926 46.1307
    endloop
  endfacet
  facet normal -1 0 0
    outer loop
      vertex 0.5 13.5945 47.7254
      vertex 0.5 24.5 48.5
      vertex 0.5 14.0573 46.9344
    endloop
  endfacet
  facet normal -1 -0 0
    outer loop
      vertex 0.5 24.5 48.5
      vertex 0.5 13.5945 47.7254
      vertex 0.5 13.1061 48.5
    endloop
  endfacet
  facet normal -0 0 1
    outer loop
      vertex 0.5 24.5 48.5
      vertex 24.5 13.1061 48.5
      vertex 24.5 24.5 48.5
    endloop
  endfacet
  facet normal 0 0 1
    outer loop
      vertex 24.5 13.1061 48.5
      vertex 0.5 24.5 48.5
      vertex 0.5 13.1061 48.5
    endloop
  endfacet
  facet normal 1 0 0
    outer loop
      vertex 24.5 17.474 33.1051
      vertex 24.5 24.5 48.5
      vertex 24.5 17.4895 34
    endloop
  endfacet
  facet normal 1 0 0
    outer loop
      vertex 24.5 24.5 48.5
      vertex 24.5 17.474 34.8949
      vertex 24.5 17.4895 34
    endloop
  endfacet
  facet normal 1 0 0
    outer loop
      vertex 24.5 24.5 48.5
      vertex 24.5 17.4274 35.7889
      vertex 24.5 17.474 34.8949
    endloop
  endfacet
  facet normal 1 0 0
    outer loop
      vertex 24.5 24.5 48.5
      vertex 24.5 17.3497 36.6812
      vertex 24.5 17.4274 35.7889
    endloop
  endfacet
  facet normal 1 0 0
    outer loop
      vertex 24.5 24.5 48.5
      vertex 24.5 17.2412 37.5708
      vertex 24.5 17.3497 36.6812
    endloop
  endfacet
  facet normal 1 0 0
    outer loop
      vertex 24.5 24.5 48.5
      vertex 24.5 17.1018 38.4569
      vertex 24.5 17.2412 37.5708
    endloop
  endfacet
  facet normal 1 0 0
    outer loop
      vertex 24.5 24.5 48.5
      vertex 24.5 16.9317 39.3386
      vertex 24.5 17.1018 38.4569
    endloop
  endfacet
  facet normal 1 0 0
    outer loop
      vertex 24.5 24.5 48.5
      vertex 24.5 16.7311 40.215
      vertex 24.5 16.9317 39.3386
    endloop
  endfacet
  facet normal 1 0 0
    outer loop
      vertex 24.5 24.5 48.5
      vertex 24.5 16.5002 41.0853
      vertex 24.5 16.7311 40.215
    endloop
  endfacet
  facet normal 1 0 0
    outer loop
      vertex 24.5 24.5 48.5
      vertex 24.5 16.2392 41.9486
      vertex 24.5 16.5002 41.0853
    endloop
  endfacet
  facet normal 1 0 0
    outer loop
      vertex 24.5 24.5 48.5
      vertex 24.5 15.9483 42.804
      vertex 24.5 16.2392 41.9486
    endloop
  endfacet
  facet normal 1 0 0
    outer loop
      vertex 24.5 24.5 48.5
      vertex 24.5 15.6279 43.6508
      vertex 24.5 15.9483 42.804
    endloop
  endfacet
  facet normal 1 0 0
    outer loop
      vertex 24.5 24.5 48.5
      vertex 24.5 15.2782 44.4881
      vertex 24.5 15.6279 43.6508
    endloop
  endfacet
  facet normal 1 0 0
    outer loop
      vertex 24.5 24.5 48.5
      vertex 24.5 14.8996 45.3149
      vertex 24.5 15.2782 44.4881
    endloop
  endfacet
  facet normal 1 0 0
    outer loop
      vertex 24.5 24.5 48.5
      vertex 24.5 14.4926 46.1307
      vertex 24.5 14.8996 45.3149
    endloop
  endfacet
  facet normal 1 0 0
    outer loop
      vertex 24.5 24.5 48.5
      vertex 24.5 14.0573 46.9344
      vertex 24.5 14.4926 46.1307
    endloop
  endfacet
  facet normal 1 0 0
    outer loop
      vertex 24.5 24.5 48.5
      vertex 24.5 13.5945 47.7254
      vertex 24.5 14.0573 46.9344
    endloop
  endfacet
  facet normal 1 0 -0
    outer loop
      vertex 24.5 13.5945 47.7254
      vertex 24.5 24.5 48.5
      vertex 24.5 13.1061 48.5
    endloop
  endfacet
  facet normal 1 0 0
    outer loop
      vertex 24.5 17.4274 32.2111
      vertex 24.5 24.5 48.5
      vertex 24.5 17.474 33.1051
    endloop
  endfacet
  facet normal 1 0 0
    outer loop
      vertex 24.5 17.3497 31.3188
      vertex 24.5 24.5 48.5
      vertex 24.5 17.4274 32.2111
    endloop
  endfacet
  facet normal 1 0 0
    outer loop
      vertex 24.5 17.2412 30.4292
      vertex 24.5 24.5 48.5
      vertex 24.5 17.3497 31.3188
    endloop
  endfacet
  facet normal 1 0 0
    outer loop
      vertex 24.5 24.5 48.5
      vertex 24.5 17.2412 30.4292
      vertex 24.5 24.5 0
    endloop
  endfacet
  facet normal 1 -0 0
    outer loop
      vertex 24.5 17.1018 29.5431
      vertex 24.5 24.5 0
      vertex 24.5 17.2412 30.4292
    endloop
  endfacet
  facet normal 1 -0 0
    outer loop
      vertex 24.5 16.9317 28.6614
      vertex 24.5 24.5 0
      vertex 24.5 17.1018 29.5431
    endloop
  endfacet
  facet normal 1 -0 0
    outer loop
      vertex 24.5 16.7311 27.785
      vertex 24.5 24.5 0
      vertex 24.5 16.9317 28.6614
    endloop
  endfacet
  facet normal 1 -0 0
    outer loop
      vertex 24.5 16.5002 26.9147
      vertex 24.5 24.5 0
      vertex 24.5 16.7311 27.785
    endloop
  endfacet
  facet normal 1 -0 0
    outer loop
      vertex 24.5 16.2392 26.0514
      vertex 24.5 24.5 0
      vertex 24.5 16.5002 26.9147
    endloop
  endfacet
  facet normal 1 -0 0
    outer loop
      vertex 24.5 15.9483 25.1959
      vertex 24.5 24.5 0
      vertex 24.5 16.2392 26.0514
    endloop
  endfacet
  facet normal 1 -0 0
    outer loop
      vertex 24.5 15.6279 24.3492
      vertex 24.5 24.5 0
      vertex 24.5 15.9483 25.1959
    endloop
  endfacet
  facet normal 1 -0 0
    outer loop
      vertex 24.5 15.2782 23.5119
      vertex 24.5 24.5 0
      vertex 24.5 15.6279 24.3492
    endloop
  endfacet
  facet normal 1 -0 0
    outer loop
      vertex 24.5 14.8996 22.6851
      vertex 24.5 24.5 0
      vertex 24.5 15.2782 23.5119
    endloop
  endfacet
  facet normal 1 -0 0
    outer loop
      vertex 24.5 14.4926 21.8693
      vertex 24.5 24.5 0
      vertex 24.5 14.8996 22.6851
    endloop
  endfacet
  facet normal 1 -0 0
    outer loop
      vertex 24.5 14.0573 21.0656
      vertex 24.5 24.5 0
      vertex 24.5 14.4926 21.8693
    endloop
  endfacet
  facet normal 1 -0 0
    outer loop
      vertex 24.5 13.5945 20.2746
      vertex 24.5 24.5 0
      vertex 24.5 14.0573 21.0656
    endloop
  endfacet
  facet normal 1 -0 0
    outer loop
      vertex 24.5 13.1043 19.4972
      vertex 24.5 24.5 0
      vertex 24.5 13.5945 20.2746
    endloop
  endfacet
  facet normal 1 -0 0
    outer loop
      vertex 24.5 12.5875 18.734
      vertex 24.5 24.5 0
      vertex 24.5 13.1043 19.4972
    endloop
  endfacet
  facet normal 1 -0 0
    outer loop
      vertex 24.5 12.0444 17.986
      vertex 24.5 24.5 0
      vertex 24.5 12.5875 18.734
    endloop
  endfacet
  facet normal 1 -0 0
    outer loop
      vertex 24.5 11.4755 17.2537
      vertex 24.5 24.5 0
      vertex 24.5 12.0444 17.986
    endloop
  endfacet
  facet normal 1 -0 0
    outer loop
      vertex 24.5 10.8816 16.538
      vertex 24.5 24.5 0
      vertex 24.5 11.4755 17.2537
    endloop
  endfacet
  facet normal 1 -0 0
    outer loop
      vertex 24.5 10.2631 15.8395
      vertex 24.5 24.5 0
      vertex 24.5 10.8816 16.538
    endloop
  endfacet
  facet normal 1 -0 0
    outer loop
      vertex 24.5 9.62062 15.1589
      vertex 24.5 24.5 0
      vertex 24.5 10.2631 15.8395
    endloop
  endfacet
  facet normal 1 -0 0
    outer loop
      vertex 24.5 8.95486 14.4969
      vertex 24.5 24.5 0
      vertex 24.5 9.62062 15.1589
    endloop
  endfacet
  facet normal 1 -0 0
    outer loop
      vertex 24.5 8.26644 13.8542
      vertex 24.5 24.5 0
      vertex 24.5 8.95486 14.4969
    endloop
  endfacet
  facet normal 1 -0 0
    outer loop
      vertex 24.5 7.55605 13.2313
      vertex 24.5 24.5 0
      vertex 24.5 8.26644 13.8542
    endloop
  endfacet
  facet normal 1 -0 0
    outer loop
      vertex 24.5 6.82438 12.629
      vertex 24.5 24.5 0
      vertex 24.5 7.55605 13.2313
    endloop
  endfacet
  facet normal 1 -0 0
    outer loop
      vertex 24.5 6.07216 12.0477
      vertex 24.5 24.5 0
      vertex 24.5 6.82438 12.629
    endloop
  endfacet
  facet normal 1 -0 0
    outer loop
      vertex 24.5 5.30014 11.4881
      vertex 24.5 24.5 0
      vertex 24.5 6.07216 12.0477
    endloop
  endfacet
  facet normal 1 0 0
    outer loop
      vertex 24.5 0.5 0
      vertex 24.5 5.30014 11.4881
      vertex 24.5 4.50906 10.9507
    endloop
  endfacet
  facet normal 1 0 0
    outer loop
      vertex 24.5 0.5 0
      vertex 24.5 4.50906 10.9507
      vertex 24.5 3.69972 10.4361
    endloop
  endfacet
  facet normal 1 0 0
    outer loop
      vertex 24.5 0.5 0
      vertex 24.5 3.69972 10.4361
      vertex 24.5 2.87292 9.94467
    endloop
  endfacet
  facet normal 1 0 0
    outer loop
      vertex 24.5 0.5 0
      vertex 24.5 2.87292 9.94467
      vertex 24.5 2.02946 9.47703
    endloop
  endfacet
  facet normal 1 0 0
    outer loop
      vertex 24.5 0.5 0
      vertex 24.5 2.02946 9.47703
      vertex 24.5 1.17018 9.03358
    endloop
  endfacet
  facet normal 1 0 0
    outer loop
      vertex 24.5 0.5 0
      vertex 24.5 1.17018 9.03358
      vertex 24.5 0.5 8.71254
    endloop
  endfacet
  facet normal 1 0 0
    outer loop
      vertex 24.5 5.30014 11.4881
      vertex 24.5 0.5 0
      vertex 24.5 24.5 0
    endloop
  endfacet
  facet normal 0 1 -0
    outer loop
      vertex 24.5 24.5 0
      vertex 0.5 24.5 48.5
      vertex 24.5 24.5 48.5
    endloop
  endfacet
  facet normal 0 1 0
    outer loop
      vertex 0.5 24.5 48.5
      vertex 24.5 24.5 0
      vertex 0.5 24.5 0
    endloop
  endfacet
  facet normal 0 0 -1
    outer loop
      vertex 24.5 0.5 0
      vertex 22.6 2.4 0
      vertex 24.5 24.5 0
    endloop
  endfacet
  facet normal 0 0 -1
    outer loop
      vertex 24.5 0.5 0
      vertex 2.4 2.4 0
      vertex 22.6 2.4 0
    endloop
  endfacet
  facet normal -0 0 -1
    outer loop
      vertex 2.4 2.4 0
      vertex 0.5 0.5 0
      vertex 2.4 22.6 0
    endloop
  endfacet
  facet normal 0 0 -1
    outer loop
      vertex 0.5 0.5 0
      vertex 2.4 2.4 0
      vertex 24.5 0.5 0
    endloop
  endfacet
  facet normal 0 0 -1
    outer loop
      vertex 22.6 22.6 0
      vertex 24.5 24.5 0
      vertex 22.6 2.4 0
    endloop
  endfacet
  facet normal 0 0 -1
    outer loop
      vertex 2.4 22.6 0
      vertex 24.5 24.5 0
      vertex 22.6 22.6 0
    endloop
  endfacet
  facet normal 0 0 -1
    outer loop
      vertex 2.4 22.6 0
      vertex 0.5 24.5 0
      vertex 24.5 24.5 0
    endloop
  endfacet
  facet normal 0 0 -1
    outer loop
      vertex 0.5 24.5 0
      vertex 2.4 22.6 0
      vertex 0.5 0.5 0
    endloop
  endfacet
  facet normal 0 0 -1
    outer loop
      vertex 21.2 3.8 0
      vertex 15.0312 12.5 0
      vertex 21.2 21.2 0
    endloop
  endfacet
  facet normal 0 0 -1
    outer loop
      vertex 21.2 3.8 0
      vertex 15.0113 12.1827 0
      vertex 15.0312 12.5 0
    endloop
  endfacet
  facet normal 0 0 -1
    outer loop
      vertex 21.2 3.8 0
      vertex 14.9517 11.8705 0
      vertex 15.0113 12.1827 0
    endloop
  endfacet
  facet normal 0 0 -1
    outer loop
      vertex 21.2 3.8 0
      vertex 14.8535 11.5682 0
      vertex 14.9517 11.8705 0
    endloop
  endfacet
  facet normal 0 0 -1
    outer loop
      vertex 21.2 3.8 0
      vertex 14.7182 11.2806 0
      vertex 14.8535 11.5682 0
    endloop
  endfacet
  facet normal 0 0 -1
    outer loop
      vertex 21.2 3.8 0
      vertex 14.5478 11.0122 0
      vertex 14.7182 11.2806 0
    endloop
  endfacet
  facet normal 0 0 -1
    outer loop
      vertex 21.2 3.8 0
      vertex 14.3452 10.7672 0
      vertex 14.5478 11.0122 0
    endloop
  endfacet
  facet normal 0 0 -1
    outer loop
      vertex 21.2 3.8 0
      vertex 14.1135 10.5496 0
      vertex 14.3452 10.7672 0
    endloop
  endfacet
  facet normal 0 0 -1
    outer loop
      vertex 21.2 3.8 0
      vertex 13.8563 10.3628 0
      vertex 14.1135 10.5496 0
    endloop
  endfacet
  facet normal 0 0 -1
    outer loop
      vertex 21.2 3.8 0
      vertex 13.5778 10.2097 0
      vertex 13.8563 10.3628 0
    endloop
  endfacet
  facet normal 0 0 -1
    outer loop
      vertex 21.2 3.8 0
      vertex 13.2822 10.0926 0
      vertex 13.5778 10.2097 0
    endloop
  endfacet
  facet normal 0 0 -1
    outer loop
      vertex 21.2 3.8 0
      vertex 12.9743 10.0136 0
      vertex 13.2822 10.0926 0
    endloop
  endfacet
  facet normal 0 0 -1
    outer loop
      vertex 21.2 3.8 0
      vertex 12.6589 9.97374 0
      vertex 12.9743 10.0136 0
    endloop
  endfacet
  facet normal 0 0 -1
    outer loop
      vertex 21.2 3.8 0
      vertex 12.3411 9.97374 0
      vertex 12.6589 9.97374 0
    endloop
  endfacet
  facet normal 0 0 -1
    outer loop
      vertex 3.8 3.8 0
      vertex 12.3411 9.97374 0
      vertex 21.2 3.8 0
    endloop
  endfacet
  facet normal -0 0 -1
    outer loop
      vertex 12.3411 9.97374 0
      vertex 3.8 3.8 0
      vertex 12.0257 10.0136 0
    endloop
  endfacet
  facet normal -0 0 -1
    outer loop
      vertex 12.0257 10.0136 0
      vertex 3.8 3.8 0
      vertex 11.7178 10.0926 0
    endloop
  endfacet
  facet normal -0 0 -1
    outer loop
      vertex 11.7178 10.0926 0
      vertex 3.8 3.8 0
      vertex 11.4222 10.2097 0
    endloop
  endfacet
  facet normal -0 0 -1
    outer loop
      vertex 9.98871 12.1827 0
      vertex 3.8 3.8 0
      vertex 9.96875 12.5 0
    endloop
  endfacet
  facet normal -0 0 -1
    outer loop
      vertex 10.0483 11.8705 0
      vertex 3.8 3.8 0
      vertex 9.98871 12.1827 0
    endloop
  endfacet
  facet normal -0 0 -1
    outer loop
      vertex 10.1465 11.5682 0
      vertex 3.8 3.8 0
      vertex 10.0483 11.8705 0
    endloop
  endfacet
  facet normal -0 0 -1
    outer loop
      vertex 10.2818 11.2806 0
      vertex 3.8 3.8 0
      vertex 10.1465 11.5682 0
    endloop
  endfacet
  facet normal -0 0 -1
    outer loop
      vertex 10.4522 11.0122 0
      vertex 3.8 3.8 0
      vertex 10.2818 11.2806 0
    endloop
  endfacet
  facet normal -0 0 -1
    outer loop
      vertex 10.6548 10.7672 0
      vertex 3.8 3.8 0
      vertex 10.4522 11.0122 0
    endloop
  endfacet
  facet normal -0 0 -1
    outer loop
      vertex 10.8865 10.5496 0
      vertex 3.8 3.8 0
      vertex 10.6548 10.7672 0
    endloop
  endfacet
  facet normal -0 0 -1
    outer loop
      vertex 11.1437 10.3628 0
      vertex 3.8 3.8 0
      vertex 10.8865 10.5496 0
    endloop
  endfacet
  facet normal -0 0 -1
    outer loop
      vertex 11.4222 10.2097 0
      vertex 3.8 3.8 0
      vertex 11.1437 10.3628 0
    endloop
  endfacet
  facet normal 0 0 -1
    outer loop
      vertex 15.0113 12.8172 0
      vertex 21.2 21.2 0
      vertex 15.0312 12.5 0
    endloop
  endfacet
  facet normal 0 0 -1
    outer loop
      vertex 14.9517 13.1295 0
      vertex 21.2 21.2 0
      vertex 15.0113 12.8172 0
    endloop
  endfacet
  facet normal 0 0 -1
    outer loop
      vertex 14.8535 13.4318 0
      vertex 21.2 21.2 0
      vertex 14.9517 13.1295 0
    endloop
  endfacet
  facet normal 0 0 -1
    outer loop
      vertex 14.7182 13.7194 0
      vertex 21.2 21.2 0
      vertex 14.8535 13.4318 0
    endloop
  endfacet
  facet normal 0 0 -1
    outer loop
      vertex 14.5478 13.9878 0
      vertex 21.2 21.2 0
      vertex 14.7182 13.7194 0
    endloop
  endfacet
  facet normal 0 0 -1
    outer loop
      vertex 14.3452 14.2328 0
      vertex 21.2 21.2 0
      vertex 14.5478 13.9878 0
    endloop
  endfacet
  facet normal 0 0 -1
    outer loop
      vertex 14.1135 14.4504 0
      vertex 21.2 21.2 0
      vertex 14.3452 14.2328 0
    endloop
  endfacet
  facet normal 0 0 -1
    outer loop
      vertex 13.8563 14.6372 0
      vertex 21.2 21.2 0
      vertex 14.1135 14.4504 0
    endloop
  endfacet
  facet normal 0 0 -1
    outer loop
      vertex 13.5778 14.7903 0
      vertex 21.2 21.2 0
      vertex 13.8563 14.6372 0
    endloop
  endfacet
  facet normal 0 0 -1
    outer loop
      vertex 13.2822 14.9074 0
      vertex 21.2 21.2 0
      vertex 13.5778 14.7903 0
    endloop
  endfacet
  facet normal 0 0 -1
    outer loop
      vertex 12.9743 14.9864 0
      vertex 21.2 21.2 0
      vertex 13.2822 14.9074 0
    endloop
  endfacet
  facet normal 0 0 -1
    outer loop
      vertex 12.6589 15.0263 0
      vertex 21.2 21.2 0
      vertex 12.9743 14.9864 0
    endloop
  endfacet
  facet normal 0 0 -1
    outer loop
      vertex 12.3411 15.0263 0
      vertex 21.2 21.2 0
      vertex 12.6589 15.0263 0
    endloop
  endfacet
  facet normal 0 0 -1
    outer loop
      vertex 3.8 21.2 0
      vertex 12.3411 15.0263 0
      vertex 12.0257 14.9864 0
    endloop
  endfacet
  facet normal 0 0 -1
    outer loop
      vertex 3.8 21.2 0
      vertex 12.0257 14.9864 0
      vertex 11.7178 14.9074 0
    endloop
  endfacet
  facet normal 0 0 -1
    outer loop
      vertex 3.8 21.2 0
      vertex 11.7178 14.9074 0
      vertex 11.4222 14.7903 0
    endloop
  endfacet
  facet normal 0 0 -1
    outer loop
      vertex 3.8 21.2 0
      vertex 11.4222 14.7903 0
      vertex 11.1437 14.6372 0
    endloop
  endfacet
  facet normal 0 0 -1
    outer loop
      vertex 3.8 21.2 0
      vertex 9.96875 12.5 0
      vertex 3.8 3.8 0
    endloop
  endfacet
  facet normal 0 0 -1
    outer loop
      vertex 9.96875 12.5 0
      vertex 3.8 21.2 0
      vertex 9.98871 12.8172 0
    endloop
  endfacet
  facet normal 0 0 -1
    outer loop
      vertex 9.98871 12.8172 0
      vertex 3.8 21.2 0
      vertex 10.0483 13.1295 0
    endloop
  endfacet
  facet normal 0 0 -1
    outer loop
      vertex 10.0483 13.1295 0
      vertex 3.8 21.2 0
      vertex 10.1465 13.4318 0
    endloop
  endfacet
  facet normal 0 0 -1
    outer loop
      vertex 10.1465 13.4318 0
      vertex 3.8 21.2 0
      vertex 10.2818 13.7194 0
    endloop
  endfacet
  facet normal 0 0 -1
    outer loop
      vertex 12.3411 15.0263 0
      vertex 3.8 21.2 0
      vertex 21.2 21.2 0
    endloop
  endfacet
  facet normal 0 0 -1
    outer loop
      vertex 10.8865 14.4504 0
      vertex 3.8 21.2 0
      vertex 11.1437 14.6372 0
    endloop
  endfacet
  facet normal 0 0 -1
    outer loop
      vertex 10.6548 14.2328 0
      vertex 3.8 21.2 0
      vertex 10.8865 14.4504 0
    endloop
  endfacet
  facet normal 0 0 -1
    outer loop
      vertex 10.4522 13.9878 0
      vertex 3.8 21.2 0
      vertex 10.6548 14.2328 0
    endloop
  endfacet
  facet normal 0 0 -1
    outer loop
      vertex 10.2818 13.7194 0
      vertex 3.8 21.2 0
      vertex 10.4522 13.9878 0
    endloop
  endfacet
  facet normal 0 -1 0
    outer loop
      vertex 0.5 0.5 0
      vertex 24.5 0.5 8.71254
      vertex 0.5 0.5 8.71254
    endloop
  endfacet
  facet normal 0 -1 -0
    outer loop
      vertex 24.5 0.5 8.71254
      vertex 0.5 0.5 0
      vertex 24.5 0.5 0
    endloop
  endfacet
  facet normal 0 -0.682439 0.730943
    outer loop
      vertex 0.5 8.95486 14.4969
      vertex 24.5 8.26644 13.8542
      vertex 24.5 8.95486 14.4969
    endloop
  endfacet
  facet normal 0 -0.682439 0.730943
    outer loop
      vertex 24.5 8.26644 13.8542
      vertex 0.5 8.95486 14.4969
      vertex 0.5 8.26644 13.8542
    endloop
  endfacet
  facet normal 0 -0.894769 -0.44653
    outer loop
      vertex 0.5 14.8996 45.3149
      vertex 24.5 14.4926 46.1307
      vertex 0.5 14.4926 46.1307
    endloop
  endfacet
  facet normal 0 -0.894769 -0.44653
    outer loop
      vertex 24.5 14.4926 46.1307
      vertex 0.5 14.8996 45.3149
      vertex 24.5 14.8996 45.3149
    endloop
  endfacet
  facet normal 0 -0.999849 -0.0173592
    outer loop
      vertex 0.5 17.4895 34
      vertex 24.5 17.474 34.8949
      vertex 0.5 17.474 34.8949
    endloop
  endfacet
  facet normal 0 -0.999849 -0.0173592
    outer loop
      vertex 24.5 17.474 34.8949
      vertex 0.5 17.4895 34
      vertex 24.5 17.4895 34
    endloop
  endfacet
  facet normal 0 -0.827962 0.560785
    outer loop
      vertex 0.5 12.5875 18.734
      vertex 24.5 13.1043 19.4972
      vertex 0.5 13.1043 19.4972
    endloop
  endfacet
  facet normal 0 -0.827962 0.560785
    outer loop
      vertex 24.5 13.1043 19.4972
      vertex 0.5 12.5875 18.734
      vertex 24.5 12.5875 18.734
    endloop
  endfacet
  facet normal 0 -0.748674 0.662939
    outer loop
      vertex 0.5 10.2631 15.8395
      vertex 24.5 10.8816 16.538
      vertex 0.5 10.8816 16.538
    endloop
  endfacet
  facet normal 0 -0.748674 0.662939
    outer loop
      vertex 24.5 10.8816 16.538
      vertex 0.5 10.2631 15.8395
      vertex 24.5 10.2631 15.8395
    endloop
  endfacet
  facet normal 0 -0.845927 -0.533298
    outer loop
      vertex 0.5 13.5945 47.7254
      vertex 24.5 13.1061 48.5
      vertex 0.5 13.1061 48.5
    endloop
  endfacet
  facet normal 0 -0.845927 -0.533298
    outer loop
      vertex 24.5 13.1061 48.5
      vertex 0.5 13.5945 47.7254
      vertex 24.5 13.5945 47.7254
    endloop
  endfacet
  facet normal 0 -0.946767 0.321921
    outer loop
      vertex 0.5 15.9483 25.1959
      vertex 24.5 16.2392 26.0514
      vertex 0.5 16.2392 26.0514
    endloop
  endfacet
  facet normal 0 -0.946767 0.321921
    outer loop
      vertex 24.5 16.2392 26.0514
      vertex 0.5 15.9483 25.1959
      vertex 24.5 15.9483 25.1959
    endloop
  endfacet
  facet normal 0 -0.999849 0.0173592
    outer loop
      vertex 0.5 17.474 33.1051
      vertex 24.5 17.4895 34
      vertex 0.5 17.4895 34
    endloop
  endfacet
  facet normal 0 -0.999849 0.0173592
    outer loop
      vertex 24.5 17.4895 34
      vertex 0.5 17.474 33.1051
      vertex 24.5 17.474 33.1051
    endloop
  endfacet
  facet normal 0 -0.845928 0.533298
    outer loop
      vertex 0.5 13.1043 19.4972
      vertex 24.5 13.5945 20.2746
      vertex 0.5 13.5945 20.2746
    endloop
  endfacet
  facet normal 0 -0.845928 0.533298
    outer loop
      vertex 24.5 13.5945 20.2746
      vertex 0.5 13.1043 19.4972
      vertex 24.5 13.1043 19.4972
    endloop
  endfacet
  facet normal 0 -0.70509 0.709118
    outer loop
      vertex 0.5 9.62062 15.1589
      vertex 24.5 8.95486 14.4969
      vertex 24.5 9.62062 15.1589
    endloop
  endfacet
  facet normal 0 -0.70509 0.709118
    outer loop
      vertex 24.5 8.95486 14.4969
      vertex 0.5 9.62062 15.1589
      vertex 0.5 8.95486 14.4969
    endloop
  endfacet
  facet normal 0 -0.935275 -0.353923
    outer loop
      vertex 0.5 15.9483 42.804
      vertex 24.5 15.6279 43.6508
      vertex 0.5 15.6279 43.6508
    endloop
  endfacet
  facet normal 0 -0.935275 -0.353923
    outer loop
      vertex 24.5 15.6279 43.6508
      vertex 0.5 15.9483 42.804
      vertex 24.5 15.9483 42.804
    endloop
  endfacet
  facet normal 0 -0.998644 -0.0520515
    outer loop
      vertex 0.5 17.474 34.8949
      vertex 24.5 17.4274 35.7889
      vertex 0.5 17.4274 35.7889
    endloop
  endfacet
  facet normal 0 -0.998644 -0.0520515
    outer loop
      vertex 24.5 17.4274 35.7889
      vertex 0.5 17.474 34.8949
      vertex 24.5 17.474 34.8949
    endloop
  endfacet
  facet normal 0 -0.561922 0.82719
    outer loop
      vertex 0.5 5.30014 11.4881
      vertex 24.5 4.50906 10.9507
      vertex 24.5 5.30014 11.4881
    endloop
  endfacet
  facet normal 0 -0.561922 0.82719
    outer loop
      vertex 24.5 4.50906 10.9507
      vertex 0.5 5.30014 11.4881
      vertex 0.5 4.50906 10.9507
    endloop
  endfacet
  facet normal 0 -0.611453 0.791281
    outer loop
      vertex 0.5 6.82438 12.629
      vertex 24.5 6.07216 12.0477
      vertex 24.5 6.82438 12.629
    endloop
  endfacet
  facet normal 0 -0.611453 0.791281
    outer loop
      vertex 24.5 6.07216 12.0477
      vertex 0.5 6.82438 12.629
      vertex 0.5 6.07216 12.0477
    endloop
  endfacet
  facet normal 0 -0.935275 0.353923
    outer loop
      vertex 0.5 15.6279 24.3492
      vertex 24.5 15.9483 25.1959
      vertex 0.5 15.9483 25.1959
    endloop
  endfacet
  facet normal 0 -0.935275 0.353923
    outer loop
      vertex 24.5 15.9483 25.1959
      vertex 0.5 15.6279 24.3492
      vertex 24.5 15.6279 24.3492
    endloop
  endfacet
  facet normal 0 -0.996238 0.0866604
    outer loop
      vertex 0.5 17.3497 31.3188
      vertex 24.5 17.4274 32.2111
      vertex 0.5 17.4274 32.2111
    endloop
  endfacet
  facet normal 0 -0.996238 0.0866604
    outer loop
      vertex 24.5 17.4274 32.2111
      vertex 0.5 17.3497 31.3188
      vertex 24.5 17.3497 31.3188
    endloop
  endfacet
  facet normal 0 -0.992638 0.121122
    outer loop
      vertex 0.5 17.2412 30.4292
      vertex 24.5 17.3497 31.3188
      vertex 0.5 17.3497 31.3188
    endloop
  endfacet
  facet normal 0 -0.992638 0.121122
    outer loop
      vertex 24.5 17.3497 31.3188
      vertex 0.5 17.2412 30.4292
      vertex 24.5 17.2412 30.4292
    endloop
  endfacet
  facet normal 0 -0.863074 0.505078
    outer loop
      vertex 0.5 13.5945 20.2746
      vertex 24.5 14.0573 21.0656
      vertex 0.5 14.0573 21.0656
    endloop
  endfacet
  facet normal 0 -0.863074 0.505078
    outer loop
      vertex 24.5 14.0573 21.0656
      vertex 0.5 13.5945 20.2746
      vertex 24.5 13.5945 20.2746
    endloop
  endfacet
  facet normal 0 -0.894769 0.44653
    outer loop
      vertex 0.5 14.4926 21.8693
      vertex 24.5 14.8996 22.6851
      vertex 0.5 14.8996 22.6851
    endloop
  endfacet
  facet normal 0 -0.894769 0.44653
    outer loop
      vertex 24.5 14.8996 22.6851
      vertex 0.5 14.4926 21.8693
      vertex 24.5 14.4926 21.8693
    endloop
  endfacet
  facet normal 0 -0.922756 0.385385
    outer loop
      vertex 0.5 15.2782 23.5119
      vertex 24.5 15.6279 24.3492
      vertex 0.5 15.6279 24.3492
    endloop
  endfacet
  facet normal 0 -0.922756 0.385385
    outer loop
      vertex 24.5 15.6279 24.3492
      vertex 0.5 15.2782 23.5119
      vertex 24.5 15.2782 23.5119
    endloop
  endfacet
  facet normal 0 -0.769536 0.638603
    outer loop
      vertex 0.5 10.8816 16.538
      vertex 24.5 11.4755 17.2537
      vertex 0.5 11.4755 17.2537
    endloop
  endfacet
  facet normal 0 -0.769536 0.638603
    outer loop
      vertex 24.5 11.4755 17.2537
      vertex 0.5 10.8816 16.538
      vertex 24.5 10.8816 16.538
    endloop
  endfacet
  facet normal 0 -0.809218 0.587509
    outer loop
      vertex 0.5 12.0444 17.986
      vertex 24.5 12.5875 18.734
      vertex 0.5 12.5875 18.734
    endloop
  endfacet
  facet normal 0 -0.809218 0.587509
    outer loop
      vertex 24.5 12.5875 18.734
      vertex 0.5 12.0444 17.986
      vertex 24.5 12.0444 17.986
    endloop
  endfacet
  facet normal 0 -0.727181 0.686446
    outer loop
      vertex 0.5 9.62062 15.1589
      vertex 24.5 10.2631 15.8395
      vertex 0.5 10.2631 15.8395
    endloop
  endfacet
  facet normal 0 -0.727181 0.686446
    outer loop
      vertex 24.5 10.2631 15.8395
      vertex 0.5 9.62062 15.1589
      vertex 24.5 9.62062 15.1589
    endloop
  endfacet
  facet normal 0 -0.922757 -0.385383
    outer loop
      vertex 0.5 15.6279 43.6508
      vertex 24.5 15.2782 44.4881
      vertex 0.5 15.2782 44.4881
    endloop
  endfacet
  facet normal 0 -0.922757 -0.385383
    outer loop
      vertex 24.5 15.2782 44.4881
      vertex 0.5 15.6279 43.6508
      vertex 24.5 15.6279 43.6508
    endloop
  endfacet
  facet normal 0 -0.863074 -0.505078
    outer loop
      vertex 0.5 14.0573 46.9344
      vertex 24.5 13.5945 47.7254
      vertex 0.5 13.5945 47.7254
    endloop
  endfacet
  facet normal 0 -0.863074 -0.505078
    outer loop
      vertex 24.5 13.5945 47.7254
      vertex 0.5 14.0573 46.9344
      vertex 24.5 14.0573 46.9344
    endloop
  endfacet
  facet normal 0 -0.879367 -0.476144
    outer loop
      vertex 0.5 14.4926 46.1307
      vertex 24.5 14.0573 46.9344
      vertex 0.5 14.0573 46.9344
    endloop
  endfacet
  facet normal 0 -0.879367 -0.476144
    outer loop
      vertex 24.5 14.0573 46.9344
      vertex 0.5 14.4926 46.1307
      vertex 24.5 14.4926 46.1307
    endloop
  endfacet
  facet normal 0 -0.586888 0.809668
    outer loop
      vertex 0.5 6.07216 12.0477
      vertex 24.5 5.30014 11.4881
      vertex 24.5 6.07216 12.0477
    endloop
  endfacet
  facet normal 0 -0.586888 0.809668
    outer loop
      vertex 24.5 5.30014 11.4881
      vertex 0.5 6.07216 12.0477
      vertex 0.5 5.30014 11.4881
    endloop
  endfacet
  facet normal 0 -0.635588 0.772028
    outer loop
      vertex 0.5 7.55605 13.2313
      vertex 24.5 6.82438 12.629
      vertex 24.5 7.55605 13.2313
    endloop
  endfacet
  facet normal 0 -0.635588 0.772028
    outer loop
      vertex 24.5 6.82438 12.629
      vertex 0.5 7.55605 13.2313
      vertex 0.5 6.82438 12.629
    endloop
  endfacet
  facet normal 0 -0.484896 0.874572
    outer loop
      vertex 0.5 2.87292 9.94467
      vertex 24.5 2.02946 9.47703
      vertex 24.5 2.87292 9.94467
    endloop
  endfacet
  facet normal 0 -0.484896 0.874572
    outer loop
      vertex 24.5 2.02946 9.47703
      vertex 0.5 2.87292 9.94467
      vertex 0.5 2.02946 9.47703
    endloop
  endfacet
  facet normal 0 -0.536584 0.843847
    outer loop
      vertex 0.5 4.50906 10.9507
      vertex 24.5 3.69972 10.4361
      vertex 24.5 4.50906 10.9507
    endloop
  endfacet
  facet normal 0 -0.536584 0.843847
    outer loop
      vertex 24.5 3.69972 10.4361
      vertex 0.5 4.50906 10.9507
      vertex 0.5 3.69972 10.4361
    endloop
  endfacet
  facet normal 0 -0.4586 0.888643
    outer loop
      vertex 0.5 2.02946 9.47703
      vertex 24.5 1.17018 9.03358
      vertex 24.5 2.02946 9.47703
    endloop
  endfacet
  facet normal 0 -0.4586 0.888643
    outer loop
      vertex 24.5 1.17018 9.03358
      vertex 0.5 2.02946 9.47703
      vertex 0.5 1.17018 9.03358
    endloop
  endfacet
  facet normal 0 -0.966551 0.256475
    outer loop
      vertex 0.5 16.5002 26.9147
      vertex 24.5 16.7311 27.785
      vertex 0.5 16.7311 27.785
    endloop
  endfacet
  facet normal 0 -0.966551 0.256475
    outer loop
      vertex 24.5 16.7311 27.785
      vertex 0.5 16.5002 26.9147
      vertex 24.5 16.5002 26.9147
    endloop
  endfacet
  facet normal 0 -0.998644 0.0520515
    outer loop
      vertex 0.5 17.4274 32.2111
      vertex 24.5 17.474 33.1051
      vertex 0.5 17.474 33.1051
    endloop
  endfacet
  facet normal 0 -0.998644 0.0520515
    outer loop
      vertex 24.5 17.474 33.1051
      vertex 0.5 17.4274 32.2111
      vertex 24.5 17.4274 32.2111
    endloop
  endfacet
  facet normal 0 -0.879367 0.476144
    outer loop
      vertex 0.5 14.0573 21.0656
      vertex 24.5 14.4926 21.8693
      vertex 0.5 14.4926 21.8693
    endloop
  endfacet
  facet normal 0 -0.879367 0.476144
    outer loop
      vertex 24.5 14.4926 21.8693
      vertex 0.5 14.0573 21.0656
      vertex 24.5 14.0573 21.0656
    endloop
  endfacet
  facet normal 0 -0.909243 0.416266
    outer loop
      vertex 0.5 14.8996 22.6851
      vertex 24.5 15.2782 23.5119
      vertex 0.5 15.2782 23.5119
    endloop
  endfacet
  facet normal 0 -0.909243 0.416266
    outer loop
      vertex 24.5 15.2782 23.5119
      vertex 0.5 14.8996 22.6851
      vertex 24.5 14.8996 22.6851
    endloop
  endfacet
  facet normal 0 -0.789729 0.613456
    outer loop
      vertex 0.5 11.4755 17.2537
      vertex 24.5 12.0444 17.986
      vertex 0.5 12.0444 17.986
    endloop
  endfacet
  facet normal 0 -0.789729 0.613456
    outer loop
      vertex 24.5 12.0444 17.986
      vertex 0.5 11.4755 17.2537
      vertex 24.5 11.4755 17.2537
    endloop
  endfacet
  facet normal 0 -0.96655 -0.256477
    outer loop
      vertex 0.5 16.7311 40.215
      vertex 24.5 16.5002 41.0853
      vertex 0.5 16.5002 41.0853
    endloop
  endfacet
  facet normal 0 -0.96655 -0.256477
    outer loop
      vertex 24.5 16.5002 41.0853
      vertex 0.5 16.7311 40.215
      vertex 24.5 16.7311 40.215
    endloop
  endfacet
  facet normal 0 -0.946766 -0.321922
    outer loop
      vertex 0.5 16.2392 41.9486
      vertex 24.5 15.9483 42.804
      vertex 0.5 15.9483 42.804
    endloop
  endfacet
  facet normal 0 -0.946766 -0.321922
    outer loop
      vertex 24.5 15.9483 42.804
      vertex 0.5 16.2392 41.9486
      vertex 24.5 16.2392 41.9486
    endloop
  endfacet
  facet normal 0 -0.957201 -0.289424
    outer loop
      vertex 0.5 16.5002 41.0853
      vertex 24.5 16.2392 41.9486
      vertex 0.5 16.2392 41.9486
    endloop
  endfacet
  facet normal 0 -0.957201 -0.289424
    outer loop
      vertex 24.5 16.2392 41.9486
      vertex 0.5 16.5002 41.0853
      vertex 24.5 16.5002 41.0853
    endloop
  endfacet
  facet normal 0 -0.909243 -0.416266
    outer loop
      vertex 0.5 15.2782 44.4881
      vertex 24.5 14.8996 45.3149
      vertex 0.5 14.8996 45.3149
    endloop
  endfacet
  facet normal 0 -0.909243 -0.416266
    outer loop
      vertex 24.5 14.8996 45.3149
      vertex 0.5 15.2782 44.4881
      vertex 24.5 15.2782 44.4881
    endloop
  endfacet
  facet normal 0 -0.996238 -0.0866608
    outer loop
      vertex 0.5 17.4274 35.7889
      vertex 24.5 17.3497 36.6812
      vertex 0.5 17.3497 36.6812
    endloop
  endfacet
  facet normal 0 -0.996238 -0.0866608
    outer loop
      vertex 24.5 17.3497 36.6812
      vertex 0.5 17.4274 35.7889
      vertex 24.5 17.4274 35.7889
    endloop
  endfacet
  facet normal 0 -0.992638 -0.121122
    outer loop
      vertex 0.5 17.3497 36.6812
      vertex 24.5 17.2412 37.5708
      vertex 0.5 17.2412 37.5708
    endloop
  endfacet
  facet normal 0 -0.992638 -0.121122
    outer loop
      vertex 24.5 17.2412 37.5708
      vertex 0.5 17.3497 36.6812
      vertex 24.5 17.3497 36.6812
    endloop
  endfacet
  facet normal 0 -0.65926 0.751915
    outer loop
      vertex 0.5 8.26644 13.8542
      vertex 24.5 7.55605 13.2313
      vertex 24.5 8.26644 13.8542
    endloop
  endfacet
  facet normal 0 -0.65926 0.751915
    outer loop
      vertex 24.5 7.55605 13.2313
      vertex 0.5 8.26644 13.8542
      vertex 0.5 7.55605 13.2313
    endloop
  endfacet
  facet normal 0 -0.510899 0.859641
    outer loop
      vertex 0.5 3.69972 10.4361
      vertex 24.5 2.87292 9.94467
      vertex 24.5 3.69972 10.4361
    endloop
  endfacet
  facet normal 0 -0.510899 0.859641
    outer loop
      vertex 24.5 2.87292 9.94467
      vertex 0.5 3.69972 10.4361
      vertex 0.5 2.87292 9.94467
    endloop
  endfacet
  facet normal 0 -0.432031 0.901859
    outer loop
      vertex 0.5 1.17018 9.03358
      vertex 24.5 0.5 8.71254
      vertex 24.5 1.17018 9.03358
    endloop
  endfacet
  facet normal 0 -0.432031 0.901859
    outer loop
      vertex 24.5 0.5 8.71254
      vertex 0.5 1.17018 9.03358
      vertex 0.5 0.5 8.71254
    endloop
  endfacet
  facet normal 0 -0.974791 0.223119
    outer loop
      vertex 0.5 16.7311 27.785
      vertex 24.5 16.9317 28.6614
      vertex 0.5 16.9317 28.6614
    endloop
  endfacet
  facet normal 0 -0.974791 0.223119
    outer loop
      vertex 24.5 16.9317 28.6614
      vertex 0.5 16.7311 27.785
      vertex 24.5 16.7311 27.785
    endloop
  endfacet
  facet normal 0 -0.981899 0.189406
    outer loop
      vertex 0.5 16.9317 28.6614
      vertex 24.5 17.1018 29.5431
      vertex 0.5 17.1018 29.5431
    endloop
  endfacet
  facet normal 0 -0.981899 0.189406
    outer loop
      vertex 24.5 17.1018 29.5431
      vertex 0.5 16.9317 28.6614
      vertex 24.5 16.9317 28.6614
    endloop
  endfacet
  facet normal 0 -0.957201 0.289426
    outer loop
      vertex 0.5 16.2392 26.0514
      vertex 24.5 16.5002 26.9147
      vertex 0.5 16.5002 26.9147
    endloop
  endfacet
  facet normal 0 -0.957201 0.289426
    outer loop
      vertex 24.5 16.5002 26.9147
      vertex 0.5 16.2392 26.0514
      vertex 24.5 16.2392 26.0514
    endloop
  endfacet
  facet normal 0 -0.987853 0.155393
    outer loop
      vertex 0.5 17.1018 29.5431
      vertex 24.5 17.2412 30.4292
      vertex 0.5 17.2412 30.4292
    endloop
  endfacet
  facet normal 0 -0.987853 0.155393
    outer loop
      vertex 24.5 17.2412 30.4292
      vertex 0.5 17.1018 29.5431
      vertex 24.5 17.1018 29.5431
    endloop
  endfacet
  facet normal 0 -0.974791 -0.223118
    outer loop
      vertex 0.5 16.9317 39.3386
      vertex 24.5 16.7311 40.215
      vertex 0.5 16.7311 40.215
    endloop
  endfacet
  facet normal 0 -0.974791 -0.223118
    outer loop
      vertex 24.5 16.7311 40.215
      vertex 0.5 16.9317 39.3386
      vertex 24.5 16.9317 39.3386
    endloop
  endfacet
  facet normal 0 -0.981899 -0.189406
    outer loop
      vertex 0.5 17.1018 38.4569
      vertex 24.5 16.9317 39.3386
      vertex 0.5 16.9317 39.3386
    endloop
  endfacet
  facet normal 0 -0.981899 -0.189406
    outer loop
      vertex 24.5 16.9317 39.3386
      vertex 0.5 17.1018 38.4569
      vertex 24.5 17.1018 38.4569
    endloop
  endfacet
  facet normal 0 -0.987853 -0.155393
    outer loop
      vertex 0.5 17.2412 37.5708
      vertex 24.5 17.1018 38.4569
      vertex 0.5 17.1018 38.4569
    endloop
  endfacet
  facet normal 0 -0.987853 -0.155393
    outer loop
      vertex 24.5 17.1018 38.4569
      vertex 0.5 17.2412 37.5708
      vertex 24.5 17.2412 37.5708
    endloop
  endfacet
endsolid OpenSCAD_Model
